<?xml version="1.0" standalone="no"?><!DOCTYPE svg PUBLIC "-//W3C//DTD SVG 1.1//EN" "http://www.w3.org/Graphics/SVG/1.1/DTD/svg11.dtd"><svg t="1750259610346" class="icon" viewBox="0 0 1024 1024" version="1.1" xmlns="http://www.w3.org/2000/svg" p-id="32830" xmlns:xlink="http://www.w3.org/1999/xlink" width="200" height="200"><path d="M384 128h32v32h-32z" fill="#E8442E" p-id="32831"></path><path d="M816 416H656V224c0-35.2-28.8-64-64-64h-32V128h-70.4c-12.8-38.4-48-64-89.6-64-41.6 0-76.8 25.6-89.6 64H240v32h-32c-35.2 0-64 28.8-64 64v448c0 35.2 28.8 64 64 64h224v160c0 35.2 28.8 64 64 64h320c35.2 0 64-28.8 64-64V480c0-35.2-28.8-64-64-64zM272 160h60.8l6.4-22.4C348.8 112 374.4 96 400 96c25.6 0 51.2 16 60.8 41.6l6.4 22.4H528v64H272v-64z m160 320v224H208c-19.2 0-32-12.8-32-32V224c0-19.2 12.8-32 32-32h32v64h320v-64h32c19.2 0 32 12.8 32 32v192h-128c-35.2 0-64 28.8-64 64z m416 416c0 19.2-12.8 32-32 32H496c-19.2 0-32-12.8-32-32V480c0-19.2 12.8-32 32-32h320c19.2 0 32 12.8 32 32v416z" fill="#E8442E" p-id="32832"></path><path d="M528 608h256v-96H528v96z m32-64h192v32H560v-32zM528 736h32v-32h32v32h32v-64h-96zM688 736h32v-32h32v32h32v-64h-96zM528 864h32v-32h32v32h32v-64h-96zM688 864h32v-32h32v32h32v-64h-96zM240 320h128v32h-128zM432 320h128v32h-128zM240 416h128v32h-128zM240 512h128v32h-128zM240 608h128v32h-128z" fill="#E8442E" p-id="32833"></path></svg>