<?xml version="1.0" standalone="no"?><!DOCTYPE svg PUBLIC "-//W3C//DTD SVG 1.1//EN" "http://www.w3.org/Graphics/SVG/1.1/DTD/svg11.dtd"><svg t="1706357291042" class="icon" viewBox="0 0 1024 1024" version="1.1" xmlns="http://www.w3.org/2000/svg" p-id="8308" xmlns:xlink="http://www.w3.org/1999/xlink" width="64" height="64"><path d="M543.914667 128.042667h322.304l4.266666 0.64 4.224 1.152 2.56 1.109333a30.72 30.72 0 0 1 9.344 6.4l1.706667 1.92 2.602667 3.456 1.578666 2.773333 1.664 3.84 0.810667 2.773334 0.597333 2.730666 0.384 3.968v321.408a32 32 0 0 1-63.701333 4.352l-0.256-4.352-0.042667-243.029333-649.386666 649.642667a32 32 0 0 1-41.642667 3.072l-3.584-3.072a32 32 0 0 1-3.114667-41.685334l3.114667-3.584L786.688 192l-242.773333 0.042667a32 32 0 0 1-31.701334-27.648l-0.298666-4.352a32 32 0 0 1 27.648-31.701334l4.352-0.298666z" fill="#000000" p-id="8309"></path></svg>