<?xml version="1.0" standalone="no"?><!DOCTYPE svg PUBLIC "-//W3C//DTD SVG 1.1//EN" "http://www.w3.org/Graphics/SVG/1.1/DTD/svg11.dtd"><svg t="1749572106297" class="icon" viewBox="0 0 1024 1024" version="1.1" xmlns="http://www.w3.org/2000/svg" p-id="15805" xmlns:xlink="http://www.w3.org/1999/xlink" width="200" height="200"><path d="M682.666667 480H408.32l75.946667-76.373333a31.573333 31.573333 0 0 0 0-45.226667 32 32 0 0 0-45.226667 0l-130.986667 130.986667a32 32 0 0 0 0 45.226666l130.986667 130.986667a32 32 0 1 0 45.226667-45.226667l-76.373334-76.373333H682.666667a32 32 0 0 0 32-32 32 32 0 0 0-32-32z" fill="#ffffff" p-id="15806"></path><path d="M512 85.333333a426.666667 426.666667 0 1 0 426.666667 426.666667A426.666667 426.666667 0 0 0 512 85.333333z m0 789.333334a362.666667 362.666667 0 1 1 362.666667-362.666667 363.093333 363.093333 0 0 1-362.666667 362.666667z" fill="#ffffff" p-id="15807"></path></svg>