<?xml version="1.0" standalone="no"?><!DOCTYPE svg PUBLIC "-//W3C//DTD SVG 1.1//EN" "http://www.w3.org/Graphics/SVG/1.1/DTD/svg11.dtd"><svg t="1752566724181" class="icon" viewBox="0 0 1560 1024" version="1.1" xmlns="http://www.w3.org/2000/svg" p-id="1674" xmlns:xlink="http://www.w3.org/1999/xlink" width="304.6875" height="200"><path d="M141.409524 0h1275.123809C1496.990476 0 1560.380952 63.390476 1560.380952 138.971429v746.057142c0 78.019048-63.390476 138.971429-141.409523 138.971429H141.409524C63.390476 1024 0 960.609524 0 885.028571V138.971429C0 63.390476 63.390476 0 141.409524 0z" fill="#C70000" p-id="1675"></path><path d="M0 885.028571C0 960.609524 63.390476 1024 141.409524 1024h1277.561905c78.019048 0 141.409524-60.952381 141.409523-138.971429V682.666667H0v202.361904z" fill="#009100" p-id="1676"></path><path d="M216.990476 755.809524h9.752381v17.066666h-9.752381zM216.990476 989.866667h9.752381v17.066666h-9.752381zM158.47619 804.571429h-9.75238v-14.628572h-9.752381v14.628572h-9.752381v17.066666h-9.752381v17.066667h9.752381v17.066667h9.752381v17.066666h9.752381v-17.066666h9.75238v-17.066667h9.752381v-17.066667h-9.752381zM216.990476 804.571429h-9.752381v-14.628572h-9.752381v14.628572h-9.752381v17.066666h-9.752381v17.066667h9.752381v17.066667h9.752381v17.066666h9.752381v-17.066666h9.752381v-17.066667h9.752381v-17.066667h-9.752381zM216.990476 889.904762h9.752381v17.066667h-9.752381zM197.485714 1006.933333v-17.066666h9.752381v-17.066667h9.752381v-17.066667h9.752381v-14.628571h-9.752381v-17.066667h-9.752381v-17.066666h-9.752381v-17.066667h-9.752381v-17.066667h-9.752381v-17.066666h-9.752381v17.066666h-9.752381v17.066667h-9.75238v17.066667h-9.752381v17.066666h-9.752381v17.066667h-9.752381v14.628571h9.752381v17.066667h9.752381v17.066667h9.752381v17.066666h9.75238v17.066667h29.257143v-17.066667zM216.990476 638.780952h9.752381v17.066667h-9.752381zM158.47619 514.438095v-9.752381h-9.75238V519.314286h9.75238zM0 889.904762v17.066667h2.438095c-2.438095-4.87619-2.438095-12.190476-2.438095-17.066667z" fill="#FFFFFF" p-id="1677"></path><path d="M9.752381 889.904762H0c0 4.87619 0 12.190476 2.438095 17.066667h7.314286v-17.066667zM78.019048 989.866667h12.190476v-17.066667h9.752381v-17.066667h9.752381v-14.628571h-9.752381v-17.066667h-9.752381v-17.066666h-12.190476v-17.066667h-9.752381v-17.066667h-9.752381v-17.066666H48.761905v17.066666h-9.752381v17.066667h-9.752381v17.066667H19.504762v17.066666H9.752381v9.752381c12.190476 31.695238 34.133333 56.07619 63.390476 73.142857h4.876191v-17.066666zM0 755.809524h9.752381v17.066666H0zM9.752381 855.771429h9.752381v17.066666h9.752381v-17.066666h9.752381v-17.066667H48.761905v-17.066667h-9.752381V804.571429h-9.752381v-14.628572H19.504762v14.628572H9.752381v17.066666H0v17.066667h9.752381zM109.714286 821.638095h-9.752381V804.571429h-9.752381v-14.628572h-12.190476v14.628572h-9.752381v17.066666h-9.752381v17.066667h9.752381v17.066667h9.752381v17.066666h12.190476v-17.066666h9.752381v-17.066667h9.752381zM114.590476 789.942857h4.876191V755.809524h-9.752381v34.133333h2.438095zM112.152381 872.838095h-2.438095v34.133334h9.752381v-34.133334h-4.876191zM114.590476 989.866667h-4.87619v29.257143c2.438095 0 7.314286 2.438095 9.752381 2.438095v-31.695238h-4.876191z" fill="#FFFFFF" p-id="1678"></path><path d="M9.752381 738.742857h9.752381v17.066667h9.752381v17.066666h9.752381v17.066667H48.761905v14.628572h9.752381v-17.066667h9.752381v-17.066667h9.752381V755.809524h9.752381v-17.066667H97.52381v-17.066667h9.75238v-17.066666h12.190477v17.066666h9.752381v17.066667h9.752381v17.066667h9.752381v17.066666h9.75238v17.066667h9.752381v14.628572h9.752381v-17.066667h9.752381v-17.066667h9.752381V755.809524h9.752381v-17.066667h9.752381v-17.066667h9.752381v-34.133333h-9.752381v-17.066667h-9.752381v-17.066666h-9.752381v-17.066667h-9.752381v17.066667h-9.752381v17.066666h-9.752381v17.066667h19.504762v17.066667H158.47619v-17.066667h-9.75238v-17.066667h-9.752381v-17.066666h9.752381v-17.066667h9.75238v-17.066667h9.752381v-17.066666h9.752381V585.142857h9.752381v-17.066667h9.752381v17.066667h9.752381v17.066667h9.752381v17.066666h9.752381v-51.2h-9.752381v-17.066666h-9.752381V536.380952h-9.752381v-17.066666h-9.752381v-17.066667h9.752381V487.619048h9.752381v-17.066667h9.752381v-17.066667h9.752381v-51.2h-9.752381v17.066667h-9.752381v17.066667h-9.752381v17.066666h-9.752381v-17.066666h-9.752381v-17.066667h-9.752381v-17.066667h-9.752381v-17.066666h-9.75238v-17.066667h-9.752381v-17.066667h9.752381v-17.066666h9.75238V316.952381h29.257143v17.066667h-19.504762v17.066666h9.752381v17.066667h9.752381v17.066667h9.752381v-17.066667h9.752381v-17.066667h9.752381v-17.066666h9.752381v-34.133334h-9.752381v-17.066666h-9.752381V268.190476h-9.752381v-17.066666h-9.752381v-17.066667h-9.752381V219.428571h-9.752381v17.066667h-9.752381v17.066667h-9.75238v14.628571h-9.752381v17.066667h-9.752381v17.066667h-9.752381v17.066666h-9.752381v-17.066666h-9.752381v-17.066667h-9.752381V268.190476h-12.190476v-17.066666h-9.752381v-17.066667h-9.752381V219.428571H48.761905v17.066667h-9.752381v17.066667h-9.752381v14.628571H19.504762v17.066667H9.752381v17.066667H0v34.133333h9.752381v17.066667h9.752381v17.066666h9.752381v17.066667h9.752381v-17.066667H48.761905v-17.066666h9.752381v-17.066667h-19.504762v-17.066667h29.257143v17.066667h9.752381v17.066667h9.752381v17.066666h-9.752381v17.066667h-9.752381v17.066667h-9.752381v17.066666H48.761905v17.066667h-9.752381v17.066667h-9.752381V438.857143H19.504762v-17.066667H9.752381v-17.066666H0v51.2h9.752381v17.066666h9.752381v14.628572h9.752381v17.066666h9.752381v17.066667h-9.752381v14.628571H19.504762v17.066667H9.752381v17.066667H0v51.2h9.752381v-17.066667h9.752381v-17.066667h9.752381v-17.066666h9.752381v17.066666H48.761905v17.066667h9.752381v17.066667h9.752381v17.066666h9.752381v17.066667h9.752381v17.066667h-9.752381v17.066666h-9.752381v17.066667H39.009524v-17.066667h19.504762v-17.066666H48.761905v-17.066667h-9.752381v-17.066667h-9.752381v17.066667H19.504762v17.066667H9.752381v17.066666H0v34.133334h9.752381v14.628571z m68.266667-151.161905v-17.066666h-9.752381v-17.066667h-9.752381v-85.333333h9.752381v-17.066667h9.752381v-17.066667h9.752381v-17.066666H97.52381v-17.066667h9.75238v-17.066667h12.190477v17.066667h9.752381v17.066667h9.752381v17.066666h9.752381v17.066667h9.75238v17.066667h9.752381v85.333333h-9.752381v17.066667h-9.75238v17.066666h-9.752381v17.066667h-9.752381v17.066667h-9.752381v17.066666h-9.752381v-17.066666h-9.752381v-17.066667h-9.752381v-17.066667h-12.190476z" fill="#FFFFFF" p-id="1679"></path><path d="M0 638.780952h9.752381v17.066667H0zM99.961905 553.447619h9.752381V536.380952h9.752381v17.066667h9.752381v17.066667h9.752381V536.380952h-9.752381v-17.066666h-9.752381V504.685714h9.752381V487.619048h9.752381v-34.133334h-9.752381v17.066667h-9.752381v17.066667h-9.752381v-17.066667h-9.752381v-17.066667h-9.752381V487.619048h9.752381v17.066666h9.752381V519.314286h-9.752381v17.066666h-9.752381v34.133334h9.752381zM112.152381 587.580952h-2.438095v17.066667h9.752381v-17.066667h-4.876191zM114.590476 151.161905h4.876191V117.028571h-9.752381v34.133334h2.438095zM216.990476 168.228571h-9.752381v-17.066666h-9.752381v17.066666h-9.752381v17.066667h-9.752381v17.066667h9.752381V219.428571h9.752381v14.628572h9.752381V219.428571h9.752381v-17.066666h9.752381v-17.066667h-9.752381zM216.990476 251.12381h9.752381v17.066666h-9.752381zM216.990476 117.028571h9.752381v17.066667h-9.752381zM216.990476 17.066667h9.752381v17.066666h-9.752381zM158.47619 168.228571h-9.75238v-17.066666h-9.752381v17.066666h-9.752381v17.066667h-9.752381v17.066667h9.752381V219.428571h9.752381v14.628572h9.752381V219.428571h9.75238v-17.066666h9.752381v-17.066667h-9.752381zM148.72381 17.066667v17.066666h-9.752381v17.066667h-9.752381v17.066667h-9.752381v14.628571h9.752381v17.066667h9.752381v17.066666h9.752381v17.066667h9.75238v17.066667h9.752381v17.066666h9.752381v-17.066666h9.752381v-17.066667h9.752381v-17.066667h9.752381v-17.066666h9.752381v-17.066667h9.752381v-14.628571h-9.752381v-17.066667h-9.752381v-17.066667h-9.752381V17.066667h-9.752381V0H158.47619v17.066667zM216.990476 368.152381h9.752381v17.066667h-9.752381zM0 251.12381h9.752381v17.066666H0zM19.504762 99.961905v17.066666h9.752381v17.066667h9.752381v17.066667H48.761905v17.066666h9.752381v-17.066666h9.752381v-17.066667h9.752381v-17.066667h12.190476v-17.066666h9.752381v-17.066667h9.752381v-14.628571h-9.752381v-17.066667h-9.752381v-17.066667h-12.190476V17.066667H73.142857C43.885714 31.695238 21.942857 58.514286 9.752381 90.209524v9.752381h9.752381zM0 117.028571v0zM9.752381 117.028571H2.438095c-2.438095 4.87619-2.438095 12.190476-2.438095 17.066667h9.752381v-17.066667zM109.714286 185.295238h-9.752381v-17.066667h-9.752381v-17.066666h-12.190476v17.066666h-9.752381v17.066667h-9.752381v17.066667h9.752381V219.428571h9.752381v14.628572h12.190476V219.428571h9.752381v-17.066666h9.752381zM9.752381 219.428571h9.752381v14.628572h9.752381V219.428571h9.752381v-17.066666H48.761905v-17.066667h-9.752381v-17.066667h-9.752381v-17.066666H19.504762v17.066666H9.752381v17.066667H0v17.066667h9.752381zM112.152381 234.057143h-2.438095V268.190476h9.752381V234.057143h-4.876191zM112.152381 34.133333H119.466667V2.438095c-2.438095 0-7.314286 0-9.752381 2.438095l2.438095 29.257143zM68.266667 509.561905v9.752381h9.752381V504.685714h-9.752381zM0 368.152381h9.752381v17.066667H0zM114.590476 436.419048h4.876191v-17.066667h-9.752381v17.066667h2.438095z" fill="#FFFFFF" p-id="1680"></path></svg>