<?xml version="1.0" standalone="no"?><!DOCTYPE svg PUBLIC "-//W3C//DTD SVG 1.1//EN" "http://www.w3.org/Graphics/SVG/1.1/DTD/svg11.dtd"><svg t="1750258833700" class="icon" viewBox="0 0 1280 1024" version="1.1" xmlns="http://www.w3.org/2000/svg" p-id="20268" xmlns:xlink="http://www.w3.org/1999/xlink" width="250" height="200"><path d="M1248 448H960V32c0-17.6-14.4-32-32-32H352c-17.6 0-32 14.4-32 32v416H32c-17.6 0-32 14.4-32 32v512c0 17.6 14.4 32 32 32h1216c17.6 0 32-14.4 32-32V480c0-17.6-14.4-32-32-32z m-224 64v128h-128v-128h128zM576 64h128v128h-128V64z m-192 0h128v128c0 35.4 28.6 64 64 64h128c35.4 0 64-28.6 64-64V64h128v384H384V64z m-128 448h128v128h-128v-128z m352 448H64V512h128v128c0 35.4 28.6 64 64 64h128c35.4 0 64-28.6 64-64v-128h160v448z m608 0H672V512h160v128c0 35.4 28.6 64 64 64h128c35.4 0 64-28.6 64-64v-128h128v448z" p-id="20269" fill="#E8442E"></path></svg>