<?xml version="1.0" standalone="no"?><!DOCTYPE svg PUBLIC "-//W3C//DTD SVG 1.1//EN" "http://www.w3.org/Graphics/SVG/1.1/DTD/svg11.dtd"><svg t="1741266666382" class="icon" viewBox="0 0 1024 1024" version="1.1" xmlns="http://www.w3.org/2000/svg" p-id="1632" xmlns:xlink="http://www.w3.org/1999/xlink" width="64" height="64"><path d="M976.966462 235.283029H282.316567c-18.698651 0-33.897555 15.198904-33.897555 33.897555V754.945547c0 18.698651 15.198904 33.897555 33.897555 33.897555h73.994663c5.099632 0 9.099344 4.199697 8.899358 9.299329l-9.699301 198.085712c-1.199913 25.298175 30.397807 37.697281 46.596639 18.198688L580.895031 800.942229c6.399538-7.699445 15.998846-12.099127 25.998124-12.099127H976.966462c18.698651 0 33.897555-15.198904 33.897555-33.897555V269.180584c0-18.698651-15.198904-33.897555-33.897555-33.897555z m-22.59837 463.166593c0 18.698651-15.198904 33.897555-33.897555 33.897555h-339.975477c-9.999279 0-19.498594 4.399683-25.998125 12.099127L433.205683 889.335853c-5.499603 6.499531-16.098839 2.399827-15.698867-6.09956l5.599596-115.291684c0.899935-19.298608-14.498954-35.49744-33.897555-35.49744h-50.496358c-18.698651 0-33.897555-15.198904-33.897555-33.897555V325.676509c0-18.698651 15.198904-33.897555 33.897555-33.897555h581.758038c18.698651 0 33.897555 15.198904 33.897555 33.897555v372.773113z" p-id="1633" fill="#1283CF"></path><path d="M144.926477 497.064147H97.829874c-15.598875 0-28.197966-12.599091-28.197966-28.197966V84.693891c0-15.598875 12.599091-28.197966 28.197966-28.197966h593.057223c15.598875 0 28.197966 12.599091 28.197966 28.197966v47.096603c0 15.598875 12.599091 28.197966 28.197966 28.197966s28.197966-12.599091 28.197966-28.197966V28.197966C775.580988 12.599091 762.981897 0 747.383022 0h-705.949081C25.735074 0 13.135983 12.599091 13.135983 28.197966v497.064147c0 15.598875 12.599091 28.197966 28.197966 28.197967h103.492535c15.598875 0 28.197966-12.599091 28.197966-28.197967 0.099993-15.598875-12.499098-28.197966-28.097973-28.197966zM468.203159 453.667277c-32.197678 0-58.395788 26.098118-58.395788 58.395788 0 32.197678 26.098118 58.395788 58.395788 58.395788 32.197678 0 58.395788-26.098118 58.395788-58.395788 0-32.197678-26.19811-58.395788-58.395788-58.395788zM629.691511 453.667277c-32.197678 0-58.395788 26.098118-58.395788 58.395788 0 32.197678 26.098118 58.395788 58.395788 58.395788 32.197678 0 58.395788-26.098118 58.395788-58.395788-0.099993-32.197678-26.19811-58.395788-58.395788-58.395788zM791.07987 453.667277c-32.197678 0-58.395788 26.098118-58.395788 58.395788 0 32.197678 26.098118 58.395788 58.395788 58.395788 32.197678 0 58.395788-26.098118 58.395788-58.395788 0-32.197678-26.19811-58.395788-58.395788-58.395788z" p-id="1634" fill="#1283CF"></path></svg>