<?xml version="1.0" standalone="no"?><!DOCTYPE svg PUBLIC "-//W3C//DTD SVG 1.1//EN" "http://www.w3.org/Graphics/SVG/1.1/DTD/svg11.dtd"><svg t="1742829656111" class="icon" viewBox="0 0 1027 1024" version="1.1" xmlns="http://www.w3.org/2000/svg" p-id="4182" xmlns:xlink="http://www.w3.org/1999/xlink" width="64.1875" height="64"><path d="M208.213333 389.12v17.066667c0 58.026667 27.306667 102.4 61.44 102.4 37.546667 122.88 136.533333 208.213333 245.76 208.213333 105.813333 0 208.213333-92.16 245.76-218.453333 34.133333 0 61.44-44.373333 61.44-102.4v-17.066667-20.48-17.066667c3.413333-13.653333 0-23.893333 0-34.133333v-17.066667C822.613333 126.293333 696.32 0 532.48 0 341.333333 0 208.213333 119.466667 208.213333 290.133333v68.266667c-3.413333 10.24-3.413333 20.48 0 30.72z m580.266667-13.653333v20.48c0 40.96-17.066667 68.266667-27.306667 68.266666h-3.413333c-3.413333-3.413333-10.24-3.413333-17.066667 0-3.413333 3.413333-10.24 6.826667-10.24 10.24-27.306667 119.466667-119.466667 208.213333-215.04 208.213334-98.986667 0-191.146667-85.333333-218.453333-201.386667 0-6.826667-3.413333-10.24-10.24-10.24h-6.826667c-3.413333 0-6.826667 0-10.24 3.413333h-3.413333c-10.24 0-27.306667-27.306667-27.306667-68.266666v-20.48-10.24h54.613334c10.24 0 17.066667-6.826667 17.066666-17.066667 0-44.373333 6.826667-88.746667 13.653334-109.226667 0-3.413333 3.413333-6.826667 3.413333-10.24h44.373333c54.613333 0 85.333333-20.48 95.573334-44.373333C512 235.52 593.92 269.653333 686.08 273.066667c6.826667 37.546667 30.72 88.746667 34.133333 92.16 3.413333 6.826667 10.24 10.24 13.653334 10.24H788.48z" fill="#20BBFF" p-id="4183"></path><path d="M430.08 375.466667h-34.133333c-10.24 0-17.066667 6.826667-17.066667 17.066666s6.826667 17.066667 17.066667 17.066667h34.133333c10.24 0 17.066667-6.826667 17.066667-17.066667s-6.826667-17.066667-17.066667-17.066666zM634.88 375.466667h-34.133333c-10.24 0-17.066667 6.826667-17.066667 17.066666s6.826667 17.066667 17.066667 17.066667h34.133333c10.24 0 17.066667-6.826667 17.066667-17.066667s-6.826667-17.066667-17.066667-17.066666zM1027.413333 1003.52l-34.133333-133.12c-6.826667-30.72-27.306667-54.613333-54.613333-68.266667L709.973333 682.666667c-3.413333-3.413333-10.24-3.413333-13.653333 0l-10.24 10.24-105.813333 269.653333-27.306667-58.026667c10.24-13.653333 30.72-44.373333 30.72-71.68 0-40.96-27.306667-85.333333-68.266667-85.333333s-68.266667 44.373333-68.266666 85.333333c0 27.306667 20.48 58.026667 30.72 71.68l-30.72 61.44-112.64-273.066666-10.24-10.24H310.613333l-221.866666 109.226666c-27.306667 13.653333-47.786667 37.546667-54.613334 68.266667l-34.133333 139.946667c0 3.413333 0 10.24 3.413333 13.653333s10.24 10.24 17.066667 10.24h989.866667c6.826667 0 10.24-3.413333 13.653333-6.826667 3.413333-3.413333 3.413333-10.24 3.413333-13.653333z" fill="#20BBFF" p-id="4184"></path></svg>