<?xml version="1.0" standalone="no"?><!DOCTYPE svg PUBLIC "-//W3C//DTD SVG 1.1//EN" "http://www.w3.org/Graphics/SVG/1.1/DTD/svg11.dtd"><svg t="1742327818047" class="icon" viewBox="0 0 1024 1024" version="1.1" xmlns="http://www.w3.org/2000/svg" p-id="1789" xmlns:xlink="http://www.w3.org/1999/xlink" width="64" height="64"><path d="M60.632 340.182h902.738v42.184H60.632z" fill="#F58E6F" p-id="1790"></path><path d="M889.49 0H134.51C89.558 0 52.986 36.572 52.986 81.524v860.954c0 44.952 36.572 81.522 81.524 81.522h754.98c44.952 0 81.524-36.57 81.524-81.522V81.524C971.014 36.572 934.442 0 889.49 0z m66.234 942.478c0 36.52-29.71 66.232-66.234 66.232H134.51c-36.522 0-66.234-29.712-66.234-66.232V81.524c0-36.522 29.71-66.234 66.234-66.234h754.98c36.522 0 66.234 29.712 66.234 66.234v860.954z" fill="#4A555F" p-id="1791"></path><path d="M889.504 33.12H134.528c-26.708 0-48.418 21.712-48.418 48.418v258.656h851.764V81.538c0-26.706-21.712-48.418-48.37-48.418z m-1.966 242.906H136.444v-192.5h751.094v192.5zM86.11 942.458c0 26.706 21.71 48.418 48.418 48.418h754.978c26.656 0 48.368-21.712 48.368-48.418V382.344H86.11v560.114z m583.322-437.692c0-18.806 15.24-34.046 34.046-34.046h98.162c18.806 0 34.044 15.24 34.044 34.046V861.94c0 18.806-15.238 34.096-34.044 34.096h-98.162c-18.806 0-34.046-15.29-34.046-34.096V504.766z m-244.058 0c0-18.806 15.29-34.046 34.096-34.046h98.162c18.806 0 34.046 15.24 34.046 34.046v98.162c0 18.806-15.24 34.046-34.046 34.046h-98.162c-18.806 0-34.096-15.24-34.096-34.046v-98.162z m0 259.062c0-18.858 15.29-34.098 34.096-34.098h98.162c18.806 0 34.046 15.24 34.046 34.098v98.11c0 18.806-15.24 34.096-34.046 34.096h-98.162c-18.806 0-34.096-15.29-34.096-34.096v-98.11zM191.558 504.766c0-18.806 15.29-34.046 34.096-34.046h98.11c18.808 0 34.098 15.24 34.098 34.046v98.162c0 18.806-15.29 34.046-34.098 34.046h-98.11c-18.806 0-34.096-15.24-34.096-34.046v-98.162z m0 259.062c0-18.858 15.29-34.098 34.096-34.098h98.11c18.808 0 34.098 15.24 34.098 34.098v98.11c0 18.806-15.29 34.096-34.098 34.096h-98.11c-18.806 0-34.096-15.29-34.096-34.096v-98.11z" fill="#71CCE0" p-id="1792"></path><path d="M52.986 332.536v57.474h918.028v-57.474H52.986z m902.738 42.186H68.276v-26.894h887.448v26.894zM128.794 75.862v207.81h766.412V75.862H128.794z m751.122 192.522H144.084V91.152h735.832v177.232z" fill="#4A555F" p-id="1793"></path><path d="M161.922 108.99h700.154v141.554H161.922z" fill="#FFD452" p-id="1794"></path><path d="M323.784 463.076h-98.146c-23 0-41.708 18.71-41.708 41.708v98.146c0 23 18.71 41.708 41.708 41.708h98.146c23 0 41.712-18.71 41.712-41.708v-98.146c0-22.998-18.712-41.708-41.712-41.708z m26.422 139.856c0 14.568-11.854 26.418-26.422 26.418h-98.146c-14.568 0-26.418-11.85-26.418-26.418v-98.146c0-14.568 11.85-26.42 26.418-26.42h98.146c14.568 0 26.422 11.85 26.422 26.42v98.146zM323.784 722.096h-98.146c-23 0-41.708 18.71-41.708 41.708v98.146c0 23 18.71 41.708 41.708 41.708h98.146c23 0 41.712-18.71 41.712-41.708v-98.146c0-23-18.712-41.708-41.712-41.708z m26.422 139.854c0 14.568-11.854 26.418-26.422 26.418h-98.146c-14.568 0-26.418-11.85-26.418-26.418v-98.146c0-14.568 11.85-26.418 26.418-26.418h98.146c14.568 0 26.422 11.85 26.422 26.418v98.146zM557.608 463.076h-98.146c-23 0-41.708 18.71-41.708 41.708v98.146c0 23 18.708 41.708 41.708 41.708h98.146c23 0 41.708-18.71 41.708-41.708v-98.146c0-22.998-18.708-41.708-41.708-41.708z m26.418 139.856c0 14.568-11.85 26.418-26.418 26.418h-98.146c-14.568 0-26.418-11.85-26.418-26.418v-98.146c0-14.568 11.85-26.42 26.418-26.42h98.146c14.568 0 26.418 11.85 26.418 26.42v98.146zM557.608 722.096h-98.146c-23 0-41.708 18.71-41.708 41.708v98.146c0 23 18.708 41.708 41.708 41.708h98.146c23 0 41.708-18.71 41.708-41.708v-98.146c0-23-18.708-41.708-41.708-41.708z m26.418 139.854c0 14.568-11.85 26.418-26.418 26.418h-98.146c-14.568 0-26.418-11.85-26.418-26.418v-98.146c0-14.568 11.85-26.418 26.418-26.418h98.146c14.568 0 26.418 11.85 26.418 26.418v98.146zM801.632 463.076h-98.148c-23 0-41.708 18.71-41.708 41.708v357.164c0 23 18.708 41.708 41.708 41.708h98.148c22.998 0 41.708-18.71 41.708-41.708V504.786c0-23-18.712-41.71-41.708-41.71z m26.418 398.874c0 14.568-11.85 26.418-26.418 26.418h-98.148c-14.568 0-26.418-11.85-26.418-26.418V504.786c0-14.568 11.85-26.42 26.418-26.42h98.148c14.568 0 26.418 11.85 26.418 26.42v357.164z" fill="#4A555F" p-id="1795"></path><path d="M267.068 507.956h15.29v87.74h-15.29z" fill="#4A555F" p-id="1796"></path><path d="M230.84 544.186h87.744v15.29H230.84zM238.276 838.494l62.042-62.042 10.81 10.81-62.042 62.042z" fill="#4A555F" p-id="1797"></path><path d="M238.274 787.26l10.81-10.81 62.044 62.044-10.81 10.81zM466.154 805.234h87.746v15.29h-87.746zM464.664 544.186h87.744v15.29h-87.744zM709.982 651.834h87.742v15.29h-87.742zM709.982 699.614h87.742v15.29h-87.742zM499.702 768.336h15.29v15.004h-15.29zM499.702 840.946h15.29v15.004h-15.29zM729.42 215.838h96.208v15.29H729.42z" fill="#4A555F" p-id="1798"></path></svg>