<?xml version="1.0" standalone="no"?><!DOCTYPE svg PUBLIC "-//W3C//DTD SVG 1.1//EN" "http://www.w3.org/Graphics/SVG/1.1/DTD/svg11.dtd"><svg t="1750258956441" class="icon" viewBox="0 0 1024 1024" version="1.1" xmlns="http://www.w3.org/2000/svg" p-id="22657" xmlns:xlink="http://www.w3.org/1999/xlink" width="200" height="200"><path d="M446.08 80.128a142.528 142.528 0 0 1 131.84 0l157.12 81.92 148.864 80.448a142.592 142.592 0 0 1 74.752 124.16L960 522.496l-1.344 155.072a142.528 142.528 0 0 1-74.752 124.16l-149.44 80.832-156.608 81.6a142.528 142.528 0 0 1-131.712 0l-157.12-81.92-148.928-80.512a142.528 142.528 0 0 1-74.752-124.16L64 521.792l1.344-155.136a142.528 142.528 0 0 1 74.752-124.16l149.44-80.768 156.608-81.6z m94.144 72.256a61.12 61.12 0 0 0-56.448 0L327.488 233.856 178.816 314.176a61.12 61.12 0 0 0-32 53.184l-1.344 154.752 1.28 154.752a61.056 61.056 0 0 0 32.064 53.248l148.672 80.32 156.288 81.472a61.056 61.056 0 0 0 56.448 0l156.288-81.472 148.672-80.32a61.12 61.12 0 0 0 32-53.248l1.344-154.752-1.28-154.752a61.12 61.12 0 0 0-32.064-53.184l-148.672-80.32L540.224 152.32z" p-id="22658" fill="#E8442E"></path><path d="M519.744 481.792l342.4-184.32 38.592 71.68-339.584 182.848v364.416H479.68V552.96L113.472 369.664l36.48-72.832 369.792 184.96z" p-id="22659" fill="#E8442E"></path><path d="M285.44 169.728a40.704 40.704 0 0 1 55.04-16.768l438.144 233.664v191.04a40.704 40.704 0 0 1-81.472 0V435.52L302.208 224.832a40.704 40.704 0 0 1-16.768-55.04z" p-id="22660" fill="#E8442E"></path></svg>