<?xml version="1.0" standalone="no"?><!DOCTYPE svg PUBLIC "-//W3C//DTD SVG 1.1//EN" "http://www.w3.org/Graphics/SVG/1.1/DTD/svg11.dtd"><svg t="1740853951436" class="icon" viewBox="0 0 1024 1024" version="1.1" xmlns="http://www.w3.org/2000/svg" p-id="2611" xmlns:xlink="http://www.w3.org/1999/xlink" width="64" height="64"><path d="M725.333333 870.4h-512c-66.030933 0-102.4-36.369067-102.4-102.4V256c0-66.030933 36.369067-102.4 102.4-102.4h512c66.030933 0 102.4 36.369067 102.4 102.4v512c0 66.030933-36.369067 102.4-102.4 102.4z m-512-682.666667c-47.223467 0-68.266667 21.0432-68.266666 68.266667v512c0 47.223467 21.0432 68.266667 68.266666 68.266667h512c47.223467 0 68.266667-21.0432 68.266667-68.266667V256c0-47.223467-21.0432-68.266667-68.266667-68.266667h-512z" p-id="2612" fill="#FFCD00"></path><path d="M470.186667 716.8a33.962667 33.962667 0 0 1-24.132267-10.001067l-171.52-171.52a34.133333 34.133333 0 1 1 48.264533-48.264533l147.387734 147.387733 402.5344-402.5344a34.133333 34.133333 0 1 1 48.264533 48.264534l-426.666667 426.666666A33.962667 33.962667 0 0 1 470.186667 716.8z" p-id="2613" fill="#FFCD00"></path></svg>