<?xml version="1.0" standalone="no"?><!DOCTYPE svg PUBLIC "-//W3C//DTD SVG 1.1//EN" "http://www.w3.org/Graphics/SVG/1.1/DTD/svg11.dtd"><svg t="1740748962500" class="icon" viewBox="0 0 1024 1024" version="1.1" xmlns="http://www.w3.org/2000/svg" p-id="2718" xmlns:xlink="http://www.w3.org/1999/xlink" width="64" height="64"><path d="M777.888 280.064a8 8 0 0 1 0 11.328L557.248 512l203.648 203.648a32 32 0 0 1 0 45.248l-16.96 16.96a8 8 0 0 1-11.328 0L512 557.28l-203.616 203.648a32 32 0 0 1-45.248 0l-16.96-16.96a8 8 0 0 1 0-11.328L466.688 512 263.104 308.352a32 32 0 0 1 0-45.248l16.96-16.96a8 8 0 0 1 11.328 0L512 466.72l203.648-203.648a32 32 0 0 1 45.248 0l16.96 16.96z" fill="#ffffff" p-id="2719"></path></svg>