<?xml version="1.0" standalone="no"?><!DOCTYPE svg PUBLIC "-//W3C//DTD SVG 1.1//EN" "http://www.w3.org/Graphics/SVG/1.1/DTD/svg11.dtd"><svg t="1749569194723" class="icon" viewBox="0 0 1024 1024" version="1.1" xmlns="http://www.w3.org/2000/svg" p-id="5380" xmlns:xlink="http://www.w3.org/1999/xlink" width="200" height="200"><path d="M939 370.2L379 149c-1-0.4-2.2-0.1-3.2-0.4-3.2-0.9-6.4-1.4-9.7-1.3-1.8 0-3.5 0.2-5.2 0.5-3.3 0.6-6.3 1.8-9.3 3.4-1.1 0.6-2.3 0.5-3.4 1.2-0.4 0.3-0.5 0.7-0.9 1-0.5 0.3-1 0.4-1.5 0.8L76.2 375.5c-7.7 6.3-12.2 15.7-12.2 25.7v442.5c0 18.3 14.9 33.2 33.2 33.2h829.6c18.3 0 33.2-14.9 33.2-33.2V401.1c0-13.6-8.3-25.9-21-30.9z m-808.6 46.6L333.6 250v560.4H130.4V416.8zM707 810.4H586.7V558.7L707 601.6v208.8z m186.7 0H773.3V578.1c0-14-8.8-26.6-22-31.3l-186.7-66.4c-10.1-3.5-21.4-2.1-30.3 4.2-8.8 6.2-14 16.3-14 27.1v298.7H400V228.7l493.7 195v386.7z" fill="#ffffff" p-id="5381"></path></svg>