<?xml version="1.0" standalone="no"?><!DOCTYPE svg PUBLIC "-//W3C//DTD SVG 1.1//EN" "http://www.w3.org/Graphics/SVG/1.1/DTD/svg11.dtd"><svg t="1750258616801" class="icon" viewBox="0 0 1024 1024" version="1.1" xmlns="http://www.w3.org/2000/svg" p-id="17490" xmlns:xlink="http://www.w3.org/1999/xlink" width="200" height="200"><path d="M834.56 40.96C741.376 40.96 665.6 117.76 665.6 212.992c0 72.704 40.96 141.312 103.424 244.736 8.192 14.336 17.408 29.696 27.648 46.08 8.192 13.312 22.528 22.528 37.888 22.528s29.696-8.192 37.888-21.504l2.048-3.072C955.392 373.76 1003.52 295.936 1003.52 212.992 1003.52 117.76 927.744 40.96 834.56 40.96z m1.024 427.008c-7.168-13.312-15.36-25.6-22.528-36.864-57.344-96.256-95.232-159.744-95.232-218.112 0-65.536 52.224-119.808 116.736-119.808 64.512 0 116.736 53.248 116.736 119.808 1.024 66.56-40.96 134.144-115.712 254.976z" p-id="17491" fill="#E8442E"></path><path d="M850.944 130.048c-24.576-5.12-50.176 2.048-69.632 17.408-19.456 16.384-30.72 39.936-30.72 65.536 0 47.104 36.864 84.992 82.944 84.992 24.576 0 48.128-11.264 64.512-30.72 15.36-19.456 22.528-45.056 17.408-70.656-5.12-33.792-31.744-60.416-64.512-66.56z m16.384 110.592c-8.192 10.24-19.456 15.36-32.768 15.36-23.552 0-41.984-19.456-41.984-43.008 0-13.312 5.12-24.576 15.36-32.768 7.168-6.144 17.408-10.24 26.624-10.24 3.072 0 6.144 0 9.216 1.024 16.384 3.072 29.696 16.384 32.768 32.768 2.048 13.312-1.024 26.624-9.216 36.864zM292.864 276.48c-80.896 0-146.432 67.584-146.432 149.504 0 82.944 65.536 149.504 146.432 149.504s146.432-67.584 146.432-149.504S373.76 276.48 292.864 276.48z m0 236.544c-47.104 0-84.992-38.912-84.992-87.04s37.888-87.04 84.992-87.04c47.104 0 84.992 38.912 84.992 87.04s-37.888 87.04-84.992 87.04z" p-id="17492" fill="#E8442E"></path><path d="M732.16 620.544c-19.456-10.24-52.224-27.648-52.224-36.864-1.024-13.312 22.528-44.032 77.824-61.44 16.384-5.12 25.6-22.528 21.504-38.912-5.12-16.384-21.504-26.624-37.888-21.504-35.84 10.24-128 51.2-122.88 126.976 3.072 44.032 43.008 64.512 84.992 88.064 37.888 20.48 79.872 43.008 99.328 81.92 9.216 19.456 10.24 37.888 1.024 56.32-18.432 38.912-74.752 76.8-137.216 92.16-96.256 21.504-301.056 9.216-303.104 9.216-10.24-1.024-18.432 4.096-24.576 10.24l28.672-46.08c128-207.872 197.632-322.56 197.632-452.608 0-153.6-121.856-277.504-272.384-277.504C142.336 150.528 20.48 274.432 20.48 428.032c0 140.288 70.656 256 229.376 505.856 9.216 14.336 24.576 23.552 41.984 23.552 16.384 0 31.744-8.192 40.96-21.504-1.024 3.072-2.048 7.168-3.072 11.264-1.024 17.408 12.288 32.768 28.672 33.792 4.096 0 62.464 4.096 131.072 4.096 64.512 0 139.264-3.072 189.44-14.336 62.464-15.36 147.456-57.344 179.2-126.976 16.384-36.864 16.384-74.752-2.048-111.616-26.624-59.392-80.896-88.064-123.904-111.616zM314.368 846.848l-22.528 36.864C146.432 655.36 81.92 547.84 81.92 428.032c0-118.784 94.208-215.04 209.92-215.04S501.76 309.248 501.76 428.032c1.024 111.616-61.44 215.04-187.392 418.816z" p-id="17493" fill="#E8442E"></path></svg>