<?xml version="1.0" standalone="no"?><!DOCTYPE svg PUBLIC "-//W3C//DTD SVG 1.1//EN" "http://www.w3.org/Graphics/SVG/1.1/DTD/svg11.dtd"><svg t="1749568837832" class="icon" viewBox="0 0 1024 1024" version="1.1" xmlns="http://www.w3.org/2000/svg" p-id="1501" xmlns:xlink="http://www.w3.org/1999/xlink" width="200" height="200"><path d="M453.714391 903.186955c-7.745682-7.827679-17.56328-12.847473-28.224843-14.563402l0.781968-134.896468c0.167993-27.652866-10.439572-53.715797-29.872775-73.38699l-130.892631-132.506565c-13.005467-13.16346-30.358755-20.47316-48.865996-20.579156a68.01321 68.01321 0 0 0-25.516953 4.675809l0.789968-124.898878c0.103996-17.429285-6.58173-33.852612-18.829228-46.252103s-28.590827-19.283209-46.016113-19.391204h-0.411983c-17.271292 0-33.538624 6.677726-45.83812 18.827228-12.399491 12.247498-19.285209 28.588827-19.393204 46.014112l-1.627934 260.059334c-0.097996 16.443326 6.209745 31.94669 17.771272 43.654209l125.838838 127.388775-0.277988 50.353935c-24.550993 3.703848-43.516215 24.884979-43.674209 50.46193l-0.379985 62.18745c-0.073997 12.075505 9.655604 21.923101 21.729109 21.999097h0.137995c12.011507 0 21.787106-9.701602 21.861103-21.727109l0.379984-62.187449a7.639687 7.639687 0 0 1 7.627687-7.581689h0.031999l206.407534 0.849965a7.595688 7.595688 0 0 1 5.387779 2.259908 7.599688 7.599688 0 0 1 2.20791 5.415777l-0.383985 62.601433c-0.073997 12.073505 9.655604 21.923101 21.727109 21.999097h0.137995c12.011507 0 21.785106-9.703602 21.861103-21.727108l0.383984-62.603433c0.083997-13.739436-5.191787-26.680906-14.85739-36.446505z m-71.947049-15.373369l-134.910467-0.555977 0.323987-58.733591a21.853104 21.853104 0 0 0-6.309741-15.483365l-132.194578-133.824511a17.741272 17.741272 0 0 1-5.155789-12.659481l1.627933-260.057334a21.371123 21.371123 0 0 1 6.395738-15.175377c4.089832-4.039834 9.491611-6.34774 15.255374-6.209746 5.745764 0.035999 11.137543 2.305905 15.175378 6.395738s6.243744 9.50761 6.209745 15.249375l-1.191951 188.578265c-0.002 0.391984 0.025999 0.779968 0.045998 1.169952 0 17.591278 6.633728 35.190557 19.937182 48.658004l82.632611 83.650569a21.797106 21.797106 0 0 0 15.555362 6.499734c5.551772 0 11.103545-2.101914 15.36337-6.309742 8.589648-8.485652 8.675644-22.329084 0.187992-30.918731l-82.63261-83.65057c-9.881595-10.00559-9.787599-26.184926 0.203991-36.07452l0.004-0.004a25.342961 25.342961 0 0 1 17.945264-7.375697h0.149994a25.36296 25.36296 0 0 1 18.009261 7.583689l130.892631 132.504565c11.22554 11.361534 17.353288 26.416916 17.255293 42.400261l-0.775968 134.34249zM964.203453 666.282672l-1.627934-260.053334c-0.107996-17.427285-6.993713-33.768615-19.393204-46.016112s-28.810818-18.859226-46.250103-18.827228c-17.427285 0.107996-33.770615 6.991713-46.018113 19.391204s-18.933223 28.824818-18.829227 46.256103l0.789967 124.894878c-8.021671-3.119872-16.557321-4.695807-25.514953-4.675809-18.505241 0.107996-35.860529 7.415696-48.865996 20.581156l-130.892631 132.504566c-19.431203 19.671193-30.040768 45.734124-29.872775 73.37899l0.781968 134.904467c-10.663563 1.71593-20.47916 6.735724-28.220843 14.557403-9.663604 9.7636-14.941387 22.707069-14.85739 36.446505l0.383984 62.601432c0.073997 12.029507 9.847596 21.727109 21.861103 21.727109h0.137995c12.073505-0.073997 21.801106-9.923593 21.727108-21.999098l-0.383984-62.599432a7.591689 7.591689 0 0 1 2.20791-5.417778 7.583689 7.583689 0 0 1 5.389779-2.259907l206.409534-0.849965h0.031998a7.639687 7.639687 0 0 1 7.625687 7.581689l0.379985 62.187449c0.073997 12.029507 9.847596 21.729109 21.861103 21.727109h0.137995c12.075505-0.073997 21.805106-9.921593 21.729108-21.999098l-0.379984-62.187449c-0.157994-25.580951-19.123216-46.762082-43.674209-50.461931l-0.277988-50.353934 125.836838-127.384776c11.559526-11.70152 17.867267-27.202884 17.767272-43.654209z m-48.877996 12.92947l-132.196578 133.822511a21.871103 21.871103 0 0 0-6.309741 15.483365l0.323987 58.733591-134.910467 0.555977-0.777968-134.35049c-0.095996-15.971345 6.031753-31.024728 17.255293-42.388261l130.890631-132.502565a25.34496 25.34496 0 0 1 18.011261-7.585689h0.149994a25.338961 25.338961 0 0 1 17.945264 7.379697 25.332961 25.332961 0 0 1 7.431695 15.827351c0.653973 7.231703-1.737929 14.691397-7.225703 20.249169l-82.632611 83.65057c-8.485652 8.589648-8.399655 22.43308 0.187992 30.918731a21.799106 21.799106 0 0 0 15.36337 6.309742c5.639769 0 11.279537-2.167911 15.555362-6.499734l82.632611-83.650569c13.499446-13.66144 20.129174-31.576705 19.935182-49.421973a1.399943 1.399943 0 0 0 0.047998-0.405983l-1.191951-188.572266a21.367124 21.367124 0 0 1 6.209745-15.253374 21.379123 21.379123 0 0 1 15.177378-6.395738h0.135994a21.379123 21.379123 0 0 1 15.11938 6.209746 21.387123 21.387123 0 0 1 6.395738 15.177377l1.627933 260.051334a17.749272 17.749272 0 0 1-5.151789 12.657481zM694.438517 376.136573c-11.049547-67.233242-47.356058-134.482484-102.229807-189.356234-21.091135-21.091135-44.160189-39.578377-68.557188-54.945746a21.867103 21.867103 0 0 0-23.311044 0.004c-24.426998 15.397368-47.492052 33.88461-68.549188 54.941746-54.877749 54.877749-91.18226 122.120991-102.227807 189.356234-11.487529 69.901133 5.431777 131.634601 47.636046 173.82887 20.359165 20.359165 45.33814 34.886569 74.244955 43.182229 12.059505 3.463858 24.700987 5.771763 37.762451 6.957714v61.039497c0 12.073505 9.787599 21.863103 21.863103 21.863103s21.863103-9.789598 21.863103-21.863103v-61.231489a275.74869 275.74869 0 0 0 38.670414-6.507733c0.297988-0.071997 0.593976-0.149994 0.889964-0.23399 28.948813-8.29766 53.955787-22.831064 74.326951-43.204228 42.196269-42.202269 59.107576-103.931737 47.618047-173.83087z m-78.538779 142.906138c-14.961386 14.963386-33.472627 25.714945-55.017743 31.962689a232.876448 232.876448 0 0 1-27.950854 4.935798v-37.06448l75.438906-75.438906c8.53765-8.53765 8.53765-22.381082 0-30.920732-8.53765-8.53565-22.381082-8.53565-30.920731 0l-44.518175 44.518174v-69.429152l34.518585-34.518584c8.53765-8.53765 8.53765-22.381082 0-30.920732-8.53765-8.53565-22.381082-8.53565-30.920732 0l-3.597853 3.597853v-55.331731c0-12.073505-9.787599-21.863103-21.863103-21.863103s-21.863103 9.789598-21.863103 21.863103v55.331731l-3.597852-3.597853c-8.53765-8.53565-22.381082-8.53565-30.920732 0-8.53765 8.53765-8.53765 22.381082 0 30.920732l34.518584 34.518584v69.429152l-44.518174-44.518174c-8.53765-8.53565-22.381082-8.53565-30.920732 0-8.53765 8.53765-8.53765 22.381082 0 30.920732l75.438906 75.438906v37.256472c-8.895635-1.007959-17.493283-2.659891-25.692946-5.017794-21.70111-6.225745-40.338345-17.015302-55.393728-32.074685-31.972689-31.962689-44.546173-80.196711-35.404548-135.814429 9.575607-58.28161 41.540296-117.067198 90.000308-165.527211 15.36537-15.36537 31.900692-29.176803 49.293979-41.180311 17.367288 11.983508 33.90061 25.794942 49.285978 41.180311 48.460012 48.458012 80.422701 107.243601 90.002309 165.527211 9.137625 55.617719-3.431859 103.85174-35.396549 135.816429zM511.070038 0c-12.075505 0-21.863103 9.789598-21.863103 21.863103v42.636252c0 12.073505 9.787599 21.863103 21.863103 21.863103s21.863103-9.789598 21.863103-21.863103V21.863103C532.933141 9.789598 523.145543 0 511.070038 0zM274.897725 256.941461h-42.636251c-12.075505 0-21.863103 9.789598-21.863104 21.863104 0 12.073505 9.787599 21.863103 21.863104 21.863103h42.636251c12.075505 0 21.863103-9.789598 21.863103-21.863103 0-12.073505-9.787599-21.863103-21.863103-21.863104zM789.874603 256.941461h-42.634252c-12.075505 0-21.863103 9.789598-21.863103 21.863104 0 12.073505 9.787599 21.863103 21.863103 21.863103h42.634252c12.075505 0 21.863103-9.789598 21.863103-21.863103 0-12.073505-9.787599-21.863103-21.863103-21.863104zM374.98762 111.807414l-30.146764-30.146763c-8.53765-8.53565-22.381082-8.53565-30.920732 0-8.53765 8.53765-8.53765 22.381082 0 30.920731l30.148764 30.146764a21.803106 21.803106 0 0 0 15.459366 6.403737 21.799106 21.799106 0 0 0 15.459366-6.403737c8.53765-8.53765 8.53765-22.381082 0-30.920732zM708.215952 81.658651c-8.53765-8.53565-22.381082-8.53565-30.920732 0l-30.146763 30.148763c-8.53765 8.53765-8.53765 22.381082 0 30.920732 4.269825 4.265825 9.867595 6.401737 15.461366 6.401737s11.191541-2.135912 15.459366-6.403737l30.146763-30.146764c8.53765-8.53565 8.53765-22.381082 0-30.920731z" fill="#ffffff" p-id="1502"></path></svg>