<?xml version="1.0" standalone="no"?><!DOCTYPE svg PUBLIC "-//W3C//DTD SVG 1.1//EN" "http://www.w3.org/Graphics/SVG/1.1/DTD/svg11.dtd"><svg t="1705306689512" class="icon" viewBox="0 0 1340 1024" version="1.1" xmlns="http://www.w3.org/2000/svg" p-id="7686" xmlns:xlink="http://www.w3.org/1999/xlink" width="83.75" height="64"><path d="M135.209603 406.574331a185.795014 185.795014 0 0 1-60.040628 35.929824c-22.692521 4.254848-18.437673-12.291782-18.437673-12.291782a47.276085 47.276085 0 0 0 18.910434-27.89289 327.150508 327.150508 0 0 1 20.801477-94.55217S25.056325 338.024007 12.764543 384.827331c-8.036934 31.674977 8.982456 37.348107 15.601108 51.058172s-4.727608 35.457064 19.383195 47.276085a94.55217 94.55217 0 0 0 59.095106 0m5.200369 159.793167s-12.291782 41.130194-22.21976 44.912281-54.367498 41.130194-55.313019 63.822715a144.66482 144.66482 0 0 0 146.083103 121.499538l50.58541-79.423823z" fill="#E6E246" p-id="7687"></path><path d="M186.267775 884.535549H179.649123a155.538319 155.538319 0 0 1-156.011081-133.79132c0-28.838412 47.276085-69.023084 61.931672-74.223453a144.66482 144.66482 0 0 0 15.601108-37.820868l6.145891-20.328717 136.627885 174.448754z m-70.441367-219.833795c-6.145891 15.601108-13.237304 29.311173-22.21976 32.620499s-47.276085 38.76639-47.276085 54.840259a131.427516 131.427516 0 0 0 129.063712 109.680517l42.075716-67.604802z" fill="#070001" p-id="7688"></path><path d="M709.141274 911.482918a208.487535 208.487535 0 0 0 84.624192 19.383195c47.276085 0 73.750693-7.091413 80.369345-19.383195s-8.509695-231.180055-41.602955-230.234534" fill="#E6E246" p-id="7689"></path><path d="M792.819945 941.266851a216.051708 216.051708 0 0 1-89.351801-19.855955l9.927978-19.855956a194.304709 194.304709 0 0 0 79.423823 17.964912c61.45891 0 70.441367-11.819021 70.914127-13.237304 5.67313-23.165282-13.237304-202.814404-33.093259-214.160664v-22.21976a26.947368 26.947368 0 0 1 21.746999 14.182825 595.20591 595.20591 0 0 1 30.256694 232.598338c-9.455217 17.019391-38.293629 24.583564-90.297322 24.583564" fill="#0D0C0C" p-id="7690"></path><path d="M74.223453 498.289935a69.495845 69.495845 0 0 1-30.729455-5.67313 41.130194 41.130194 0 0 1-23.638042-41.130194 33.56602 33.56602 0 0 0 0-10.873499 31.202216 31.202216 0 0 0-5.20037-7.564174 50.11265 50.11265 0 0 1-12.291782-50.585411C16.073869 330.932595 89.351801 299.257618 94.55217 297.839335l21.274238-14.182825a208.014774 208.014774 0 0 0-15.128347 31.202216c0 6.618652-8.509695 43.493998-13.710065 86.987996a50.11265 50.11265 0 0 1-14.655586 28.365651 175.394275 175.394275 0 0 0 54.840259-33.56602l14.182825 16.546629a204.705448 204.705448 0 0 1-65.240997 38.76639 20.801477 20.801477 0 0 1-23.165282-8.036934 17.964912 17.964912 0 0 1-5.67313-15.601108v-5.20037l5.67313-6.145891a19.855956 19.855956 0 0 0 9.455217-16.073869 689.285319 689.285319 0 0 1 17.492152-75.641736c-17.019391 11.819021-55.313019 36.402585-61.931672 60.513389s6.145891 25.529086 12.764543 33.56602a61.45891 61.45891 0 0 1 8.036935 12.291783 47.276085 47.276085 0 0 1 3.309326 19.383194c0 11.819021 0 17.492151 10.873499 22.21976a81.787627 81.787627 0 0 0 50.585411 0l7.091413 21.274239a163.575254 163.575254 0 0 1-36.402586 4.727608" fill="#090707" p-id="7691"></path><path d="M389.55494 825.440443c41.602955 16.073869 161.684211-8.036934 161.684211-8.036934s-87.460757 47.276085-89.824562 60.986149-5.67313-3.782087 29.783934 65.240998 74.696214 71.859649 94.55217 71.859649 19.383195-12.764543 33.093259-26.947369 121.972299-122.44506 138.046168-130.009233 85.096953-204.232687 85.096953-204.232687c40.657433 41.602955 86.515235 81.314866 141.828255 64.768236s63.349954-101.170822 63.349954-101.170822 61.931671 8.036934 78.951061 8.036935 177.285319 6.145891 196.668514-210.851339-46.330563-251.981533-70.914128-251.508772-51.530933 43.493998-64.295475 59.095106a58.622345 58.622345 0 0 1-41.602955 13.710065 430.212373 430.212373 0 0 0-40.184672-69.495845c-25.056325-34.038781-43.966759-22.692521-94.55217-59.095106S903.918744 2.363804 776.746076 10.8735A318.168052 318.168052 0 0 0 567.313019 134.736842C508.217913 141.828255 450.068329 219.361034 450.068329 219.361034A378.20868 378.20868 0 0 0 189.10434 327.150508a316.749769 316.749769 0 0 0-89.824562 298.784857c13.710065 70.441367 89.824561 194.304709 89.824562 208.014774A287.911357 287.911357 0 0 0 159.320406 945.521699c7.091413 30.256694 159.793167 68.550323 175.867036 56.258541s24.583564-56.258541 26.001847-68.077562 32.620499-47.276085 32.620499-68.550323a167.830102 167.830102 0 0 0-4.254848-37.348108" fill="#E6E246" p-id="7692"></path><path d="M453.850416 686.921514a123.390582 123.390582 0 0 1-102.116344-67.604801v-7.091413a47.276085 47.276085 0 0 1 5.67313-27.420129 79.423823 79.423823 0 0 0 2.836565-30.256695 53.894737 53.894737 0 0 0-21.274238-38.766389 107.316713 107.316713 0 0 1-35.929824-81.787627c0-78.478301 200.4506-280.819945 223.615881-295.948292a254.345337 254.345337 0 0 1 108.262235-8.982456l56.731302 5.200369c-47.276085 0-138.99169 7.091413-152.701755 22.21976S322.422899 366.389658 322.422899 431.630656a85.096953 85.096953 0 0 0 30.256695 66.659279A73.750693 73.750693 0 0 1 378.20868 552.184672a103.534626 103.534626 0 0 1-4.254848 38.293629 21.746999 21.746999 0 0 0-2.836565 21.274238 94.55217 94.55217 0 0 0 82.733149 53.421976 211.3241 211.3241 0 0 0 87.933518-33.56602 269.000923 269.000923 0 0 1 111.57156-41.130194 198.559557 198.559557 0 0 0 26.947368-88.406279 177.758079 177.758079 0 0 0-10.873499-60.513389A174.448753 174.448753 0 0 1 661.865189 383.409049V275.619575l4.727609 32.147738a683.612188 683.612188 0 0 1 8.982456 76.587258 199.505078 199.505078 0 0 0 9.927978 51.530932 201.396122 201.396122 0 0 1 12.764543 67.132041 214.160665 214.160665 0 0 1-27.42013 98.807017 19.383195 19.383195 0 0 1-17.01939 10.400739 254.345337 254.345337 0 0 0-102.116344 38.76639 225.506925 225.506925 0 0 1-98.807017 35.929824" fill="#070001" p-id="7693"></path><path d="M1128.007387 633.972299a506.799631 506.799631 0 0 1-199.505079-50.585411l3.309326-19.855955s157.902124 74.696214 263.800554 38.293628c80.842105-27.89289 128.11819-124.808864 121.9723-258.600184C1313.802401 236.380425 1293.000923 197.141274 1276.454294 184.376731a30.729455 30.729455 0 0 0-26.947369-6.145891c-13.237304 2.836565-19.855956 12.764543-27.89289 25.529086a121.972299 121.972299 0 0 1-19.383195 23.638043 88.406279 88.406279 0 0 1-55.313019 20.801477h-9.455217v-8.982456a147.028624 147.028624 0 0 0-36.875346-67.132041A104.007387 104.007387 0 0 0 1040.073869 138.046168a111.0988 111.0988 0 0 1-22.21976-7.091413 81.787627 81.787627 0 0 1-19.383195-18.437673A243.471837 243.471837 0 0 0 770.600185 25.529086c-156.483841 24.583564-189.10434 111.57156-189.10434 112.517082l-20.801478-7.091413c0-4.254848 36.402585-100.698061 205.65097-127.172668a264.273315 264.273315 0 0 1 248.672207 94.55217 81.314866 81.314866 0 0 0 13.710064 13.237303 108.262235 108.262235 0 0 0 17.492152 5.673131 119.135734 119.135734 0 0 1 68.550323 39.711911 182.485688 182.485688 0 0 1 40.184672 69.023084 64.768236 64.768236 0 0 0 31.674977-14.182825 94.55217 94.55217 0 0 0 16.54663-22.692521 66.186519 66.186519 0 0 1 42.075716-34.038781 53.894737 53.894737 0 0 1 47.276085 9.927977c29.783934 23.165282 47.276085 80.842105 47.276084 175.394276 5.200369 141.828255-47.276085 249.144968-137.100646 280.347183a224.561404 224.561404 0 0 1-74.696214 11.819022" fill="#070405" p-id="7694"></path><path d="M962.068329 730.888273a178.703601 178.703601 0 0 1-119.608495-66.186519 167.830102 167.830102 0 0 0-47.276085-30.256694 305.87627 305.87627 0 0 1-52.003694-43.493998l16.073869 8.982456a159.320406 159.320406 0 0 0 34.984303 18.437673 120.081256 120.081256 0 0 1 57.204063 33.09326 141.828255 141.828255 0 0 0 135.209603 53.894736C1033.455217 691.176362 1040.073869 614.589104 1040.073869 614.589104h21.746999c0 3.782087-9.927978 94.55217-70.914127 110.153278a96.915974 96.915974 0 0 1-30.729456 4.727609" fill="#070001" p-id="7695"></path><path d="M330.932595 1009.344414a419.811634 419.811634 0 0 1-112.517083-25.056325c-49.639889-18.437673-58.149584-32.620499-60.513388-41.602955a264.273315 264.273315 0 0 1 31.202216-113.462604c-6.618652-14.655586-14.182825-29.311173-21.746999-43.493998A702.049861 702.049861 0 0 1 94.55217 624.517082a326.204986 326.204986 0 0 1 94.55217-308.712835 381.518006 381.518006 0 0 1 268.528162-110.626038v21.746999A365.444137 365.444137 0 0 0 204.232687 330.932595a307.294552 307.294552 0 0 0-86.987996 289.32964A706.304709 706.304709 0 0 0 184.376731 775.327793a195.250231 195.250231 0 0 1 24.583564 54.840259v4.727608a256.23638 256.23638 0 0 0-30.256694 102.589105s0 5.67313 22.21976 15.601108a348.424746 348.424746 0 0 0 137.100646 33.093259 127.172669 127.172669 0 0 0 20.801478-60.040628 72.33241 72.33241 0 0 1 13.237304-27.89289 119.608495 119.608495 0 0 0 17.964912-37.348107c0-14.655586-11.819021-81.314866-16.54663-105.42567l8.982456 15.128348a311.5494 311.5494 0 0 1 29.311173 90.297322 116.77193 116.77193 0 0 1-21.274238 47.276085 101.643583 101.643583 0 0 0-11.819022 20.801477s-7.091413 58.149584-30.256694 75.641736a29.311173 29.311173 0 0 1-19.383195 4.727609" fill="#070405" p-id="7696"></path><path d="M441.085873 838.204986a137.573407 137.573407 0 0 1-47.276085-6.145891l8.036934-20.328716a443.922438 443.922438 0 0 0 155.065559-8.036935v17.492152a533.274238 533.274238 0 0 1-114.880887 17.492151" fill="#070405" p-id="7697"></path><path d="M375.372114 590.478301l-8.982456-18.910434a228.34349 228.34349 0 0 1 91.715605-121.972299s-39.711911 47.276085-47.276085 55.78578c-19.855956 35.457064-24.110803 60.98615-37.348107 85.096953" fill="#070001" p-id="7698"></path><path d="M931.811634 563.530933s-42.075716 118.190212 18.910434 128.590951 75.168975-83.67867 75.168975-83.678671z" fill="#070405" p-id="7699"></path><path d="M885.00831 351.261311s-47.276085-39.711911-8.509695-70.914127 70.441367 22.21976 66.186519 30.256694a477.015697 477.015697 0 0 1-57.676824 40.657433" fill="#070001" p-id="7700"></path><path d="M826.858726 335.187442a378.20868 378.20868 0 0 1 50.585411-57.204062 145.137581 145.137581 0 0 1 62.877193-18.910434 124.808864 124.808864 0 0 0-57.676824 28.838411l-55.78578 47.276085m-32.620499-42.075715a236.380425 236.380425 0 0 1 0-79.896584c8.509695-22.692521 60.98615-37.348107 60.98615-37.348107s-40.184672 26.001847-47.276085 44.43952a390.973223 390.973223 0 0 0-13.710065 72.805171m283.65651-17.019391s-24.583564-42.548476 15.601108-51.058172 36.875346 47.276085 36.875346 47.276085z" fill="#070001" p-id="7701"></path><path d="M1050.474608 239.689751a123.390582 123.390582 0 0 1 51.530932-16.54663 47.276085 47.276085 0 0 1 37.820868 19.383195 89.824561 89.824561 0 0 0-37.820868-12.764543 269.473684 269.473684 0 0 0-51.530932 9.927978m-550.76639 94.55217s29.311173-124.336103 65.240997-141.828255a199.505078 199.505078 0 0 1 104.480148-11.346261 236.380425 236.380425 0 0 0-94.55217 26.001847c-36.402585 23.165282-73.750693 126.227147-73.750693 126.227147" fill="#070001" p-id="7702"></path><path d="M563.530933 275.619575A166.88458 166.88458 0 0 1 567.313019 211.796861c8.982456-14.655586 47.276085-19.855956 47.276085-19.855956a68.077562 68.077562 0 0 0-34.984303 32.620499 210.378578 210.378578 0 0 0-15.601108 51.058171m330.932595 318.640813a94.55217 94.55217 0 0 1 10.8735-47.276085c10.8735-12.291782 47.276085-13.237304 47.276085-13.237304a94.55217 94.55217 0 0 0-38.293629 22.21976 131.900277 131.900277 0 0 0-18.910434 38.76639m189.10434-202.814405a154.592798 154.592798 0 0 1 2.363804-22.21976 316.749769 316.749769 0 0 1 8.036934-43.493998 41.602955 41.602955 0 0 1 34.511542-30.256694 19.383195 19.383195 0 0 1 13.710065 5.200369 39.711911 39.711911 0 0 0-33.56602 23.638043 570.149584 570.149584 0 0 0-25.529086 66.659279" fill="#070001" p-id="7703"></path><path d="M1044.801477 360.716528a94.55217 94.55217 0 0 0 7.091413-17.01939 79.896584 79.896584 0 0 1 28.365651-47.276085 98.334257 98.334257 0 0 1 67.604802 0v10.873499a86.515235 86.515235 0 0 0-61.458911 0 206.12373 206.12373 0 0 0-43.493998 54.840259" fill="#070001" p-id="7704"></path><path d="M1137.462604 404.683287l-16.073869 27.89289a818.34903 818.34903 0 0 0 23.638042-107.316713A62.404432 62.404432 0 0 0 1134.626039 283.65651a52.949215 52.949215 0 0 1-8.982456-24.583564 34.038781 34.038781 0 0 1 27.89289-34.511542l4.254847 21.746999c-2.363804 0-10.400739 2.836565-10.400738 11.34626a47.276085 47.276085 0 0 0 6.618652 15.601108 86.515235 86.515235 0 0 1 10.400738 52.949215 210.378578 210.378578 0 0 1-27.420129 77.532779" fill="#090707" p-id="7705"></path><path d="M583.386888 1024c-35.929825 0-62.404432-20.328717-87.460757-65.713758-6.145891-11.34626-12.764543-22.692521-19.383195-34.038781-16.073869-26.001847-24.583564-40.184672-13.237303-60.513389a287.438596 287.438596 0 0 1 86.515235-57.204063l30.256694-54.840258s-3.782087 19.383195-4.254847 26.001846a121.499538 121.499538 0 0 1-9.927978 36.875347 37.820868 37.820868 0 0 1-8.036935 9.455217c-25.529086 21.274238-68.550323 39.711911-75.168975 51.058171s-3.782087 11.34626 12.291782 37.820868c5.67313 9.455217 12.764543 20.801477 20.328717 34.984303 29.783934 53.894737 54.840259 56.258541 76.587258 53.894737 9.927978 0 10.8735 0 15.128347-8.982456a115.826408 115.826408 0 0 1 32.620498-34.038781 797.074792 797.074792 0 0 0 83.678671-77.53278c9.927978-10.400739 19.383195-20.328717 28.365651-28.838411a813.148661 813.148661 0 0 0 78.951062-206.596492l21.274238 5.673131c-5.200369 18.910434-51.530933 184.849492-84.624192 216.524469l-28.365651 28.365651a763.036011 763.036011 0 0 1-86.515236 79.896583 99.752539 99.752539 0 0 0-26.474607 27.89289 34.984303 34.984303 0 0 1-31.674977 19.383195h-10.8735" fill="#070405" p-id="7706"></path><path d="M1154.009234 262.382271a115.353647 115.353647 0 0 0 61.45891-26.001846 227.397969 227.397969 0 0 0 37.348107-52.949215 111.0988 111.0988 0 0 1-33.093259 64.295475 65.713758 65.713758 0 0 1-65.713758 13.237304" fill="#070001" p-id="7707"></path><path d="M992.797784 674.156971a76.114497 76.114497 0 0 1-44.43952 7.564174h-4.727608a29.783934 29.783934 0 0 0 18.910434 3.782087 57.204063 57.204063 0 0 0 26.001846-7.564174z" fill="#EBC12B" p-id="7708"></path><path d="M906.755309 330.932595a18.910434 18.910434 0 0 1-5.200369 12.764543 17.019391 17.019391 0 0 1-12.291782 5.200369 17.964912 17.964912 0 0 1 0-35.929825 17.964912 17.964912 0 0 1 17.492151 17.964913" fill="#FFFFFF" p-id="7709"></path><path d="M858.533703 397.119114a157.902124 157.902124 0 0 1 47.276085-75.168975 133.79132 133.79132 0 0 1 69.495845-21.747 330.932595 330.932595 0 0 0-64.768237 34.984303 355.043398 355.043398 0 0 0-52.003693 61.931672" fill="#070001" p-id="7710"></path><path d="M1104.369344 264.746076a13.237304 13.237304 0 0 1-14.182825 13.237304 13.710065 13.710065 0 0 1-14.182826-13.237304 14.182825 14.182825 0 0 1 14.182826-13.237304 13.710065 13.710065 0 0 1 14.182825 13.237304" fill="#FFFFFF" p-id="7711"></path><path d="M1059.929825 283.65651a129.063712 129.063712 0 0 1 47.276085-11.819022 75.168975 75.168975 0 0 1 36.875346 5.673131h-36.875346l-47.276085 6.145891" fill="#070001" p-id="7712"></path></svg>