<svg width="1045" height="1027" viewBox="0 0 1045 1027" fill="none" xmlns="http://www.w3.org/2000/svg">
<path d="M643.528 533.114C643.528 528.764 643.354 524.587 643.528 520.237C644.05 513.624 642.658 507.707 637.96 502.661C637.09 501.791 636.219 500.573 636.045 499.529C635.523 495.004 636.916 489.957 632.217 486.651C630.825 482.301 628.911 478.124 628.041 473.6C627.693 472.034 626.3 470.815 625.256 469.423C623.516 467.161 620.732 465.595 620.036 462.288C619.688 460.896 618.121 459.156 616.555 458.634C610.639 456.546 607.854 452.543 606.81 446.627C606.636 445.235 604.722 443.668 603.33 443.146C599.153 441.232 595.325 439.492 592.715 434.967C591.497 432.705 588.016 431.487 585.58 430.095C581.925 428.181 578.097 426.44 574.269 424.7C573.051 424.178 572.006 423.656 571.658 422.438C570.614 418.61 567.308 417.74 564.35 415.999C559.477 412.867 554.43 411.649 548.688 411.649C544.511 411.649 539.987 413.041 536.506 409.561C531.982 410.257 529.546 406.95 526.587 404.688C525.891 404.166 524.847 404.34 524.151 403.818C522.411 402.426 520.845 401.556 518.757 403.47C517.886 404.166 516.32 403.644 515.102 404.166C512.492 405.21 509.882 406.254 507.271 404.166C500.833 404.166 494.394 404.166 487.955 403.992C484.475 403.818 482.213 407.472 478.21 406.602C475.426 405.906 472.641 406.95 469.683 408.342C467.247 409.561 463.766 409.387 460.982 408.865C455.936 407.994 452.281 411.997 447.583 411.823C446.191 411.823 444.624 413.389 443.58 414.607C440.1 418.436 435.923 421.22 430.529 421.742C428.615 421.916 427.396 422.96 426.178 424.004C423.742 426.266 421.654 429.051 418.174 429.921C417.129 430.269 415.737 431.487 415.563 432.531C413.997 440.188 406.514 438.97 401.99 442.102C397.465 441.754 395.377 444.19 393.637 448.367C391.375 453.587 388.59 458.982 382.152 461.07C379.715 461.94 376.931 465.073 376.409 467.509C375.539 471.685 374.147 474.122 370.144 476.036C366.316 477.776 363.88 481.431 362.139 485.433C359.355 491.872 356.049 498.31 352.742 504.575C351.35 507.185 350.828 510.144 349.784 512.754C348.914 515.19 347.522 517.278 347.696 519.889C348.044 523.543 345.956 526.675 344.041 529.112C341.605 532.244 340.735 535.724 339.169 539.031C337.255 542.859 337.603 546.514 337.429 550.168C337.255 552.256 337.255 554.345 335.862 556.085C334.47 557.999 334.644 560.261 335.688 562.175C338.125 566.178 338.299 570.006 335.862 574.183C334.296 576.793 334.296 580.099 335.688 582.71C337.081 585.146 337.429 587.408 337.429 590.018C337.429 594.369 337.603 598.545 337.777 602.896C341.083 606.376 339.865 610.901 340.213 615.077C343.867 618.732 341.605 624.126 344.215 628.129C346.478 631.609 344.215 636.656 347.696 639.962C347.174 643.964 349.784 646.227 352.22 648.663C354.831 651.447 357.789 653.709 359.181 657.712C359.703 659.278 360.921 660.496 360.747 662.41C360.225 667.283 361.443 671.459 365.272 674.94C367.012 676.506 367.534 679.29 368.578 681.553C369.796 684.511 371.71 686.773 375.191 686.599C377.627 686.599 379.193 687.991 380.411 689.731C381.978 691.82 383.022 694.082 384.414 695.996C386.328 698.606 387.546 701.565 391.026 703.131C393.637 704.175 395.203 707.307 397.465 709.222C399.727 711.136 403.382 712.006 404.6 714.268C408.602 721.403 416.607 723.143 421.828 728.538C423.046 729.756 424.612 730.626 426.352 730.452C434.009 729.756 440.274 733.584 446.017 737.587C448.627 739.327 450.715 741.067 454.021 740.719C459.242 740.023 463.941 741.763 468.465 744.373C469.509 745.069 470.901 745.94 471.945 745.766C477.34 744.721 481.342 749.42 486.737 748.724C489.695 748.202 493.002 748.202 495.612 749.072C498.048 749.942 500.833 750.29 502.573 751.508C506.227 753.77 509.882 753.77 513.71 753.596C517.19 753.596 520.671 753.074 523.977 753.596C527.806 754.293 530.416 751.682 533.548 751.16C536.507 750.638 539.813 751.508 542.249 750.116C545.207 748.55 547.818 748.376 550.776 748.376C554.256 748.376 557.737 748.724 561.043 748.028C564.35 747.332 567.308 745.94 570.614 745.418C574.617 744.895 578.793 743.329 581.577 739.675C584.188 736.369 587.32 734.628 591.497 735.324C596.021 736.195 600.023 734.454 603.504 732.366C607.506 729.93 612.205 729.234 616.381 727.842C620.906 726.275 624.908 725.057 626.996 720.185C627.518 718.793 629.085 717.748 630.999 717.4C639.178 715.834 645.79 711.658 651.359 705.567C657.798 698.606 665.455 693.386 673.634 689.035C674.678 688.513 676.418 687.817 676.592 687.121C677.114 683.119 681.638 684.163 683.031 681.553C684.423 678.942 686.163 676.506 687.903 674.244C689.817 671.981 691.558 669.893 693.124 667.109C695.56 662.758 699.388 659.104 704.435 657.19C706.871 656.32 708.089 653.883 708.089 650.925C707.915 645.531 710.178 641.006 714.18 637.7C718.879 633.697 721.489 628.651 723.925 623.082C726.535 617.339 729.842 611.945 732.452 606.202C734.192 602.548 736.455 599.067 736.455 594.369C736.455 591.411 738.369 587.756 740.457 585.494C743.067 582.71 743.763 579.751 743.763 576.271C743.763 574.183 743.241 571.746 745.329 570.354C748.984 567.744 749.158 564.09 748.984 560.087C748.81 556.259 747.94 552.43 750.724 548.95C750.898 548.602 750.376 547.558 750.028 546.862C748.636 544.425 748.636 541.989 750.376 539.727C751.942 537.639 751.594 535.898 750.202 533.984C748.114 530.852 749.506 527.372 749.332 524.065C749.332 523.021 750.376 521.629 751.246 520.933C755.075 517.626 755.075 513.45 753.334 509.274C751.942 506.315 750.898 503.879 752.986 501.095C753.682 500.225 754.03 499.528 753.334 499.006C750.202 495.874 753.16 491.35 750.376 488.217C747.592 485.085 750.376 480.56 747.418 477.428C746.026 475.862 746.722 474.296 747.766 472.904C750.202 469.423 749.506 466.291 746.374 463.855C744.111 461.94 743.937 459.678 743.589 457.068C742.719 451.673 740.631 446.627 741.153 440.884C741.327 439.492 740.109 437.752 739.587 436.186C737.325 430.791 733.844 426.092 732.974 420.002C732.626 417.74 730.712 415.477 729.32 413.389C726.883 409.909 724.969 405.732 721.837 403.296C717.834 400.338 718.705 395.639 716.268 392.159C709.308 382.24 701.999 374.583 688.773 364.316C687.033 362.923 687.555 359.965 685.119 359.617C680.594 358.921 680.42 353.874 677.288 351.96C674.504 350.22 671.197 349.002 668.587 346.914C665.629 344.477 663.018 341.519 660.408 338.735C658.842 337.169 656.928 336.647 654.839 335.951C649.793 334.21 644.224 333.514 640.048 329.338C638.482 327.598 635.523 326.031 633.435 326.205C628.041 326.553 624.386 324.465 621.254 320.463C619.34 318.201 616.903 318.027 614.293 318.201C610.639 318.549 607.68 317.678 605.244 314.72C602.634 311.588 597.761 313.676 594.977 310.544C588.016 311.588 581.925 306.889 574.965 307.759C572.354 308.107 570.092 307.585 567.83 305.845C566.09 304.627 563.827 304.801 561.913 306.019C560.173 307.063 558.085 307.759 556.345 308.804C554.953 309.674 554.256 308.978 553.212 308.63C545.207 306.889 541.031 307.063 532.156 309.5C530.59 309.848 528.85 310.196 527.109 310.196C519.627 309.848 513.014 312.458 506.749 315.59C498.048 319.767 488.303 320.985 479.776 325.509C478.384 326.205 476.296 325.857 474.73 325.509C471.075 324.639 467.769 322.377 463.767 322.899C463.07 323.073 462.026 322.551 461.504 322.029C457.85 318.549 454.021 315.242 451.933 310.37C450.193 306.019 449.497 302.191 453.151 298.71C455.24 296.796 456.11 294.534 455.762 291.924C455.414 288.269 457.502 286.355 460.112 284.789C462.2 283.571 464.637 282.527 467.073 282.179C469.335 281.831 471.075 280.786 472.641 279.394C474.208 277.828 475.948 276.784 478.384 276.958C483.257 277.654 486.911 272.956 491.784 274.174C492.132 274.174 492.654 274.174 493.002 273.826C495.786 272.085 498.57 269.301 501.703 270.345C505.009 271.563 507.097 269.127 509.708 268.605C512.84 268.083 516.146 266.865 519.105 265.473C521.541 264.255 523.803 263.907 526.413 263.907C530.764 263.907 534.94 263.907 539.291 263.907C541.901 263.907 544.163 263.907 546.6 262.34C549.558 260.426 553.212 261.644 556.693 261.296C561.217 260.774 566.09 262.688 570.266 259.382C570.788 259.034 572.354 258.86 572.702 259.208C575.835 263.211 581.055 260.078 584.71 262.688C585.928 263.559 587.842 264.081 589.408 263.907C593.237 263.907 596.717 264.777 600.372 266.169C602.286 266.865 604.374 267.561 606.288 268.257C607.506 268.605 609.246 266.865 610.813 266.517C615.859 265.473 620.21 267.909 623.516 270.867C626.996 274.174 630.825 276.088 635.349 277.48C639.7 278.698 643.354 281.483 648.227 282.005C652.403 282.527 657.102 283.745 660.93 287.051C663.366 289.139 666.673 290.357 669.631 292.098C673.634 294.36 677.462 296.796 681.29 299.581C685.641 302.539 689.643 306.019 695.038 307.933C702.173 310.544 708.263 315.416 712.962 321.681C714.18 323.247 714.354 326.205 716.268 326.728C719.923 327.772 720.793 331.426 723.577 332.992C730.712 337.343 735.758 343.259 739.239 350.916C739.935 352.482 740.631 354.397 742.023 355.093C748.288 358.399 750.55 365.36 755.945 369.362C758.381 371.102 759.947 373.539 759.947 377.019C759.947 378.411 761.687 379.803 762.557 381.196C763.253 382.24 764.646 383.284 764.646 384.328C765.168 392.507 771.258 397.727 775.261 403.992C777.349 407.124 779.437 410.431 780.133 414.085C780.655 416.347 781.351 417.914 782.744 419.654C784.658 422.264 788.138 431.835 787.964 434.793C786.92 445.757 790.748 455.502 795.795 464.899C796.317 465.943 797.013 467.161 797.535 468.205C798.405 470.293 798.927 472.556 797.361 474.122C793.881 477.602 797.361 482.823 793.881 486.129C794.577 488.913 794.751 491.872 796.143 494.308C797.883 497.092 798.231 499.703 798.057 502.835C798.057 512.232 798.057 521.803 798.057 531.2C798.057 535.028 797.883 538.857 797.883 542.859C794.403 545.818 796.665 550.516 794.925 553.648C792.837 556.955 793.011 560.087 793.011 563.393C793.011 566.874 792.837 570.18 789.704 572.617C787.79 574.009 787.79 576.271 787.79 578.359C787.616 583.928 788.312 589.67 787.094 594.891C785.876 599.589 782.222 603.766 780.481 608.464C779.437 611.075 776.827 613.337 777.523 616.643C774.739 621.342 775.087 627.259 770.388 631.261C768.648 632.653 768.648 636.134 767.082 637.874C764.298 640.832 766.038 645.531 762.905 648.315C759.947 650.925 758.729 654.58 757.337 658.06C756.119 661.018 753.856 662.932 751.768 664.847C748.984 667.457 746.722 670.589 745.155 674.07C740.631 684.163 739.935 685.207 731.756 692.69C730.538 693.734 729.494 695.126 728.798 696.692C727.754 699.128 726.187 700.869 723.577 701.913C722.359 702.435 721.315 703.131 720.445 704.001C713.484 711.832 706.001 719.489 700.955 728.886C698.866 732.888 695.56 733.932 692.254 735.15C690.339 735.846 688.077 735.15 685.815 735.498C684.597 735.672 682.683 736.369 682.509 736.891C682.335 741.067 677.984 740.371 676.244 742.459C674.33 744.721 671.719 746.462 669.979 748.898C667.195 752.552 663.192 754.641 659.364 755.511C655.71 756.381 652.925 757.599 650.663 760.209C647.531 763.864 643.702 766.3 639.526 768.562C638.134 769.258 636.219 769.78 635.175 770.824C630.303 775.523 624.386 777.089 617.773 776.567C612.553 776.045 607.68 777.263 603.156 779.873C602.46 780.395 601.764 781.265 601.068 781.265C595.151 781.091 590.452 783.528 586.798 788.052C586.102 788.922 584.536 789.096 583.318 789.27C581.577 789.444 579.837 789.444 578.097 789.27C569.396 788.4 561.565 791.881 553.908 795.187C551.994 796.057 550.08 796.927 548.34 798.145C545.555 800.234 542.597 799.363 539.639 799.363C535.984 796.057 531.634 797.275 527.458 796.927C521.541 796.579 515.45 798.493 510.056 794.491C509.186 793.795 507.619 794.317 506.227 794.317C500.136 794.317 494.22 794.143 488.129 794.143C483.779 794.143 479.602 794.143 475.252 794.143C474.382 794.143 473.512 794.143 472.641 793.969C472.293 793.969 471.945 793.621 471.597 793.447C465.681 791.359 459.416 790.488 453.673 788.052C451.237 787.008 448.801 785.964 446.365 786.486C442.536 787.182 439.926 784.05 436.794 784.05C432.617 784.05 430.529 781.439 428.441 778.829C426.178 776.219 423.394 775.871 420.262 776.045C417.129 776.393 414.345 775.697 412.257 773.087C409.821 769.954 406.514 768.214 403.034 766.474C400.772 765.43 398.161 764.734 396.769 762.471C394.507 759.165 390.504 758.121 387.546 756.033C386.154 755.163 384.588 754.815 383.37 753.596C378.149 748.376 378.149 748.376 373.103 747.854C372.754 747.854 372.232 747.854 371.884 747.854C366.49 746.984 362.313 744.199 360.921 738.979C359.877 734.628 358.137 731.148 354.831 728.19C351.35 725.057 348.218 721.925 346.13 717.4C344.911 714.964 342.475 712.876 339.517 711.484C334.992 709.57 332.208 705.915 330.468 701.391C327.858 694.604 323.159 689.209 319.853 682.771C316.546 676.506 314.284 669.719 309.412 664.151C306.105 660.322 306.627 654.58 303.321 650.577C300.537 647.097 297.752 642.92 296.708 638.57C295.49 633.871 292.706 629.347 293.228 623.952C293.75 618.036 292.88 611.945 293.228 606.028C293.576 602.374 290.443 598.719 292.184 595.413C294.62 590.889 288.007 588.626 290.269 584.624C286.441 578.707 288.007 572.791 289.399 566.352C290.617 560.261 293.576 554.345 292.88 547.906C292.706 545.296 292.532 542.685 294.62 540.771C293.402 538.509 294.272 536.595 295.142 534.332C296.012 532.07 295.142 529.286 295.664 526.675C296.012 524.239 297.578 521.977 297.752 519.541C297.926 516.408 299.144 513.972 300.363 511.188C301.755 508.229 304.191 505.445 303.321 501.617C303.147 500.573 303.669 499.006 304.191 498.136C307.149 493.96 308.019 488.913 309.76 484.215C311.152 480.212 312.544 476.558 315.676 473.426C319.157 469.771 321.071 464.899 325.073 461.592C325.943 455.676 330.294 451.151 331.164 445.235C331.512 442.276 332.904 440.014 335.166 439.144C338.647 437.926 340.735 435.315 343.171 433.053C348.566 428.181 352.742 422.264 359.529 418.958C362.139 417.74 364.402 415.129 365.794 412.693C368.578 407.646 372.058 404.166 377.105 401.382C382.152 398.423 385.11 392.507 391.026 390.418C396.595 388.504 400.424 383.284 406.34 381.718C407.036 381.544 408.08 380.847 408.254 380.151C409.995 373.191 415.563 373.887 420.61 374.061C423.916 374.061 426.526 373.365 428.615 370.928C431.399 367.796 436.271 369.884 438.882 366.404C444.972 367.796 450.367 363.62 456.284 363.794C459.416 363.968 461.852 362.749 464.637 361.357C467.943 359.617 471.423 357.877 475.426 358.573C479.428 359.269 482.735 357.181 486.389 356.137C489.869 355.093 493.872 356.311 497.526 354.049C500.311 352.308 503.791 353.352 507.271 354.745C512.666 357.007 518.06 359.269 524.151 358.573C525.369 358.399 527.283 358.051 527.98 358.747C531.286 362.749 536.506 359.443 539.987 362.227C541.901 363.62 543.989 363.794 546.078 363.62C553.038 362.749 559.303 365.186 565.568 367.448C567.656 368.144 569.57 368.666 571.658 368.666C574.095 368.666 575.835 369.362 577.227 371.276C581.229 376.671 588.016 377.715 593.063 381.37C598.109 380.325 600.546 384.676 604.2 386.764C615.859 393.725 626.822 401.556 636.045 411.823C640.57 416.869 645.79 421.568 650.663 426.44C652.751 428.529 654.665 430.965 656.928 432.879C659.712 435.141 658.32 438.448 659.712 441.232C663.192 448.019 667.195 454.284 671.719 460.374C673.46 462.636 673.634 464.899 674.33 467.335C675.722 472.382 676.418 477.95 680.246 482.301C683.031 485.259 684.597 489.435 684.423 493.96C684.423 495.526 685.467 497.092 686.163 498.658C687.207 500.747 687.381 502.835 686.163 504.749C684.423 507.185 684.423 509.1 686.163 511.71C687.033 512.928 686.859 514.842 687.033 516.582C687.555 522.325 685.641 528.59 689.469 533.984C689.469 541.641 689.469 549.472 689.469 557.129C689.469 557.477 689.469 557.999 689.295 558.347C686.859 561.827 684.249 565.308 684.597 569.832C684.945 574.357 680.942 577.489 681.29 581.84C677.636 590.366 672.241 597.849 667.543 605.854C664.759 610.553 661.974 615.251 659.538 620.124C657.276 624.474 655.014 627.781 650.141 629.695C645.617 631.609 640.57 633.523 639.526 639.614C639.526 639.962 638.83 640.136 638.656 640.484C636.393 644.312 631.347 644.834 628.563 647.967C625.604 651.099 622.472 653.883 619.34 656.842C618.992 657.19 618.644 657.538 618.295 657.538C609.072 657.886 604.374 665.021 598.631 670.415C596.543 672.329 588.016 675.636 583.492 675.636C576.705 675.636 570.614 679.986 563.653 678.594C562.957 678.42 562.087 679.116 561.391 679.464C556.171 682.945 550.602 683.989 544.511 683.467C539.117 682.945 533.374 685.033 528.328 681.204C521.019 681.553 514.58 677.724 507.097 678.072C501.355 678.42 495.786 674.94 489.695 675.636C488.651 675.81 487.259 674.94 486.215 674.418C480.82 671.285 476.992 665.717 470.031 665.195C468.639 665.021 467.421 663.106 466.029 662.062C462.548 659.104 460.112 654.406 454.544 655.102C448.975 650.403 443.232 645.879 439.752 639.44C436.62 633.523 432.965 627.955 428.963 622.56C426.7 619.602 424.612 616.295 424.264 612.467C423.916 609.161 420.784 606.55 421.48 602.896C418.348 599.764 418.696 595.065 416.955 591.237C415.389 588.104 416.433 583.58 416.433 579.751C416.433 576.793 416.607 573.661 414.171 571.398C413.997 562.523 412.605 553.822 416.955 545.296C419.914 539.379 422.176 532.94 423.742 526.675C424.438 523.543 425.656 521.107 427.745 519.019C430.007 516.93 432.095 514.842 434.183 512.58C435.053 511.71 436.446 510.666 436.446 509.622C436.968 501.791 443.928 498.658 448.105 493.438C448.975 492.394 449.845 491.35 451.063 491.002C461.678 486.651 470.379 479.168 480.298 474.122C482.213 473.252 484.301 472.556 485.867 471.163C490.739 466.639 496.482 464.551 503.269 464.725C504.835 464.725 506.227 462.81 507.793 462.81C509.36 462.81 510.752 464.551 512.318 464.551C516.842 464.377 521.541 465.769 526.065 462.81C528.328 461.418 531.634 462.114 534.592 463.159C539.291 464.899 543.989 466.465 548.688 467.857C553.038 469.075 556.693 472.556 561.565 472.556C568.7 476.21 575.487 480.212 582.1 484.911C588.364 489.261 590.104 496.744 593.933 502.661C593.933 508.229 593.933 513.798 594.107 519.367C594.107 521.455 594.281 523.717 594.977 525.631C596.195 529.112 600.372 532.244 598.457 535.724C596.369 539.379 598.109 543.381 595.847 546.688C594.803 548.08 594.281 549.646 594.455 551.386C594.803 554.519 593.933 557.303 591.149 559.217C587.842 561.653 586.45 565.308 584.71 568.614C583.492 570.876 582.622 573.139 580.707 574.879C578.793 576.619 577.053 578.359 574.095 578.011C572.006 577.837 569.918 578.185 568.004 579.577C565.046 581.666 561.043 581.317 558.085 580.273C554.779 579.229 551.646 577.837 549.558 573.835C546.774 568.266 544.511 563.045 545.555 556.955C545.904 554.867 547.47 553.3 547.818 551.212C548.688 546.514 553.038 541.989 547.992 537.291C548.34 532.244 546.774 527.024 548.862 522.151C549.732 520.237 549.384 519.193 548.166 517.975C539.117 508.578 539.117 508.577 526.065 508.577C521.715 508.577 517.538 508.752 513.188 508.926C509.359 509.1 506.227 511.188 502.225 511.536C497.874 512.058 493.698 514.668 489.695 517.104C484.127 520.411 469.161 538.509 465.159 545.992C463.766 548.602 462.2 551.212 460.808 553.648C463.418 557.303 459.764 560.435 460.286 564.09C460.634 567.744 460.982 571.746 459.242 575.401C458.894 576.097 458.372 576.967 458.72 577.489C459.938 580.969 463.592 583.754 462.896 587.756C462.2 591.933 466.377 594.543 465.681 598.719C465.507 599.415 466.029 600.46 466.725 600.982C472.119 604.984 474.382 612.119 480.646 615.425C481.342 615.773 482.038 616.469 482.561 617.165C488.651 624.648 496.656 629.173 505.357 632.827C507.619 633.871 509.708 634.915 512.318 635.089C516.842 635.611 521.193 637.352 525.369 639.092C526.587 639.614 527.98 639.962 528.85 639.266C531.112 637.7 533.026 637.352 535.81 638.744C537.377 639.614 540.509 637.004 542.597 637.352C550.428 638.57 557.563 634.045 565.22 634.567C570.092 632.131 575.139 630.043 579.663 627.085C581.751 625.692 583.84 624.3 586.102 623.256C589.93 621.516 593.759 619.428 596.369 615.773C598.805 612.467 602.46 610.379 605.766 609.683C612.901 608.29 616.729 603.766 620.21 598.371C622.646 594.543 626.3 591.237 625.604 585.842C625.43 584.624 626.996 582.884 628.215 581.666C631.347 578.185 635.349 575.227 637.786 571.224C640.048 567.396 639.874 562.349 641.788 558.173C642.832 555.737 643.702 553.474 643.528 550.864C643.702 545.992 643.702 539.553 643.528 533.114C643.702 533.114 643.702 533.114 643.528 533.114Z" fill="white" fill-opacity="0.2"/>
<path d="M383.718 228.407C383.718 231.539 383.718 233.802 383.718 235.89C383.544 242.676 379.193 247.027 372.58 247.201C369.97 247.201 367.36 247.201 364.923 247.201C359.529 247.375 355.004 245.461 351.176 241.806C347 237.63 342.475 233.453 338.473 229.103C334.818 225.101 331.86 220.402 329.25 215.704C328.205 213.963 326.639 212.397 325.073 210.831C320.201 205.61 315.328 200.39 313.762 193.081C313.588 192.385 313.066 191.341 312.37 191.167C307.323 189.079 303.495 185.946 303.495 180.03C298.97 175.331 296.012 168.892 288.355 167.326C282.96 166.282 282.612 160.713 280.698 156.711C280.176 155.667 280.524 154.101 280.524 152.883C280.872 149.054 279.48 146.444 276 144.53C268.517 140.701 263.992 133.914 258.25 128.172C257.728 121.385 251.811 117.557 249.723 111.64C249.027 109.9 247.983 109.204 246.416 108.334C243.806 106.768 241.718 104.679 239.63 102.591C233.713 96.6744 233.713 96.6744 234.061 87.9734C234.235 83.797 234.931 82.2308 239.63 77.5323C240.5 76.6622 241.37 75.9661 241.892 74.748C245.894 65.1769 257.902 65.525 264.862 70.0495C265.907 70.7456 267.299 71.0936 267.995 71.9637C271.475 76.4882 277.392 77.8803 280.872 82.0568C281.916 83.2749 282.264 85.0151 283.134 86.4073C284.353 88.1475 285.571 89.8877 287.833 90.5837C293.228 92.4979 296.882 95.8043 298.622 101.547C299.84 105.375 302.103 109.204 305.583 111.988C306.801 113.032 308.541 114.772 308.367 115.991C308.193 121.385 311.674 122.951 315.676 125.214C318.808 126.954 322.115 129.738 321.593 134.437C325.073 138.613 326.813 144.008 330.99 147.836C334.47 151.142 337.776 154.449 341.083 157.755C342.301 158.973 344.389 160.365 344.215 161.584C344.041 167.674 349.958 169.936 351.872 174.287C353.96 178.811 357.615 181.596 360.573 185.076C361.965 186.642 364.227 188.034 364.749 189.949C366.838 196.735 372.058 201.26 376.409 206.48C379.019 209.613 380.585 213.789 382.499 217.444C384.936 220.924 382.847 225.275 383.718 228.407Z" fill="white" fill-opacity="0.2"/>
<path d="M1019.76 292.272C1019.41 302.713 1015.06 311.588 1009.67 320.289C1008.62 322.029 1006.71 323.421 1006.36 325.684C1000.62 328.12 997.659 334.037 992.612 336.647C987.392 339.431 984.085 343.608 980.083 347.436C975.733 351.439 971.556 355.789 965.813 357.877C962.333 359.095 959.897 361.706 958.331 364.49C954.154 371.625 948.76 377.193 941.625 381.37C939.537 382.588 937.622 384.502 935.882 386.416C933.272 389.201 929.791 391.289 928.921 395.465C925.441 396.858 921.787 397.902 918.48 399.642C916.74 400.512 914.826 402.252 914.13 403.992C913.086 407.125 910.127 408.517 909.083 411.301C908.213 413.563 906.821 414.085 904.733 414.956C896.728 418.436 887.853 419.828 881.066 425.745C880.37 426.267 879.674 427.311 878.978 427.137C873.583 426.093 869.581 430.443 864.36 430.269C860.88 430.269 857.574 430.095 855.137 426.963C853.919 425.223 851.831 424.005 850.613 422.438C846.436 416.522 845.566 409.909 847.48 403.122C848.177 400.338 852.005 399.12 852.179 395.813C856.878 394.073 857.748 388.853 861.402 385.894C864.012 383.806 865.926 381.022 869.929 381.022C871.321 381.022 872.887 379.456 874.105 378.412C876.89 375.801 879.848 373.191 882.11 370.059C884.895 366.578 888.897 364.664 892.725 363.62C895.858 362.75 897.946 362.054 899.164 358.921C900.382 355.789 902.122 352.831 903.515 349.872C904.037 348.654 905.081 348.132 906.473 347.784C908.039 347.61 910.301 347.262 911.171 346.218C915.522 340.823 921.961 338.039 926.833 333.341C929.095 331.252 931.184 329.338 934.49 329.512C935.882 329.512 936.404 328.468 936.926 327.076C938.667 322.899 941.973 319.941 945.453 317.853C952.24 313.85 957.113 308.63 961.289 301.843C963.203 298.711 965.988 295.926 970.512 295.926C972.948 295.926 974.688 293.49 975.558 290.88C976.429 288.444 978.517 287.226 980.779 285.833C986.348 282.527 992.438 281.483 998.355 279.569C1001.49 278.525 1003.92 277.828 1006.71 279.743C1008.62 281.135 1010.88 280.613 1012.8 280.787C1016.8 281.483 1019.06 283.745 1019.24 287.226C1019.76 288.792 1019.76 290.532 1019.76 292.272Z" fill="white" fill-opacity="0.2"/>
<path d="M574.444 211.005C569.919 212.223 566.613 209.961 563.132 207.003C558.434 203 556.172 197.432 552.169 192.907C549.907 190.297 551.473 186.12 548.515 183.684C548.167 183.336 548.515 181.77 548.863 181.422C553.039 178.463 547.123 174.287 550.255 171.329C547.819 168.718 547.993 166.108 550.255 163.498C550.603 162.976 550.603 161.758 550.255 161.062C547.123 155.841 547.297 150.794 550.081 145.4C551.125 143.312 551.299 139.657 550.081 138.091C547.297 134.089 548.341 129.912 547.993 125.736C547.819 123.995 548.167 122.255 549.559 121.037C554.605 116.687 553.909 111.292 551.995 105.897C551.125 103.461 549.907 101.025 551.473 98.7627C553.213 96.3264 553.039 94.4122 551.473 91.8019C549.559 88.8436 550.951 85.1892 550.777 81.7088C554.431 77.1843 553.213 71.9637 553.039 66.9172C552.865 61.8706 554.257 56.65 550.777 52.1255C549.907 51.0814 550.603 48.8192 550.603 47.079C550.603 40.2922 550.603 33.3315 550.603 26.5447C550.603 23.9344 551.125 21.6722 552.691 19.4099C555.998 14.0153 559.13 8.62075 563.306 3.74822C567.135 -0.776281 574.792 -0.776281 579.664 1.48597C584.363 3.74822 587.843 6.88056 590.105 11.7531C592.542 16.7997 594.804 21.4982 594.63 27.2408C594.456 32.6354 597.24 37.6819 598.284 43.0765C598.632 44.9907 598.458 45.8608 597.762 47.253C593.76 54.7358 593.238 62.3927 596.544 70.3975C597.24 71.9637 597.588 74.0519 597.066 75.2701C596.022 77.5323 594.63 79.6206 594.804 82.4049C595.152 89.7137 595.152 96.8485 595.326 104.157C598.806 106.942 594.456 109.378 594.63 111.988C595.152 118.775 594.978 125.736 594.804 132.522C594.804 135.481 595.674 138.613 593.586 141.223C591.672 143.66 595.326 144.704 594.63 146.792C593.934 148.706 593.064 150.62 592.542 152.535C592.368 153.231 592.194 154.449 592.716 154.971C595.674 158.625 594.978 162.976 594.978 167.152C595.152 177.419 594.978 187.686 595.152 197.954C595.152 200.738 594.108 202.652 592.02 204.566C586.973 209.787 581.404 211.875 574.444 211.005Z" fill="white" fill-opacity="0.2"/>
<path d="M35.1579 569.136C29.2412 568.962 23.1506 570.18 17.93 566.526C14.4496 567.048 12.3614 564.96 10.2731 562.697C6.79275 559.043 2.44227 556.085 1.05012 550.69C0.702083 549.124 0.180025 547.558 0.00600598 545.818C-0.168013 543.555 3.48639 533.288 4.87854 531.896C8.70696 527.72 13.4055 525.283 19.3221 525.109C21.9324 525.109 24.5427 524.587 26.979 525.109C32.0255 525.979 36.202 524.239 40.2044 521.803C42.6407 520.411 44.7289 519.541 46.9912 521.803C54.9961 522.847 63.175 524.065 70.4838 519.889C76.5744 516.234 82.6651 514.32 89.6259 515.016C93.4543 515.364 97.1087 514.668 100.415 512.406C105.288 509.274 111.726 509.1 116.425 505.619C117.121 505.097 117.991 504.749 118.687 504.749C124.952 505.271 130.346 503.183 135.393 499.877C139.743 500.225 143.572 497.614 147.574 497.266C151.577 496.918 155.231 495.874 158.189 493.786C161.844 491.35 166.194 491.872 170.023 489.609C172.285 488.217 175.939 489.261 178.898 489.087C180.986 489.087 183.248 489.087 185.336 489.087C194.385 488.739 200.476 493.96 205.349 500.573C206.567 502.313 206.393 505.619 205.871 507.881C205.349 510.318 203.434 512.232 202.564 514.668C200.65 519.193 197.866 522.325 193.167 524.239C187.773 526.327 183.074 530.156 178.376 533.636C174.199 536.769 169.675 538.335 164.28 538.335C155.579 538.161 152.969 539.379 143.398 545.122C140.962 546.514 138.003 548.254 135.393 548.254C126.692 548.254 119.383 552.604 111.378 554.693C107.724 555.563 104.94 559.043 100.937 558.521C97.1087 557.999 94.8464 562.001 91.3661 561.305C87.1896 560.435 84.2313 563.916 80.4029 563.916C77.0965 563.916 73.9641 564.264 70.6578 565.83C67.8735 567.222 64.0451 566.178 60.5647 566.352C57.2583 566.526 53.7779 565.83 50.6456 568.266C49.4274 569.136 47.3392 568.962 45.773 569.136C42.1186 569.136 38.6383 569.136 35.1579 569.136Z" fill="white" fill-opacity="0.2"/>
<path d="M736.454 244.939C735.41 240.588 738.02 237.456 740.282 233.802C742.544 229.973 744.285 225.797 746.547 221.794C748.983 217.27 754.03 214.833 755.248 209.439C756.292 205.088 758.032 200.738 760.294 196.909C762.209 193.603 763.079 189.601 766.385 187.338C767.081 181.422 771.606 176.897 772.302 170.981C772.65 168.022 774.216 165.76 776.478 165.064C779.089 164.194 781.351 162.802 782.395 160.539C784.483 155.493 790.052 152.187 790.226 146.444C790.226 142.79 793.706 140.527 793.184 136.873C793.01 135.481 793.88 134.263 795.098 133.915C800.145 132.696 800.493 127.824 802.929 124.518C802.407 119.645 805.713 116.687 809.02 113.902C813.37 110.248 815.11 104.853 819.113 100.851C824.508 95.6303 830.772 92.672 837.385 89.8877C839.299 89.0176 841.387 88.6696 843.302 87.7995C845.738 86.7554 848.174 86.7554 850.262 88.8436C851.829 90.4098 853.221 91.9759 854.787 93.3681C857.571 95.9784 858.615 98.9367 856.353 102.417C854.439 105.201 854.961 107.812 856.527 110.77C858.963 115.469 858.441 121.037 857.223 125.736C856.179 129.912 852.873 133.741 849.74 137.221C845.564 141.919 840.691 146.096 837.733 151.839C836.167 154.797 831.99 156.015 831.99 160.017C832.164 164.194 827.64 165.586 827.292 168.718C826.944 172.373 824.508 174.809 824.159 178.289C823.463 183.51 820.679 187.686 816.851 191.167C814.936 192.907 813.196 194.821 811.456 196.561C809.89 198.128 808.672 199.868 808.846 202.13C809.194 206.655 806.409 210.135 804.495 213.789C803.799 215.181 801.885 216.226 801.363 217.792C800.319 220.924 797.535 223.534 798.231 227.363C795.272 229.103 792.14 230.495 790.4 233.453C787.789 237.804 784.831 241.98 783.439 246.679C782.569 249.637 781.873 252.248 779.611 254.336C776.652 257.294 774.042 260.426 771.606 264.081C768.473 268.779 762.905 271.39 757.162 269.649C754.552 268.953 751.942 269.649 749.505 268.605C747.939 268.083 746.199 267.387 744.981 266.517C743.241 265.299 741.674 263.733 740.456 261.993C739.238 260.252 738.368 258.338 737.672 256.424C737.498 255.554 738.89 254.162 738.716 253.292C738.368 251.726 737.15 250.333 736.802 248.767C736.106 247.897 736.454 246.505 736.454 244.939Z" fill="white" fill-opacity="0.2"/>
<path d="M977.298 597.327C972.947 597.327 968.771 597.327 964.421 597.327C960.592 597.327 957.808 600.808 953.457 600.112C950.151 599.59 946.497 599.242 943.712 601.852C943.364 602.026 943.016 602.2 942.494 602.2C938.318 602.548 933.619 601.156 929.965 603.418C926.31 605.68 922.482 604.462 918.828 604.984C917.261 605.158 915.521 605.68 913.955 606.202C909.083 608.117 903.862 608.117 899.163 606.376C896.727 605.332 894.291 604.984 891.855 604.984C886.634 604.984 881.588 604.81 876.367 604.81C873.235 604.984 871.494 601.504 868.014 602.2C865.578 602.722 862.619 603.07 860.357 602.026C857.225 600.634 852.7 600.808 851.656 595.935C851.134 593.499 849.22 591.585 848.176 589.149C846.088 584.624 846.61 580.448 848.35 575.923C850.786 569.658 856.007 566.004 860.705 561.479C865.926 561.828 870.45 555.389 876.193 560.087C877.237 560.957 879.499 560.609 881.065 560.783C886.286 560.957 891.333 560.957 896.553 560.957C900.382 560.957 904.21 561.654 907.516 558.869C908.386 558.173 909.953 558.521 911.171 558.347C916.217 557.999 921.438 559.565 925.962 555.911C929.443 555.911 932.749 555.911 936.229 555.737C937.97 555.737 939.536 555.563 941.276 555.041C944.234 554.171 955.546 553.301 958.504 553.301C960.766 553.301 962.332 554.519 964.247 555.215C969.641 551.386 976.428 555.215 981.474 552.779C985.999 550.69 989.131 550.69 993.134 552.953C994.352 553.649 996.44 552.953 998.006 552.256C1002.7 550.516 1007.58 549.646 1011.75 546.688C1014.02 545.122 1016.28 545.47 1018.89 546.514C1025.15 549.124 1030.37 553.301 1036.29 556.433C1037.68 557.129 1038.9 558.695 1039.6 560.261C1040.82 562.35 1041.16 565.308 1042.73 567.048C1046.04 570.528 1043.77 572.965 1042.56 576.271C1041.16 579.926 1036.99 581.666 1036.46 585.668C1031.59 587.93 1027.42 591.759 1021.67 591.933C1019.58 591.933 1017.32 592.107 1015.23 591.933C1009.67 591.237 1004.27 592.629 999.224 594.543C994.874 596.283 990.523 597.501 985.825 596.979C983.389 597.153 980.256 597.327 977.298 597.327Z" fill="white" fill-opacity="0.2"/>
<path d="M217.703 370.581C215.093 370.581 212.483 370.581 210.046 370.581C208.132 370.581 206.914 369.885 205.522 368.841C199.431 364.316 193.514 359.792 186.38 357.007C184.465 356.137 182.377 355.615 180.463 355.093C176.809 354.049 173.502 352.483 170.718 349.525C167.586 346.218 166.019 341.346 160.973 340.302C156.448 339.431 154.708 334.733 150.184 333.863C148.618 333.515 147.051 332.471 145.659 331.775C141.657 329.686 139.917 324.814 134.348 324.118C129.998 323.596 125.647 320.985 121.993 318.375C119.73 316.983 115.554 317.157 115.728 312.981C113.64 311.762 111.551 309.5 109.289 309.326C100.936 308.804 95.3677 301.321 87.1888 300.973C85.7966 300.973 84.5785 299.059 83.1864 298.015C81.2722 296.449 79.88 294.361 77.0957 293.49C73.7893 292.272 70.657 289.488 70.1349 286.53C69.4389 281.657 68.7428 276.611 71.7011 271.738C74.1374 267.562 77.0957 264.777 81.2722 262.167C84.9266 259.905 89.277 260.253 93.1055 257.991C94.8456 256.946 98.152 256.946 100.414 258.687C102.328 260.079 104.243 260.427 106.505 260.253C111.726 259.731 116.076 262.689 120.949 263.907C124.603 264.777 127.387 267.562 130.52 269.824C133.13 271.738 136.958 269.824 140.265 272.086C143.049 274 145.833 275.218 147.573 278.525C149.314 281.831 152.446 284.267 155.056 287.052C156.274 288.444 158.189 288.096 159.755 288.618C167.238 291.228 175.068 292.968 180.637 299.581C182.203 301.321 184.814 303.061 187.076 303.235C192.296 303.758 195.603 306.542 198.735 310.196C204.304 316.809 211.438 321.333 219.443 324.466C230.581 328.816 236.149 338.039 241.37 347.784C243.284 351.439 243.458 354.919 241.196 358.574C240.152 360.314 238.759 362.228 238.411 364.142C237.019 369.363 232.495 369.885 228.666 370.755C224.664 371.277 221.184 370.581 217.703 370.581Z" fill="white" fill-opacity="0.2"/>
<path d="M710.699 1007.66C710.699 1009.75 710.699 1012.02 710.699 1014.1C710.525 1019.5 707.567 1023.67 701.824 1024.72C699.562 1025.07 697.648 1027.85 695.038 1026.11C691.731 1023.85 687.555 1026.11 684.074 1023.33C681.812 1021.59 679.028 1020.54 676.766 1018.28C672.415 1014.1 669.805 1009.23 666.498 1001.4C663.192 993.743 659.19 986.434 655.361 978.951C653.273 974.775 650.315 971.121 651.011 966.074C651.011 965.726 651.185 965.03 650.837 964.856C646.312 960.853 645.268 955.633 645.79 949.89C645.79 949.194 645.094 948.15 644.572 947.802C640.918 945.192 641.092 941.363 640.744 937.535C640.222 933.532 639.352 929.356 637.611 925.528C634.653 918.915 632.565 912.302 633.087 904.993C633.435 900.643 632.565 896.988 629.432 893.334C626.996 890.376 626.474 885.677 625.43 881.675C624.56 878.542 622.472 875.932 622.472 872.104C622.646 867.753 625.256 865.317 626.822 862.011C628.388 858.53 631.695 857.834 633.783 855.398C634.653 854.528 635.697 852.962 636.741 852.962C644.224 852.788 651.881 850.525 659.19 853.832C660.756 854.528 663.192 855.224 663.366 856.268C663.714 860.444 668.935 861.837 668.935 866.013C668.935 867.753 669.457 869.319 670.675 870.712C674.155 875.41 674.677 880.805 674.155 886.373C673.807 889.854 674.677 892.812 677.288 895.596C680.768 899.251 682.334 904.123 681.812 909.518C681.464 913.694 681.464 918.045 684.422 921.699C683.726 925.006 686.685 927.094 686.859 930.052C687.033 933.532 686.685 937.013 687.381 940.319C688.077 943.626 691.557 945.366 692.775 948.672C693.994 951.456 694.864 954.067 694.69 957.199C694.342 965.03 696.952 972.513 701.476 978.255C705.479 983.476 707.219 989.393 709.307 995.135C710.699 998.964 710.177 1003.49 710.525 1007.66C711.047 1007.66 710.873 1007.66 710.699 1007.66Z" fill="white" fill-opacity="0.2"/>
<path d="M333.079 1019.67C329.773 1020.02 327.337 1018.98 325.074 1016.71C320.724 1012.01 316.547 1007.32 316.373 1000.36C316.373 998.789 315.329 997.223 314.807 995.657C313.937 993.569 313.763 991.655 314.807 989.566C317.069 985.042 319.506 980.865 319.506 975.471C319.506 973.209 321.594 970.946 322.812 968.858C329.425 956.677 334.297 943.799 342.302 932.488C346.131 927.094 347.871 920.481 349.785 914.042C350.655 911.606 351.003 909.17 353.091 907.429C357.268 904.123 358.66 899.25 360.922 894.726C363.011 890.55 364.751 886.547 365.621 881.849C366.665 877.15 367.187 871.755 371.363 868.275C372.06 867.753 372.756 866.883 372.756 866.187C372.582 862.358 374.148 859.574 377.106 857.486C382.153 853.831 387.199 850.003 392.942 847.393C394.334 846.871 396.422 847.393 397.814 847.915C404.427 850.525 409.126 855.398 413.302 860.792C415.042 863.055 415.042 866.535 413.824 868.101C411.214 872.103 411.736 876.28 411.736 880.456C411.736 883.241 410.692 885.329 409.474 887.591C408.256 889.853 412.78 891.768 409.996 894.204C409.648 900.643 404.253 905.341 403.905 911.78C403.905 912.824 402.687 914.042 401.991 914.912C400.251 916.826 398.51 918.567 396.596 920.481C392.768 924.309 391.028 928.834 391.376 934.228C391.55 938.057 391.724 941.885 387.895 944.67C387.199 945.192 386.503 946.062 386.503 946.758C386.329 955.285 380.238 960.331 374.844 965.552C370.145 970.076 367.883 975.993 365.795 981.91C363.185 988.696 356.398 1003.66 352.395 1008.71C350.307 1011.32 349.785 1016.37 344.216 1014.97C343.694 1014.8 342.824 1015.84 342.302 1016.54C339.692 1019.15 336.734 1020.19 333.079 1019.67Z" fill="white" fill-opacity="0.2"/>
<path d="M902.817 865.317C898.292 864.969 892.55 866.187 887.677 862.707C884.719 863.055 882.805 861.141 881.239 859.227C878.454 855.746 874.626 853.658 870.623 852.788C867.491 852.092 865.229 851.048 862.967 848.959C857.572 843.391 852.003 838.17 846.609 832.602C845.043 831.035 843.302 829.643 842.432 827.729C839.474 821.812 836.168 816.592 828.685 816.07C824.334 813.46 821.724 808.761 816.678 806.847C816.155 802.322 810.761 801.974 809.195 799.016C807.455 795.884 804.844 793.795 802.93 791.185C801.538 789.097 800.668 786.661 798.928 784.92C797.187 783.18 794.577 782.484 792.663 780.744C788.138 776.916 783.788 772.739 782.918 766.3C782.744 764.56 782.57 762.82 781.004 761.776C777.349 758.991 777.523 755.163 777.697 751.335C777.697 749.594 777.871 748.028 779.089 746.636C779.96 745.766 781.178 744.896 781.7 743.678C785.006 735.151 792.141 733.759 800.146 733.585C805.192 733.411 809.195 734.629 812.501 738.805C814.067 740.894 816.155 742.46 817.896 744.2C819.462 745.766 821.202 746.636 823.464 746.81C824.682 746.81 825.727 747.68 826.771 748.202C829.555 749.42 828.685 753.597 832.339 754.641C834.95 755.337 836.864 758.469 839.126 760.384C841.214 762.124 841.562 764.56 842.258 766.996C843.825 771.521 846.783 775.175 852.525 774.827C854.788 774.653 856.702 775.175 858.268 776.915C860.704 779.7 864.011 781.788 865.403 785.79C866.099 787.531 868.013 789.271 869.753 789.967C871.842 790.837 873.756 792.055 874.626 793.795C877.758 801.278 884.719 805.107 889.766 810.849C891.158 812.415 893.246 813.285 895.16 813.982C900.033 815.896 903.687 819.55 907.167 823.205C909.43 825.641 910.648 829.643 913.258 830.861C916.913 832.602 917.087 836.256 919.523 838.518C922.655 841.477 923.177 846.175 923.873 850.004C925.44 858.182 919.697 863.925 912.388 864.969C909.604 865.665 906.645 865.317 902.817 865.317Z" fill="white" fill-opacity="0.2"/>
<path d="M93.9767 841.824C87.0159 842.52 81.9694 840.258 77.4449 835.907C75.7047 834.167 74.1385 832.079 71.3542 831.383C70.1361 831.035 69.614 829.817 69.44 828.425C69.092 824.77 70.4841 820.594 67.1777 817.461C67.0037 817.287 66.8297 816.591 67.0037 816.243C68.2219 812.763 68.9179 808.934 71.0062 805.976C72.7464 803.366 75.1826 800.756 79.1851 800.756C82.4914 800.756 84.9277 797.449 88.7561 798.145C93.6286 798.841 98.1531 796.927 101.285 793.273C104.244 789.792 108.768 791.533 111.553 788.748C111.727 788.574 112.249 788.748 112.597 788.922C118.687 792.925 123.038 788.574 127.214 785.442C130.347 783.18 133.131 780.743 136.263 778.655C139.222 776.741 142.354 775.871 145.138 774.479C148.793 772.564 152.273 770.302 156.276 769.084C158.19 768.388 160.104 767.344 162.192 767.518C165.673 768.04 168.457 766.3 169.327 763.341C170.545 759.513 173.155 758.469 176.114 756.555C180.812 753.77 186.381 752.552 190.209 748.202C191.427 746.81 193.168 746.81 194.908 746.636C199.084 746.288 203.087 746.984 207.263 744.721C212.832 741.763 218.748 745.417 224.317 747.158C228.319 748.376 231.104 751.856 232.496 756.207C233.192 757.947 232.844 758.991 232.496 760.557C231.452 765.082 231.104 769.606 228.667 773.783C224.491 780.743 220.141 787.356 212.31 790.836C209.351 792.229 207.611 795.709 203.957 796.405C202.739 796.579 201.695 797.971 200.65 797.971C192.994 797.971 187.251 802.496 180.986 805.802C180.638 805.976 180.116 805.802 179.768 806.15C177.158 808.238 174.722 810.849 171.937 812.589C168.805 814.503 165.499 816.069 161.496 816.765C158.364 817.113 155.753 820.072 152.621 821.29C150.533 821.986 148.967 823.204 147.401 824.77C146.182 825.988 144.79 826.858 142.876 826.858C140.266 826.858 137.307 826.336 135.393 827.38C130.173 830.339 124.256 830.513 118.861 832.949C114.685 834.863 109.638 835.385 106.332 838.17C102.33 841.476 98.3272 842.346 93.9767 841.824Z" fill="white" fill-opacity="0.2"/>
</svg>
