<?xml version="1.0" standalone="no"?><!DOCTYPE svg PUBLIC "-//W3C//DTD SVG 1.1//EN" "http://www.w3.org/Graphics/SVG/1.1/DTD/svg11.dtd"><svg t="1749802823618" class="icon" viewBox="0 0 1024 1024" version="1.1" xmlns="http://www.w3.org/2000/svg" p-id="4304" xmlns:xlink="http://www.w3.org/1999/xlink" width="200" height="200"><path d="M559.786667 170.666667a112.213333 112.213333 0 0 1 111.850666 103.018666l0.213334 3.648H745.706667a117.333333 117.333333 0 0 1 91.882666 44.373334l3.221334 4.266666 88.896 123.072a160 160 0 0 1 30.144 86.954667l0.149333 6.72v150.613333a74.666667 74.666667 0 0 1-70.570667 74.56L885.333333 768h-34.133333a106.709333 106.709333 0 0 1-209.066667 0H392.533333a106.709333 106.709333 0 0 1-209.066666 0.021333L138.666667 768l-4.096-0.106667A74.666667 74.666667 0 0 1 64 693.333333a32 32 0 0 1 64 0 10.666667 10.666667 0 0 0 8.746667 10.496L138.666667 704H213.333333a32 32 0 0 1 31.850667 28.928l0.149333 3.072v10.666667a42.666667 42.666667 0 0 0 85.226667 3.2L330.666667 746.666667v-10.666667A32 32 0 0 1 362.666667 704h309.333333a32 32 0 0 1 31.850667 28.928L704 736v10.666667a42.666667 42.666667 0 0 0 85.226667 3.2L789.333333 746.666667v-10.666667a32 32 0 0 1 32-32h64a10.666667 10.666667 0 0 0 10.496-8.746667L896 693.333333v-150.613333a96 96 0 0 0-15.082667-51.669333l-3.093333-4.544-88.896-123.072a53.333333 53.333333 0 0 0-39.296-21.973334L745.706667 341.333333l-9.28-0.021333-0.426667 0.021333H640a32 32 0 0 1-31.850667-28.928L608 309.333333v-26.453333a48.213333 48.213333 0 0 0-44.906667-48.106667L559.786667 234.666667H176.213333a48.213333 48.213333 0 0 0-48.106666 44.906666L128 282.88v22.186667a32 32 0 0 1-63.850667 3.072L64 305.066667v-22.186667a112.213333 112.213333 0 0 1 107.584-112.128L176.213333 170.666667h383.573334zM160.96 401.770667a24.896 24.896 0 0 1 2.730667 49.642666l-2.730667 0.149334-50.752-0.021334v37.333334h50.773333a24.896 24.896 0 0 1 2.709334 49.642666l-2.730667 0.149334-50.752-0.021334V576c0 12.821333-9.685333 23.381333-22.165333 24.746667L85.333333 600.896a24.896 24.896 0 0 1-24.746666-22.186667L60.437333 576v-149.333333c0-12.821333 9.706667-23.381333 22.186667-24.746667L85.333333 401.770667h75.626667z m327.765333 0a24.896 24.896 0 0 1 2.709334 49.642666l-2.709334 0.149334-50.752-0.021334v24.896h38.144a24.896 24.896 0 0 1 2.709334 49.642667l-2.709334 0.149333-38.144-0.021333v24.896h50.773334c12.8 0 23.381333 9.706667 24.725333 22.186667l0.149333 2.709333c0 12.821333-9.706667 23.381333-22.186666 24.746667l-2.709334 0.149333h-75.626666a24.896 24.896 0 0 1-24.746667-22.186667L388.202667 576v-149.333333c0-12.821333 9.706667-23.381333 22.186666-24.746667l2.709334-0.149333h75.626666z m151.274667 0a24.896 24.896 0 0 1 2.709333 49.642666l-2.709333 0.149334-50.752-0.021334v24.896h38.144a24.896 24.896 0 0 1 2.709333 49.642667l-2.709333 0.149333-38.144-0.021333v24.896H640c12.821333 0 23.381333 9.706667 24.746667 22.186667l0.149333 2.709333c0 12.821333-9.706667 23.381333-22.186667 24.746667l-2.709333 0.149333h-75.626667a24.896 24.896 0 0 1-24.746666-22.186667L539.477333 576v-149.333333c0-12.821333 9.706667-23.381333 22.186667-24.746667l2.709333-0.149333H640z m-339.882667 0a62.229333 62.229333 0 0 1 28.949334 117.333333l29.013333 42.965333a24.896 24.896 0 0 1-39.616 30.016l-1.642667-2.154666-43.029333-63.722667h-12.309333V576c0 12.821333-9.685333 23.381333-22.165334 24.746667l-2.709333 0.149333a24.896 24.896 0 0 1-24.746667-22.186667L211.712 576v-149.333333c0-12.821333 9.706667-23.381333 22.186667-24.746667l2.709333-0.149333h63.509333z m-38.634666 49.770666v24.896h38.634666a12.437333 12.437333 0 0 0 2.026667-24.725333l-2.026667-0.149333-38.634666-0.021334z" p-id="4305" fill="#0AD2E9"></path></svg>