<?xml version="1.0" standalone="no"?><!DOCTYPE svg PUBLIC "-//W3C//DTD SVG 1.1//EN" "http://www.w3.org/Graphics/SVG/1.1/DTD/svg11.dtd"><svg t="1741012171562" class="icon" viewBox="0 0 1024 1024" version="1.1" xmlns="http://www.w3.org/2000/svg" p-id="6241" xmlns:xlink="http://www.w3.org/1999/xlink" width="64" height="64"><path d="M158.80192 869.48352h326.60736v-445.1072H158.80192zM135.68 320.32256h349.72928v104.0512H135.68z" fill="#D31B1B" p-id="6242"></path><path d="M158.80192 444.60544h326.60736v-20.23168H158.80192zM485.40928 869.48352h375.74144v-445.1072H485.40928zM485.40928 320.32256h401.7536v104.0512H485.40928z" fill="#BA0303" p-id="6243"></path><path d="M485.40928 444.60544h375.74144v-20.23168H485.40928z" fill="#D31B1B" p-id="6244"></path><path d="M225.28 525.53728m-28.9024 0a28.9024 28.9024 0 1 0 57.8048 0 28.9024 28.9024 0 1 0-57.8048 0Z" fill="#FFC9C9" p-id="6245"></path><path d="M219.49952 753.87136m-34.68288 0a34.68288 34.68288 0 1 0 69.36576 0 34.68288 34.68288 0 1 0-69.36576 0Z" fill="#BA0303" p-id="6246"></path><path d="M300.4288 646.92992m-34.68288 0a34.68288 34.68288 0 1 0 69.36576 0 34.68288 34.68288 0 1 0-69.36576 0Z" fill="#BA0303" p-id="6247"></path><path d="M311.98976 834.80064m-34.68288 0a34.68288 34.68288 0 1 0 69.36576 0 34.68288 34.68288 0 1 0-69.36576 0Z" fill="#BA0303" p-id="6248"></path><path d="M427.60448 719.18848m-28.9024 0a28.9024 28.9024 0 1 0 57.8048 0 28.9024 28.9024 0 1 0-57.8048 0Z" fill="#FFC9C9" p-id="6249"></path><path d="M398.69952 513.97632m-28.9024 0a28.9024 28.9024 0 1 0 57.8048 0 28.9024 28.9024 0 1 0-57.8048 0Z" fill="#FFC9C9" p-id="6250"></path><path d="M488.29952 589.12256m-34.68288 0a34.68288 34.68288 0 1 0 69.36576 0 34.68288 34.68288 0 1 0-69.36576 0Z" fill="#FFC9C9" p-id="6251"></path><path d="M757.09952 519.7568m-34.68288 0a34.68288 34.68288 0 1 0 69.36576 0 34.68288 34.68288 0 1 0-69.36576 0Z" fill="#FFC9C9" p-id="6252"></path><path d="M814.90688 670.05184m-34.68288 0a34.68288 34.68288 0 1 0 69.36576 0 34.68288 34.68288 0 1 0-69.36576 0Z" fill="#FFC9C9" p-id="6253"></path><path d="M780.224 800.11776m-34.68288 0a34.68288 34.68288 0 1 0 69.36576 0 34.68288 34.68288 0 1 0-69.36576 0Z" fill="#D31B1B" p-id="6254"></path><path d="M589.46304 713.408m-34.68288 0a34.68288 34.68288 0 1 0 69.36576 0 34.68288 34.68288 0 1 0-69.36576 0Z" fill="#D31B1B" p-id="6255"></path><path d="M653.04832 612.24704m-34.68288 0a34.68288 34.68288 0 1 0 69.36576 0 34.68288 34.68288 0 1 0-69.36576 0Z" fill="#D31B1B" p-id="6256"></path><path d="M575.00928 496.63232m-34.68288 0a34.68288 34.68288 0 1 0 69.36576 0 34.68288 34.68288 0 1 0-69.36576 0Z" fill="#D31B1B" p-id="6257"></path><path d="M655.93856 814.56896m-34.68288 0a34.68288 34.68288 0 1 0 69.36576 0 34.68288 34.68288 0 1 0-69.36576 0Z" fill="#D31B1B" p-id="6258"></path><path d="M499.86304 811.67872m-34.68288 0a34.68288 34.68288 0 1 0 69.36576 0 34.68288 34.68288 0 1 0-69.36576 0Z" fill="#FFC9C9" p-id="6259"></path><path d="M300.4288 320.32256h69.36832v549.16096h-69.36832zM653.04832 320.32256h69.36832v549.16096h-69.36832z" fill="#FFC9C9" p-id="6260"></path><path d="M377.26464 155.78368c21.74976 4.54656 40.6144 26.96192 50.48832 39.43936 13.11744 16.3456 24.22272 42.8288 57.65632 125.09952h-35.13344c-34.48064-65.11872-93.4528-81.61792-95.7952-82.2528l-0.07424-0.01792c9.94816 42.35264 95.872 82.27072 95.872 82.27072h-5.2096c-89.68192-3.40992-143.60576-33.00864-161.77152-88.79616-19.0208-58.41664 43.6736-86.2592 93.96736-75.74272zM593.55392 155.78368c-21.74976 4.54656-40.61696 26.96192-50.49088 39.43936-13.11488 16.3456-24.22016 42.8288-57.65376 125.09952h35.13088c34.4832-65.11872 93.45536-81.61792 95.80032-82.2528l0.07168-0.01792c-9.94816 42.35264-95.872 82.27072-95.872 82.27072h5.20704c89.68448-3.40992 143.60832-33.00864 161.77152-88.79616 19.0208-58.41664-43.67104-86.2592-93.9648-75.74272z" fill="#D31B1B" p-id="6261"></path></svg>