<?xml version="1.0" standalone="no"?><!DOCTYPE svg PUBLIC "-//W3C//DTD SVG 1.1//EN" "http://www.w3.org/Graphics/SVG/1.1/DTD/svg11.dtd"><svg t="1750259539541" class="icon" viewBox="0 0 1024 1024" version="1.1" xmlns="http://www.w3.org/2000/svg" p-id="30696" xmlns:xlink="http://www.w3.org/1999/xlink" width="200" height="200"><path d="M947.51656 598.309738l4.822842-61.781088c1.034563-13.219069-4.885264-31.041994-13.224186-39.807634-8.328689-8.760524-19.415189-25.612331-24.75173-37.636179l-61.160965-137.802506c-5.336542-12.023848-19.871583-22.484084-32.459273-23.364127l-127.501906-8.901741c-12.592806-0.87902-33.003672-0.87902-45.596478 0l-127.496789 8.901741c-12.58769 0.87902-27.120684 11.340279-32.458249 23.364127l-56.469106 127.234823c-0.305969-46.435589-16.144702-88.9908-42.343387-122.203226-3.686972-4.676509-7.581676-9.168824-11.665691-13.461593-3.203972-3.365654-6.531763-6.614651-9.961886-9.727549-32.317033-29.30749-74.40971-47.028083-120.442116-47.028083-1.956561 0-3.903913 0.028653-5.846148 0.092098-31.79003 1.043772-61.548798 10.538007-87.317695 26.41358-13.631462 8.401344-26.140357 18.585287-37.243229 30.249955-4.084015 4.29277-7.978718 8.785084-11.664667 13.461593-26.451442 33.537837-42.35055 76.598562-42.35055 123.5632 0 25.51921 6.506181 52.054563 17.07898 78.322833 17.027815 42.302455 44.586474 83.916225 72.475662 119.479185 3.37998 4.312212 6.765077 8.537444 10.135848 12.655228 14.465456 17.696034 28.686343 33.576723 41.219797 46.891983 25.14468 26.709315 43.512003 43.10882 43.512003 43.10882s0.189312-0.164752 0.549515-0.49528c4.559852-4.121877 36.780695-33.634028 73.009827-76.126818 3.689019-4.327562 7.424086-8.7902 11.168364-13.378705 3.374864-4.117784 6.760984-8.343015 10.138918-12.655228 17.60189-22.446221 35.06768-47.301306 49.841152-73.218582l2.175549 27.850301c-4.341888 5.095042-7.008624 11.811-7.008624 19.202341l0 114.613364c0 15.919575 12.276604 28.827559 27.41949 28.827559l18.464537 0c15.139815 0 27.41642-12.907984 27.41642-28.827559l0-21.042245L885.409037 715.084325l0 21.042245c0 15.919575 12.266371 28.827559 27.418466 28.827559l18.458397 0c15.142885 0 27.41949-12.907984 27.41949-28.827559L958.70539 621.50809C958.70539 611.980086 954.290847 603.559299 947.51656 598.309738L947.51656 598.309738zM246.80764 607.172593c-87.569428 0-158.557202-74.640977-158.557202-166.716023s70.987774-166.716023 158.557202-166.716023c87.573521 0 158.558226 74.640977 158.558226 166.716023S334.381162 607.172593 246.80764 607.172593L246.80764 607.172593zM516.210393 550.689161l-70.058612-3.66139c-12.599969-0.655939-20.691251-11.174504-18.069541-23.484877 2.628874-12.310374 10.834766-26.175149 18.327414-30.977525 7.494695-4.793166 23.195282-5.02648 35.06461-0.51984l24.575722 9.347902c11.864212 4.511757 24.053835 17.642822 27.229155 29.327956C536.455483 542.404474 528.816502 551.349193 516.210393 550.689161L516.210393 550.689161zM770.087545 634.993219c-3.093455 12.515035-11.062963 26.049283-17.807574 30.221302-6.750751 4.170996-22.446221 7.556093-35.063587 7.556093l-93.536326 0c-12.621459 0-28.316929-3.385097-35.062564-7.556093-6.745634-4.172019-14.719236-17.702174-17.812691-30.221302-3.084245-12.519128 4.637624-22.668279 17.253966-22.668279l164.773787 0C765.444804 612.32494 773.174859 622.474091 770.087545 634.993219L770.087545 634.993219zM567.62846 430.986895c-12.616342 0-32.993438-1.393743-45.503357-3.112897l-39.486316-5.429663c-12.508895-1.724271-18.255783-12.830213-12.824073-24.805966l27.770484-61.324694c5.425569-11.980869 20.057825-21.693068 32.674167-21.693068l280.372595 0c12.621459 0 27.248597 9.713222 32.67826 21.693068l27.773554 61.324694c5.434779 11.975752-0.316202 23.081695-12.830213 24.805966l-39.486316 5.429663c-12.509918 1.719154-32.881898 3.112897-45.49824 3.112897L567.62846 430.986895 567.62846 430.986895zM894.737496 547.027771l-70.056566 3.66139c-12.602016 0.661056-20.246113-8.284687-17.069771-19.968797 3.176342-11.680017 15.364943-24.816199 27.233248-29.327956l24.573675-9.342786c11.873422-4.511757 27.567869-4.278443 35.062564 0.514723 7.492648 4.802376 15.700587 18.672268 18.327414 30.982642C915.430794 535.853267 907.345652 546.371832 894.737496 547.027771L894.737496 547.027771zM165.090501 460.090746l23.980157 0 0 31.444153c-5.900384 3.399423-13.05841 5.099135-21.478174 5.099135-12.233626 0-21.936615-4.050246-29.123294-12.154831-7.182586-8.104585-10.776438-19.434631-10.776438-33.994232 0-14.155395 3.89982-25.563212 11.703553-34.217313 7.804756-8.654101 17.72571-12.980639 29.764907-12.980639 12.228509 0 22.765493 2.923586 31.612998 8.779967l0-16.210193c-8.27957-4.001127-18.385742-6.001691-30.331819-6.001691-16.890692 0-30.736025 5.77861-41.535999 17.331737-10.800997 11.558244-16.19996 26.316366-16.19996 44.275389 0 17.759479 4.889357 31.954783 14.665001 42.584887 9.776667 10.630105 22.660092 15.948227 38.646182 15.948227 13.894452 0 26.360368-3.302209 37.398772-9.906627l0-53.278437-38.325887 0L165.090501 460.090746 165.090501 460.090746zM287.737842 400.88225c-6.590092-6.05081-15.85613-9.076726-27.799136-9.076726l-31.401174 0 0 116.235304 14.273075 0 0-43.449581 14.34573 0c11.562337 0.403183 21.197788-2.937912 28.904307-10.018168 7.707542-7.076162 11.56336-16.321734 11.56336-27.724435C297.625026 415.592276 294.325887 406.938176 287.737842 400.88225L287.737842 400.88225zM275.85828 445.195501c-4.520967 4.128017-11.135618 6.192026-19.84293 6.192026l-13.204743 0 0-46.37726 14.559601 0c16.841573 0 25.266453 7.479345 25.266453 22.435988C282.637684 435.152774 280.375154 441.068508 275.85828 445.195501L275.85828 445.195501zM334.268598 407.598208c4.260024-2.976798 9.767458-4.462638 16.521279-4.462638 10.184967 0 18.60473 2.428306 25.269523 7.278777l0-16.360619c-5.139044-2.797719-13.20372-4.200672-24.194028-4.200672-11.234879 0-20.533662 2.826372-27.906583 8.479115-7.375991 5.652743-11.06194 13.30605-11.06194 22.960944 0 6.405897 1.75804 12.097526 5.279237 17.074887s10.824533 10.368138 21.912056 16.171308c7.995091 4.152577 13.443174 7.230682 16.3422 9.227152 2.901073 2.000564 5.184069 4.303003 6.850012 6.906294 1.666966 2.602268 2.501984 5.525853 2.501984 8.779967 0 11.606339-7.759731 17.409508-23.266913 17.409508-5.095042 0-10.470469-1.000793-16.131399-3.001357-5.662977-2.001587-10.184967-4.555759-13.55983-7.658424l0 17.113773c2.662643 1.898233 6.91141 3.486404 12.738116 4.76349 5.827729 1.277086 10.930957 1.913583 15.307637 1.913583 12.514012 0 22.296819-2.725064 29.338189-8.178263 7.04137-5.454222 10.562567-13.281491 10.562567-23.489994 0-6.80294-2.168386-12.927427-6.499018-18.385742-4.325515-5.448082-11.917424-10.902304-22.765493-16.355503-9.848299-5.103228-16.251126-9.129938-19.198248-12.082176-2.952238-2.952238-4.423753-6.779404-4.423753-11.480472C327.884191 414.718373 330.011644 410.575006 334.268598 407.598208L334.268598 407.598208zM334.268598 407.598208" fill="#E8442E" p-id="30697"></path></svg>