<?xml version="1.0" standalone="no"?><!DOCTYPE svg PUBLIC "-//W3C//DTD SVG 1.1//EN" "http://www.w3.org/Graphics/SVG/1.1/DTD/svg11.dtd"><svg t="1745858263208" class="icon" viewBox="0 0 1024 1024" version="1.1" xmlns="http://www.w3.org/2000/svg" p-id="6301" xmlns:xlink="http://www.w3.org/1999/xlink" width="64" height="64"><path d="M676.352 841.557333H358.4a34.133333 34.133333 0 1 1 0-68.266666h249.685333v-102.4H94.378667v102.4h89.6a34.133333 34.133333 0 1 1 0 68.266666H26.112V666.624a64 64 0 0 1 64-64h522.24a64 64 0 0 1 64 64z" p-id="6302" fill="#20BBFF"></path><path d="M975.701333 841.557333h-150.528a34.133333 34.133333 0 1 1 0-68.266666h82.261334V394.069333a166.912 166.912 0 0 0-166.912-166.912h-31.914667a32.256 32.256 0 0 0-32.256 32.085334v535.381333a31.744 31.744 0 0 1 2.56 12.8 34.133333 34.133333 0 0 1-34.133333 34.133333h-36.693334V259.242667a100.522667 100.522667 0 0 1 100.522667-100.352h31.914667a235.349333 235.349333 0 0 1 235.178666 235.178666z" p-id="6303" fill="#20BBFF"></path><path d="M778.922667 473.770667a34.133333 34.133333 0 0 1-34.133334-34.133334V202.752a34.133333 34.133333 0 0 1 68.266667 0v236.885333a34.133333 34.133333 0 0 1-34.133333 34.133334z" p-id="6304" fill="#20BBFF"></path><path d="M924.501333 475.648h-145.578666a34.133333 34.133333 0 0 1 0-68.266667h145.578666a34.133333 34.133333 0 0 1 0 68.266667zM273.066667 951.637333a113.664 113.664 0 1 1 113.664-113.664A113.834667 113.834667 0 0 1 273.066667 951.637333z m0-159.061333a45.397333 45.397333 0 1 0 45.397333 45.397333A45.568 45.568 0 0 0 273.066667 792.576zM738.304 951.637333a113.664 113.664 0 1 1 113.493333-113.664 113.834667 113.834667 0 0 1-113.493333 113.664z m0-159.061333a45.397333 45.397333 0 1 0 45.226667 45.397333 45.397333 45.397333 0 0 0-45.226667-45.397333zM338.944 662.528h-162.474667A47.616 47.616 0 0 1 129.024 614.4v-168.96a47.616 47.616 0 0 1 47.445333-47.445333h162.474667a47.616 47.616 0 0 1 47.445333 47.445333V614.4a47.616 47.616 0 0 1-47.445333 48.128z m-141.653333-68.266667h120.832v-128h-120.832z" p-id="6305" fill="#20BBFF"></path><path d="M451.925333 435.2H290.133333a47.445333 47.445333 0 0 1-47.616-47.445333v-169.472A47.616 47.616 0 0 1 290.133333 170.666667h162.304a47.616 47.616 0 0 1 47.445334 47.445333v169.472a47.445333 47.445333 0 0 1-47.957334 47.616z m-141.653333-68.266667h120.832V238.933333h-120.832z" p-id="6306" fill="#20BBFF"></path><path d="M535.381333 662.528h-162.304A47.445333 47.445333 0 0 1 325.632 614.4v-168.96a47.445333 47.445333 0 0 1 47.445333-47.445333h162.304a47.616 47.616 0 0 1 47.616 47.445333V614.4a47.616 47.616 0 0 1-47.616 48.128z m-141.482666-68.266667h120.832v-128h-120.832z" p-id="6307" fill="#20BBFF"></path></svg>