<?xml version="1.0" standalone="no"?><!DOCTYPE svg PUBLIC "-//W3C//DTD SVG 1.1//EN" "http://www.w3.org/Graphics/SVG/1.1/DTD/svg11.dtd"><svg t="1749571714022" class="icon" viewBox="0 0 1074 1024" version="1.1" xmlns="http://www.w3.org/2000/svg" p-id="12989" xmlns:xlink="http://www.w3.org/1999/xlink" width="209.765625" height="200"><path d="M1073.556673 76.447113" fill="#ffffff" p-id="12990"></path><path d="M464.689485 188.656731" fill="#ffffff" p-id="12991"></path><path d="M305.748542 338.983481" fill="#ffffff" p-id="12992"></path><path d="M68.341504 779.715321c8.689916 11.256368 22.350031 20.052708 36.168758 23.284309 9.866718 2.313695 19.22997-3.968381 24.718985-12.487406l12.361539-19.172665 34.612309 22.315238c-3.228531 6.704702-1.077541 14.875802 5.330402 19.026332 6.412037 4.111644 14.7264 2.681062 19.526729-3.013637l0.14224 0.095167 0.910743-1.397836c0.031722-0.070608 0.086981-0.106424 0.12689-0.162706l75.086116-116.455315c0.023536-0.034792 0.035816-0.070608 0.063445-0.12689l0.954745-1.469468-0.154519-0.110517c3.192715-6.722098 1.073448-14.875802-5.334495-18.98847-6.42841-4.15053-14.749936-2.719948-19.530822 2.955308l-34.608216-22.294772 28.405957-44.073798c7.40669 4.222161 16.864086 2.02103 21.530362-5.200442l16.947997-26.279526c4.666276-7.256264 2.752694-16.785292-4.146437-21.779026l45.523823-70.614268c72.091922 31.019481 149.725046 17.684778 184.309726-35.994796 0.313132-0.479931 0.522909-0.989537 0.823761-1.469468l-60.34846-23.945365c-28.571732 23.233144-79.727833 21.319561-124.004245-7.236821-51.579749-33.241079-74.231655-89.934289-50.606585-126.625956 22.180162-34.359552 82.318844-43.968397 100.906178 32.302707 1.952468 8.063653 10.231015 12.947893 18.017352 10.174734 43.989887-15.754822 67.232241 1.358951 74.698283 25.249057l57.049321 22.627347c-3.599991-49.402153-35.602869-101.777011-88.904843-136.15703-79.831186-51.480488-176.843684-43.084261-216.696344 18.750039-34.885532 54.118572-14.412244 131.217531 44.787042 184.108135l-45.329395 70.317509c-7.355525-3.984754-16.619516-1.762133-21.236674 5.382591l-16.931624 26.278503c-4.609994 7.125281-2.812045 16.491603 3.87833 21.546735L69.470211 751.999073C63.980173 760.52219 62.158688 771.668041 68.341504 779.715321z" p-id="12993" fill="#ffffff"></path><path d="M896.913557 482.995409c-0.185218-0.459464-0.444115-0.868787-0.62524-1.327228l8.903787 2.039449c19.838837 4.575202 39.633672-7.91425 44.152593-27.78481 4.519943-19.851117-7.924483-39.61423-27.78788-44.152593L645.276423 348.930017c-15.058974-3.3984-30.588669 2.863211-39.023782 15.739473l-23.565718 35.939537 36.449143 14.452153 33.55114 13.31219 3.900843 1.544169c1.890047-0.569982 3.762697-1.175779 5.668093-1.488911 11.550057-1.889023 23.185049 0.902556 32.493042 7.402597 6.800893 4.736884 12.373819 11.386328 15.70161 19.633153 9.112542 22.663162-1.838881 48.411593-24.49488 57.555857-20.898982 8.428973-44.295855-0.384763-54.984289-19.576871l-16.623609-6.595208-34.401508-13.643742-35.586496-14.119579-93.447299 142.544507c-11.17041 17.026792-6.408967 39.887452 10.621918 51.056839 6.237051 4.096295 13.251815 6.040576 20.186761 6.040576 12.016685 0 23.799032-5.859451 30.877241-16.655332l1.454118-2.221598 58.625212 146.275481c8.883321 22.036899 33.965579 32.67212 56.004525 23.799032l99.788727-40.255843-55.843866-139.02024c-8.674567-21.525246 8.775874-48.850591 38.972617-61.009516 30.209022-12.195763 61.734016-4.629437 70.436212 16.875343l55.82647 139.039683 94.686523-38.195927c22.049179-8.906857 32.713053-33.974789 23.804149-55.992245L896.913557 482.995409z" p-id="12994" fill="#ffffff"></path><path d="M505.195014 390.635885c-8.538467-3.176342-18.027585 1.176802-21.200858 9.716292-3.164063 8.558933 1.188058 18.052145 9.723455 21.228487l26.033933 9.660011 34.461883 12.801561 36.172851 13.441127 17.850553 6.631024c7.398504 2.736321 15.482623-0.167822 19.586081-6.53995 0.63752-0.989537 1.200338-2.039449 1.623987-3.195785 0.230244-0.62217 0.340761-1.267876 0.49835-1.889023 1.924839-8.02886-2.308579-16.381086-10.234085-19.320021l-10.578939-3.933589-36.359093-13.497409-45.044916-16.72594L505.195014 390.635885z" p-id="12995" fill="#ffffff"></path></svg>