<?xml version="1.0" standalone="no"?><!DOCTYPE svg PUBLIC "-//W3C//DTD SVG 1.1//EN" "http://www.w3.org/Graphics/SVG/1.1/DTD/svg11.dtd"><svg t="1738427922134" class="icon" viewBox="0 0 1024 1024" version="1.1" xmlns="http://www.w3.org/2000/svg" p-id="5272" xmlns:xlink="http://www.w3.org/1999/xlink" width="64" height="64"><path d="M360 848.458h40V559.542H360c-22.092 0-40-17.908-40-40V424c0-22.092 17.908-40 40-40h224c22.092 0 40 17.908 40 40v424.458h40c22.092 0 40 17.908 40 40V984c0 22.092-17.908 40-40 40H360c-22.092 0-40-17.908-40-40v-95.542c0-22.092 17.908-40 40-40zM512 0C432.47 0 368 64.47 368 144s64.47 144 144 144 144-64.47 144-144S591.528 0 512 0z" p-id="5273" fill="#20BBFF"></path></svg>