<?xml version="1.0" standalone="no"?><!DOCTYPE svg PUBLIC "-//W3C//DTD SVG 1.1//EN" "http://www.w3.org/Graphics/SVG/1.1/DTD/svg11.dtd"><svg t="1743155308800" class="icon" viewBox="0 0 1024 1024" version="1.1" xmlns="http://www.w3.org/2000/svg" p-id="2617" xmlns:xlink="http://www.w3.org/1999/xlink" width="64" height="64"><path d="M512.327324 1024a511.992645 511.992645 0 1 1 511.672849-511.672849 512.31244 512.31244 0 0 1-511.672849 511.672849z m0-944.675998A433.003149 433.003149 0 1 0 945.266513 512.327151a433.195026 433.195026 0 0 0-432.939189-433.003149z" fill="#20BBFF" p-id="2618"></path><path d="M447.984463 256.490726m63.959106 0l0 0q63.959106 0 63.959106 63.959106l0 191.877319q0 63.959106-63.959106 63.959106l0 0q-63.959106 0-63.959106-63.959106l0-191.877319q0-63.959106 63.959106-63.959106Z" fill="#20BBFF" p-id="2619"></path><path d="M447.984463 640.245363m63.959106 0l0 0q63.959106 0 63.959106 63.959106l0 0q0 63.959106-63.959106 63.959106l0 0q-63.959106 0-63.959106-63.959106l0 0q0-63.959106 63.959106-63.959106Z" fill="#20BBFF" p-id="2620"></path></svg>