<?xml version="1.0" standalone="no"?><!DOCTYPE svg PUBLIC "-//W3C//DTD SVG 1.1//EN" "http://www.w3.org/Graphics/SVG/1.1/DTD/svg11.dtd"><svg t="1742843749072" class="icon" viewBox="0 0 1024 1024" version="1.1" xmlns="http://www.w3.org/2000/svg" p-id="3491" xmlns:xlink="http://www.w3.org/1999/xlink" width="64" height="64"><path d="M844.603 674.443h-660c-66.152 0-120-53.818-120-120v-367.5c0-66.182 53.848-120 120-120h660c66.152 0 120 53.818 120 120v367.5c0 66.181-53.848 120-120 120z m-660-547.5c-33.105 0-60 26.924-60 60v367.5c0 33.076 26.895 60 60 60h660c33.105 0 60-26.924 60-60v-367.5c0-33.076-26.895-60-60-60h-660zM874.603 812.431h-720c-16.582 0-30-13.418-30-30s13.418-30 30-30h720c16.582 0 30 13.418 30 30s-13.418 30-30 30z" fill="#ffffff" p-id="3492"></path><path d="M417.044 284.443h-180c-16.582 0-30-13.418-30-30s13.418-30 30-30h180c16.582 0 30 13.418 30 30s-13.418 30-30 30zM874.603 950.829h-720c-16.582 0-30-13.418-30-30s13.418-30 30-30h720c16.582 0 30 13.418 30 30s-13.418 30-30 30z" fill="#ffffff" p-id="3493"></path></svg>