<?xml version="1.0" standalone="no"?><!DOCTYPE svg PUBLIC "-//W3C//DTD SVG 1.1//EN" "http://www.w3.org/Graphics/SVG/1.1/DTD/svg11.dtd"><svg t="1730489263492" class="icon" viewBox="0 0 1024 1024" version="1.1" xmlns="http://www.w3.org/2000/svg" p-id="3800" xmlns:xlink="http://www.w3.org/1999/xlink" width="64" height="64"><path d="M768.64 541.952c-49.44-31.072-115.376-25.248-158.416 17.792L587.6 582.4V277.92c0-35.2-28.8-64-64-64a64.16 64.16 0 0 0-63.968 64v140.8a63.408 63.408 0 0 0-49.248-23.68 63.36 63.36 0 0 0-37.088 12.064l-137.824 79.776a63.728 63.728 0 0 0-31.872 55.136v105.248c0 114.432 92.736 207.168 207.168 207.168 55.424 0 105.632-21.888 142.784-57.344l0.032 0.288L772.8 578.144a23.264 23.264 0 0 0-4.16-36.192zM747.904 385.968l107.344-107.36-107.36-107.392v75.216h-96.272v64h96.288zM299.344 310.432h96.288v-64h-96.288v-75.2L192 278.576l107.344 107.376z" fill="#000000" p-id="3801"></path></svg>