<?xml version="1.0" encoding="utf-8"?>
<!-- Generator: Adobe Illustrator 28.4.1, SVG Export Plug-In . SVG Version: 6.00 Build 0)  -->
<svg version="1.1" id="Слой_1" xmlns="http://www.w3.org/2000/svg" xmlns:xlink="http://www.w3.org/1999/xlink" x="0px" y="0px"
	 viewBox="0 0 80 40" style="enable-background:new 0 0 80 40;" xml:space="preserve">
<style type="text/css">
	.st0{fill:#002395;}
</style>
<path class="st0" d="M5.5,1H0v30.4h5.5V1z"/>
<path class="st0" d="M15.9,9.8h-5.5v21.6h5.5V9.8z"/>
<path class="st0" d="M16.5,3.4c0,0.7-0.1,1.3-0.5,1.9c-0.3,0.6-0.9,1-1.5,1.3c-0.6,0.3-1.3,0.4-2,0.3c-0.7-0.1-1.3-0.4-1.8-0.9
	S10,5,9.9,4.3C9.7,3.7,9.8,3,10,2.4c0.2-0.6,0.7-1.2,1.2-1.5c0.6-0.4,1.2-0.6,1.9-0.6c0.9,0,1.7,0.3,2.3,0.9
	C16.1,1.7,16.5,2.6,16.5,3.4z"/>
<path class="st0" d="M66.3,28.4c0,0.8-0.2,1.5-0.5,2.1c-0.4,0.6-1,1.2-1.6,1.5c-0.7,0.3-1.4,0.4-2.2,0.3c-0.7-0.1-1.4-0.5-2-1
	c-0.5-0.5-0.9-1.2-1.1-1.9c-0.2-0.7-0.1-1.5,0.2-2.2c0.3-0.7,0.8-1.3,1.4-1.7c0.6-0.4,1.4-0.6,2.1-0.6c1,0,1.9,0.3,2.6,1
	C65.9,26.5,66.3,27.4,66.3,28.4z"/>
<path class="st0" d="M66.3,12.9c0,0.8-0.2,1.5-0.5,2.1c-0.4,0.6-1,1.2-1.6,1.5c-0.7,0.3-1.4,0.4-2.2,0.3c-0.7-0.1-1.4-0.5-2-1
	c-0.5-0.5-0.9-1.2-1.1-1.9c-0.2-0.7-0.1-1.5,0.2-2.2c0.3-0.7,0.8-1.3,1.4-1.7c0.6-0.4,1.4-0.6,2.1-0.6c1,0,1.9,0.3,2.6,1
	C65.9,11,66.3,11.9,66.3,12.9z"/>
<path class="st0" d="M71,0l-3.1,2.2C71.3,7.5,73,13.7,72.9,20c0,7.1-1.7,12.2-4.9,17.9L71,40c4.8-5.5,7.5-12.6,7.5-20S75.9,5.5,71,0
	z"/>
<path class="st0" d="M30.4,5.3c0.9,0,1.8,0.1,2.7,0.4V1.5c-1.3-0.4-2.7-0.6-4.1-0.6c-2.3,0-4.2,0.6-5.4,1.7
	c-1.2,1.2-1.9,2.7-1.9,5.5v1.6h-3.1v4.1h3.1v17.5h5.5V14h5.9V9.8H27V8.7C27,6.4,28.4,5.3,30.4,5.3z"/>
<path class="st0" d="M44.2,9.3c-6.9,0-11.3,4.8-11.3,11.1c0,7.2,5.2,11.5,11.9,11.5c1.8,0.1,3.6-0.3,5.2-1c1.6-0.7,3.1-1.8,4.3-3.1
	l-2.9-2.5c-1.7,1.5-4,2.4-6.3,2.4h-0.2c-3.4,0-6.1-1.9-6.6-5.5h16.6C55.5,17,53.8,9.3,44.2,9.3z M38.4,18.6c0.5-3.3,2.8-5,5.8-5
	c3.3,0,5.5,1.8,5.6,5H38.4z"/>
</svg>
