<svg xmlns="http://www.w3.org/2000/svg" width="87.062" height="61" viewBox="0 0 87.062 61">
  <defs>
    <style>
      .cls-1 {
        fill: #52ae26;
        fill-rule: evenodd;
      }
    </style>
  </defs>
  <path id="bgsh3.svg" class="cls-1" d="M792.651,654.082a5.753,5.753,0,0,0-1.281-2.645,1.838,1.838,0,0,0-3.274.972c-0.008.094-.016,0.188-0.026,0.281l0-.006a6.465,6.465,0,0,0,.2,2.69c0.228,1,.417,2.022.7,3.006,0.762,2.659,5.028,1.4,4.463-1.318C793.23,656.058,792.922,655.069,792.651,654.082Zm4.157-4.5a1.176,1.176,0,0,0-1.715.943c-0.494,1.062.14,2.408,0.4,3.492,0.323,1.345.449,2.8,0.883,4.109a1.832,1.832,0,0,0,3.526-.519,13.871,13.871,0,0,0-.955-4.61C798.563,651.76,798.193,649.843,796.808,649.584Zm6.734,8.859c0.174,1.379.9,2.524,0.987,3.956a5.075,5.075,0,0,1-.82,2.9,9.118,9.118,0,0,1-5.648,3.647,11.713,11.713,0,0,1-7.3-.465c-2.67-1.109-3.828-3.324-4.836-6.012-0.367-.977-1.574-0.464-1.569.464,0.04,7.388,8.792,9.7,14.285,8.482a11.3,11.3,0,0,0,7.362-4.867c1.552-2.6,1.748-7.124-.541-9.293A1.221,1.221,0,0,0,803.542,658.443Zm6.436-17.883c-5-3.912-11.242-6.266-17.541-5.382-0.037,0-.074.014-0.111,0.02l-0.062,0a22.294,22.294,0,0,0-10.313,2.735A25.273,25.273,0,0,0,786.6,684.67c10.621,3.327,23.717.619,30.691-9.275C825.633,663.557,820.112,648.5,809.978,640.56Zm-38.285,26.63a23.688,23.688,0,0,1,5.19-22.533,21.722,21.722,0,0,1,5.256-4.278,28.028,28.028,0,0,0-4.278,5.016c-6.345,9.482-7.47,23.777.621,32.123A21.913,21.913,0,0,1,771.693,667.19Zm42.4,8.342a24.172,24.172,0,0,1-14.993,7.759,26.9,26.9,0,0,1-3.973.254c7.777-.329,15.691-3.958,20.275-10.026,0.168-.223-0.124-0.553-0.33-0.355a29.61,29.61,0,0,1-22.365,8.388c-6.766-.455-13.239-3.852-16.238-10.493-5.167-11.442,1.27-26.932,11.812-32.316a16.386,16.386,0,0,1,2.178-.921c3.38,0.921,6.752,1.667,9.961,3.327a41.76,41.76,0,0,1,11.135,8.758c0.068,0.072.185-.052,0.121-0.127a44.331,44.331,0,0,0-10.411-9.436,32.59,32.59,0,0,0-6.962-3.268,25.837,25.837,0,0,1,3.643.2,19.2,19.2,0,0,1,4.983,1.408,0.1,0.1,0,0,0,.138-0.092,29.336,29.336,0,0,1,15.8,18.362C820.675,663.645,818.507,670.478,814.092,675.532Zm18.034-17.963c-0.274-1.257-1.976-2.122-2.844-.794-1.131,1.729-1.358,3.81-1.791,5.8-0.438,2.022-.874,4.053-1.441,6.044a28.615,28.615,0,0,1-6.038,11.087c-1.872,2.158,1.636,4.9,3.477,2.729a32.21,32.21,0,0,0,6.3-11.5,57.977,57.977,0,0,0,1.519-6.428c0.415-2.217,1.209-4.7.855-6.95Zm4.325,7.148a34.166,34.166,0,0,1-3.489,9.592,39.677,39.677,0,0,1-2.692,4.338c-0.776,1.12-1.627,2.234-1.291,3.637a0.869,0.869,0,0,0,.957.731c2.909-.387,4.325-5.428,5.232-7.761A28.505,28.505,0,0,0,837,664.717C837,664.392,836.5,664.425,836.451,664.717ZM772.358,688.43c-7.41-6.118-12.331-13.686-13.319-23.435a0.9,0.9,0,0,0-1.776,0c-1.935,9.743,5.322,20.75,12.917,26.236A1.776,1.776,0,0,0,772.358,688.43Zm-15.959.04a32.8,32.8,0,0,1-5.191-8.121,0.667,0.667,0,0,0-1.23.515,44.473,44.473,0,0,0,3.705,9.179c1.194,2.173,3.261,6.263,6.154,5.941a1.305,1.305,0,0,0,1.122-1.128C761.118,692.283,757.947,690.266,756.4,688.47Z" transform="translate(-749.938 -635)"/>
</svg>

