<?xml version="1.0" standalone="no"?><!DOCTYPE svg PUBLIC "-//W3C//DTD SVG 1.1//EN" "http://www.w3.org/Graphics/SVG/1.1/DTD/svg11.dtd"><svg t="1741090350173" class="icon" viewBox="0 0 1024 1024" version="1.1" xmlns="http://www.w3.org/2000/svg" p-id="5832" xmlns:xlink="http://www.w3.org/1999/xlink" width="64" height="64"><path d="M48 170.666667a5.333333 5.333333 0 0 0-5.333333 5.333333v672a5.333333 5.333333 0 0 0 5.333333 5.333333h928a5.333333 5.333333 0 0 0 5.333333-5.333333V176a5.333333 5.333333 0 0 0-5.333333-5.333333z m762.666667 84.16l-295.466667 240a5.333333 5.333333 0 0 1-6.72 0L213.333333 254.826667a5.333333 5.333333 0 0 1 3.2-9.493334h590.933334a5.333333 5.333333 0 0 1 3.2 9.493334zM901.333333 778.666667H122.666667a5.333333 5.333333 0 0 1-5.333334-5.333334V284.426667a5.333333 5.333333 0 0 1 8.746667-4.16l382.56 310.826666a5.333333 5.333333 0 0 0 6.72 0l382.56-310.826666a5.333333 5.333333 0 0 1 8.746667 4.16V773.333333a5.333333 5.333333 0 0 1-5.333334 5.333334z" p-id="5833" fill="#1283CF"></path></svg>