<?xml version="1.0" standalone="no"?><!DOCTYPE svg PUBLIC "-//W3C//DTD SVG 1.1//EN" "http://www.w3.org/Graphics/SVG/1.1/DTD/svg11.dtd"><svg t="1742806887277" class="icon" viewBox="0 0 1024 1024" version="1.1" xmlns="http://www.w3.org/2000/svg" p-id="10534" xmlns:xlink="http://www.w3.org/1999/xlink" width="64" height="64"><path d="M920.4 772.8l-3.6-1c-53-14.2-70.8-27.8-94.4-36.8-49.6-19-77.4-34.6-93-46.6l7.4-4.8-23.6-92.2c43-59 73.6-131.8 73.8-207.2h22c11.8 0 16.8-8.4 11.4-18.8 0 0-6.6-12.2-24.6-28.4v-31.4c0-149-117.2-271-261-283v-1c0-11.8-9.6-21.4-21.4-21.4S492 9.8 492 21.6v0.8c-145.4 10.2-264.2 133.2-264.2 283.2v31.4c-18 16.2-24.6 28.4-24.6 28.4-5.6 10.4-0.4 18.8 11.4 18.8h22c0.2 75.4 30.8 148.2 73.8 207l-23.6 92.4 7.4 4.8c-15.6 12-43.4 27.8-93 46.6-23.6 9-41.4 22.6-94.4 36.8l-3.6 1c-48.2 16-80.6 60.6-80.6 111V1024H1001v-140.2c0-50.4-32.4-95.2-80.6-111z m-454-55.2l-16.8 20.2-113.6-73.6 5.8-23 25.4 13.4c32.6 29.6 67.2 51.6 99.2 63zM480 768l32-38.4 32 38.4h-64z m210.8 42.6l53.4 42.6H283.2l53.4-42.6h354.2z m-133.2-93c32.2-11.4 66.8-33.4 99-63l25.4-13.4 5.8 23-113.6 73.6-16.6-20.2zM296.2 341.4c22.4-11.8 48.8-21.4 78.6-28.4 40-9.4 86.2-14.2 137.2-14.2 50.8 0 97 4.8 137 14.2 29.8 7 56.2 16.6 78.6 28.4H296.2z m-6.2-129.8c12.4-28.8 30-54.6 52.4-76.8 22.4-22.2 48.2-39.6 77-51.8C448.8 70.4 480 64 512 64c32 0 63.2 6.4 92.8 19 28.8 12.2 54.6 29.6 77 51.8 22.4 22.2 40 48 52.4 76.8 12.8 29.8 19.2 61.2 19.2 93.6v1.4c-46.6-26-122-50.6-241.2-50.6-119.2 0-194.8 24.8-241.2 50.6v-1.4c-0.2-32.4 6.2-64 19-93.6zM744.4 384c-0.4 70-32.2 146.2-87.6 209.6-24.4 28-52 51.2-79.4 67.6-24.6 14.6-47.8 22.6-65.4 22.6-17.6 0-41-8-65.4-22.6-27.4-16.4-54.8-39.6-79.4-67.6-55.4-63.2-87.4-139.6-87.6-209.6h464.8zM65.6 981.4v-97.6c0-31.8 20.4-60 50.6-70.4l2.4-0.8c39.8-10.8 62-21.2 79.6-29.8 6.8-3.2 12.8-6.2 18.6-8.4 37.6-14.2 86.2-35 115-62.4l86 55.6h-96.2l-106.6 85.2h-0.2v128H65.6z m446.4 0H257.6V896h512v85.4H512z m446.4 0h-146.2v-38.2h0.2v-89.8L705.8 768h-99.6l86-55.6c28.8 27.2 77.6 48 115.2 62.4 5.8 2.2 11.6 5 18.4 8.2 17.8 8.6 39.8 19 79.6 29.8l2.4 0.8c30.4 10.4 50.6 38.6 50.6 70.4v97.4z" fill="#20BBFF" p-id="10535"></path><path d="M513.6 234.6c35.4 0 64-28.6 64-64s-28.6-64-64-64-64 28.6-64 64 28.6 64 64 64z m0-85.2c11.8 0 21.4 9.6 21.4 21.4S525.4 192 513.6 192c-11.8 0-21.4-9.6-21.4-21.4s9.6-21.2 21.4-21.2z" fill="#20BBFF" p-id="10536"></path></svg>