<?xml version="1.0" standalone="no"?><!DOCTYPE svg PUBLIC "-//W3C//DTD SVG 1.1//EN" "http://www.w3.org/Graphics/SVG/1.1/DTD/svg11.dtd"><svg t="1749802984198" class="icon" viewBox="0 0 1024 1024" version="1.1" xmlns="http://www.w3.org/2000/svg" p-id="5438" xmlns:xlink="http://www.w3.org/1999/xlink" width="200" height="200"><path d="M808.813714 58.368a200.192 200.192 0 0 1 0 282.770286l-32.329143 32.329143a199.168 199.168 0 0 1 172.763429 49.517714 200.118857 200.118857 0 0 1 11.264 282.477714l-185.782857 222.134857a208.384 208.384 0 0 1-370.029714-47.981714 208.822857 208.822857 0 0 1-196.315429 138.386286A208.676571 208.676571 0 0 1 0 809.545143a208.676571 208.676571 0 0 1 241.298286-205.750857A206.701714 206.701714 0 0 1 184.173714 460.8c0-89.746286 56.905143-166.4 136.630857-195.657143a30.72 30.72 0 0 1 5.266286-6.802286L526.116571 58.368a200.411429 200.411429 0 0 1 282.697143 0zM601.746286 679.862857a131.803429 131.803429 0 1 0 98.742857 218.989714 29.037714 29.037714 0 0 1 4.608-7.533714l8.045714-9.362286a131.876571 131.876571 0 0 0-111.396571-202.166857z m-393.362286-2.048a131.803429 131.803429 0 1 0 0 263.533714 131.803429 131.803429 0 0 0 0-263.533714z m514.633143-191.634286L614.546286 603.574857a208.822857 208.822857 0 0 1 191.561143 167.131429l96.841142-115.858286a123.904 123.904 0 0 0-5.705142-175.616 123.757714 123.757714 0 0 0-174.226286 6.948571z m-261.266286 171.154286l-10.093714 3.364572a207.798857 207.798857 0 0 1-91.940572 5.851428c20.260571 21.211429 35.913143 46.811429 45.714286 75.044572 11.629714-32.548571 31.158857-61.44 56.32-84.260572z m-69.193143-328.265143a131.657143 131.657143 0 0 0-93.184 224.914286 131.803429 131.803429 0 1 0 93.184-224.914286z m187.757715-216.502857L435.931429 256.950857a208.896 208.896 0 0 1 164.132571 184.539429l154.624-154.550857a123.318857 123.318857 0 0 0-174.372571-174.372572z" fill="#0AD2E9" p-id="5439"></path></svg>