<?xml version="1.0" standalone="no"?><!DOCTYPE svg PUBLIC "-//W3C//DTD SVG 1.1//EN" "http://www.w3.org/Graphics/SVG/1.1/DTD/svg11.dtd"><svg t="1749725323746" class="icon" viewBox="0 0 1024 1024" version="1.1" xmlns="http://www.w3.org/2000/svg" p-id="6837" xmlns:xlink="http://www.w3.org/1999/xlink" width="200" height="200"><path d="M857.6512 331.0592a95.9488 95.9488 0 0 0-191.232 0v361.6256h0.4096a94.976 94.976 0 0 0 25.1904 57.6512h-150.4256l94.3104-405.504v-30.72H166.3488v466.944h603.5968v-0.4096a95.5904 95.5904 0 0 0 87.3472-87.9616h0.3584V331.0592z m-347.5968 419.2768H437.2992l94.2592-405.504H604.16z m-82.8416-405.504h72.8064l-94.2592 405.504H332.8z m-125.7984 405.504H228.608l94.2592-405.504h72.8064z m-104.3456-405.504H291.328l-94.2592 405.504z m564.992 405.504a64.9216 64.9216 0 1 1 64.8704-64.8704 64.9728 64.9728 0 0 1-64.8704 64.8704z m64.8704-134.912a95.0784 95.0784 0 0 0-129.792 0V338.5344a64.9216 64.9216 0 0 1 129.792 0v276.8896z" fill="#134AA2" p-id="6838"></path><path d="M762.0608 661.76a23.7056 23.7056 0 1 0 23.7056 23.7056 23.7056 23.7056 0 0 0-23.7056-23.7056z" fill="#134AA2" p-id="6839"></path></svg>