<?xml version="1.0" standalone="no"?><!DOCTYPE svg PUBLIC "-//W3C//DTD SVG 1.1//EN" "http://www.w3.org/Graphics/SVG/1.1/DTD/svg11.dtd"><svg t="1729791293610" class="icon" viewBox="0 0 1024 1024" version="1.1" xmlns="http://www.w3.org/2000/svg" p-id="4138" xmlns:xlink="http://www.w3.org/1999/xlink" width="64" height="64"><path d="M659.273143 601.380571l-57.526857 91.062858a18.285714 18.285714 0 0 1-24.758857 5.924571 712.96 712.96 0 0 1-141.129143-110.226286 712.96 712.96 0 0 1-110.226286-141.129143 18.285714 18.285714 0 0 1 5.961143-24.758857l91.026286-57.526857-97.645715-195.218286-158.061714 63.232c30.134857 159.451429 101.814857 295.68 215.259429 409.088 113.371429 113.444571 249.636571 185.124571 409.088 215.259429l63.232-158.098286-195.218286-97.609143zM822.857143 226.998857l-188.196572 188.233143a18.285714 18.285714 0 0 1-25.892571-25.892571L797.001143 201.142857H694.857143a18.285714 18.285714 0 1 1 0-36.571428h146.285714a18.285714 18.285714 0 0 1 18.285714 18.285714v146.285714a18.285714 18.285714 0 1 1-36.571428 0V226.998857z m-361.142857 335.286857a682.130286 682.130286 0 0 0 118.747428 95.378286l56.722286-89.782857a18.285714 18.285714 0 0 1 23.661714-6.582857l225.060572 112.530285a18.285714 18.285714 0 0 1 8.777143 23.113143l-75.008 187.574857a18.285714 18.285714 0 0 1-20.077715 11.227429c-173.165714-29.732571-321.097143-105.837714-443.318857-228.022857C234.093714 545.499429 157.988571 397.531429 128.256 224.402286a18.285714 18.285714 0 0 1 11.227429-20.077715l187.574857-75.008a18.285714 18.285714 0 0 1 23.113143 8.777143l112.530285 225.060572a18.285714 18.285714 0 0 1-6.582857 23.661714l-89.782857 56.722286a682.130286 682.130286 0 0 0 95.378286 118.747428z" fill="#ffffff" p-id="4139"></path></svg>