<?xml version="1.0" standalone="no"?><!DOCTYPE svg PUBLIC "-//W3C//DTD SVG 1.1//EN" "http://www.w3.org/Graphics/SVG/1.1/DTD/svg11.dtd"><svg t="1740829078077" class="icon" viewBox="0 0 1024 1024" version="1.1" xmlns="http://www.w3.org/2000/svg" p-id="2619" xmlns:xlink="http://www.w3.org/1999/xlink" width="64" height="64"><path d="M511.746048 81.33632C-51.851264 81.33632 1.845248 401.08032 19.030016 439.248896c26.738688 51.009536 88.088576 57.049088 120.037376 0 61.81888-114.962432 198.223872-261.879808 372.678656-261.879808 174.508032 0 302.583808 135.759872 376.676352 263.002112 12.122112 27.215872 78.903296 56.68864 114.348032-1.122304 20.013056-27.549696 78.903296-357.097472-491.024384-357.912576z" fill="#2c2c2c" p-id="2620"></path><path d="M510.861312 218.185728c-234.932224 0-425.381888 369.72544-425.381888 555.03872 0 169.787392 72.978432 169.439232 425.381888 169.439232 352.37888 0 425.35936 0.346112 425.35936-169.439232 0-185.31328-190.44352-555.03872-425.35936-555.03872z m-1.243136 467.24096c-99.803136 0-180.719616-86.792192-180.719616-193.886208 0-107.081728 80.91648-193.892352 180.719616-193.892352 99.821568 0 180.731904 86.808576 180.731904 193.892352 0 107.091968-80.910336 193.886208-180.731904 193.886208z" fill="#2c2c2c" p-id="2621"></path></svg>