<?xml version="1.0" standalone="no"?><!DOCTYPE svg PUBLIC "-//W3C//DTD SVG 1.1//EN" "http://www.w3.org/Graphics/SVG/1.1/DTD/svg11.dtd"><svg t="1749838058407" class="icon" viewBox="0 0 1024 1024" version="1.1" xmlns="http://www.w3.org/2000/svg" p-id="2396" xmlns:xlink="http://www.w3.org/1999/xlink" width="200" height="200"><path d="M432 128A144.512 144.512 0 0 0 288 272c0 25.6 7.264 49.376 19.008 70.016-57.632 33.728-102.752 81.6-127.008 137.984H176a15.648 15.648 0 0 1-16-16c0-5.632 2.88-10.112 7.008-12.992l-37.024-52A79.2 79.2 0 0 0 96 464c0 39.36 29.376 71.616 67.008 78.016C161.376 553.216 160 564.384 160 576c0 79.744 42.368 148.864 104 200-7.744 32-3.872 66.112 20.992 91.008a98.016 98.016 0 0 0 138.016 0l12-12c24.992 4.608 50.112 8.992 76.992 8.992 26.88 0 52-4.384 76.992-8.992l12 12a98.016 98.016 0 0 0 138.016 0c24.352-24.384 28-57.504 20.992-89.024A294.656 294.656 0 0 0 824.992 704H896v-256h-72.992a286.592 286.592 0 0 0-41.024-52L800 296.992V256h-32s-76.864 1.28-142.016 50.016a499.456 499.456 0 0 0-52-12.032c1.28-7.104 2.016-14.496 2.016-21.984C576 192.864 511.136 128 432 128z m0 64C476.48 192 512 227.52 512 272c0 5.504-0.992 10.752-2.016 16-51.616 0.256-100.352 10.24-144.96 27.008A77.44 77.44 0 0 1 352 272C352 227.52 387.52 192 432 192z m296 134.016c0.512-0.128 0.512 0.096 0.992 0l-12 72.96-2.976 17.024 13.984 12a222.624 222.624 0 0 1 52 66.016l8.992 17.984H832v128h-43.008l-8.992 18.016c-15.616 30.848-40.256 57.984-72 80.96l-23.008 17.024 14.016 26.016c7.616 12.864 6.24 28.736-5.024 40a32.544 32.544 0 0 1-46.976 0l-23.008-23.04-12.992-11.968-17.024 4C568 796.992 540.384 800 512 800a366.4 366.4 0 0 1-82.016-8.992l-16.96-4-13.024 12-23.008 22.976a32.544 32.544 0 0 1-47.008 0 32.16 32.16 0 0 1-4.992-40l14.016-25.984-23.008-16.992C258.112 696.96 224 639.616 224 576c0-119.744 125.12-224 288-224 39.36 0 76.864 5.888 111.008 16.992l16.992 6.016 14.016-12c22.848-20.384 51.104-31.36 73.984-36.992zM704 512c-17.6 0-32 14.4-32 32s14.4 32 32 32 32-14.4 32-32-14.4-32-32-32z" p-id="2397" fill="#134AA2"></path></svg>