<?xml version="1.0" standalone="no"?><!DOCTYPE svg PUBLIC "-//W3C//DTD SVG 1.1//EN" "http://www.w3.org/Graphics/SVG/1.1/DTD/svg11.dtd"><svg t="1749803303628" class="icon" viewBox="0 0 1024 1024" version="1.1" xmlns="http://www.w3.org/2000/svg" p-id="12235" xmlns:xlink="http://www.w3.org/1999/xlink" width="200" height="200"><path d="M372.64 223.696C351.328 151.68 405.696 80 480 80c71.152 0 125.664 66.336 108.944 137.6 26.224 5.328 51.872 12.832 76.72 22.48C697.696 116.512 603.408 0 480 0c-129.184 0-222.608 126.176-182.88 250.336a470.864 470.864 0 0 1 75.52-26.64zM992 533.776c-16-5.76-60.64-20.176-99.632-44.56L976 288.32c-91.104-3.024-179.488 15.888-258.512 49.888-16-9.008-35.776-23.808-77.92-39.616-183.28-69.776-397.328 2.208-487.36 164.032-42.96-0.864-55.376-54.528-17.6-73.92 11.168-5.76 21.568-5.04 28.272-3.456l18.432-77.84c-100.24-23.76-182.848 81.52-135.68 173.344 15.84 30.816 43.168 49.088 76.224 57.888-24.416 95.312-2.56 193.52 57.184 271.712-13.856 63.808-14.928 66.016-16 78.512-4.736 55.28 32.096 106.816 87.744 118.88 59.232 12.864 89.424 24.864 132.432 3.296a111.824 111.824 0 0 0 52.608-55.168c16 4 72.704 6.56 120.32-0.048 18.288 42.016 60.48 67.232 102.56 67.232 16 0 21.072-1.968 82.512-15.296 61.232-13.296 98.592-73.776 85.68-133.216l-12.304-56.64c40.72-30.56 106.144-40.128 149.28-49.232L992 533.792z m-100.72 168.256c-81.6 18.336-107.68 40.256-166.352 79.872l23.792 109.6a32.032 32.032 0 0 1-24.48 38.08c-94.064 20.416-80.48 27.104-118.96-61.344-116.336 16.144-107.392 15.52-218.544 0-39.024 89.584-25.52 81.632-118.976 61.344a32.032 32.032 0 0 1-24.48-38.064l21.792-100.352C238.832 756.848 192 704.48 192 616c0-212.8 279.072-342.656 481.856-210.72l35.904 23.344c38.592-16.608 82.608-37.12 141.824-49.6l-59.52 143.008c62.784 38 77.92 48.192 113.12 63.936l-13.904 116.064zM720 544a48 48 0 1 0 0 96 48 48 0 0 0 0-96z" fill="#0AD2E9" p-id="12236"></path></svg>