<?xml version="1.0" standalone="no"?><!DOCTYPE svg PUBLIC "-//W3C//DTD SVG 1.1//EN" "http://www.w3.org/Graphics/SVG/1.1/DTD/svg11.dtd"><svg t="1750259195730" class="icon" viewBox="0 0 1024 1024" version="1.1" xmlns="http://www.w3.org/2000/svg" p-id="27362" xmlns:xlink="http://www.w3.org/1999/xlink" width="250" height="250"><path d="M477.12 141.12c20.16 0 39.36 0 57.92 1.6A160 160 0 0 0 224 192v5.12a591.36 591.36 0 0 1 253.12-56z m443.84 408.96A312.64 312.64 0 0 0 832 345.92l54.72-104.96c-49.28-25.6-137.92-25.6-182.4 15.04a412.8 412.8 0 0 0-226.56-51.2 493.44 493.44 0 0 0-336.64 124.16L64 270.08 32 288l38.4 134.08-12.48 21.12A290.56 290.56 0 0 0 32 560.32a326.4 326.4 0 0 0 140.8 258.88l-32 172.8h176.32L352 901.12a548.16 548.16 0 0 0 218.56 6.72l32 84.16h177.92l-29.44-151.36a384 384 0 0 0 128-125.44l71.68 23.04L992 567.36zM736 586.88a73.28 73.28 0 0 1-64-80 73.28 73.28 0 0 1 64-80 73.28 73.28 0 0 1 64 80 73.28 73.28 0 0 1-64 80z" fill="#E8442E" p-id="27363"></path></svg>