<?xml version="1.0" standalone="no"?><!DOCTYPE svg PUBLIC "-//W3C//DTD SVG 1.1//EN" "http://www.w3.org/Graphics/SVG/1.1/DTD/svg11.dtd"><svg t="1749725303044" class="icon" viewBox="0 0 1024 1024" version="1.1" xmlns="http://www.w3.org/2000/svg" p-id="5688" xmlns:xlink="http://www.w3.org/1999/xlink" width="200" height="200"><path d="M512.1 928.3c-6.3 0-12.7-1-18.7-2.9l-1.5-0.5c-12.2-4.2-97.6-35.3-182.2-103.5-52.6-42.4-94.5-90.6-124.7-143.3-37.8-66.1-57-139.3-57-217.4V281.4c0-23.8 17.7-44.4 43-49.9l328-131c8.5-1.9 17.5-1.9 26 0l328.1 130.9c25.3 5.5 43 26.1 43 49.9v179.3c0 78.8-19.2 152.4-57 218.6-30.2 52.9-72.2 101.1-124.8 143.3-91.1 73-183 102.6-184 102.9-5.8 2-12 2.9-18.2 2.9zM225.9 292.4c-12 2.6-20.5 12.5-20.5 23.8v144.4c0 66.1 16 127.7 47.5 183.3 25.4 44.9 61.1 86.1 106 122.6 56.5 46 113.9 73.1 142.3 84.9 7 2.9 14.9 2.9 21.9 0.1 28.4-11.6 85.7-38.3 142.1-83.9 44.9-36.3 80.5-77.5 105.9-122.4 31.5-55.7 47.5-117.8 47.5-184.5V316.2c0-11.3-8.5-21.2-20.5-23.8L518.3 172c-4.1-0.9-8.3-0.9-12.4 0l-280 120.4z" p-id="5689" fill="#134AA2"></path><path d="M479.8 617c-8.3 0-16.7-3-23.4-8.9L332.2 496.7c-14.4-12.9-15.6-35-2.7-49.4 12.9-14.4 35-15.6 49.4-2.7l99.1 88.8 171.5-178.1c13.4-13.9 35.6-14.3 49.5-0.9 13.9 13.4 14.3 35.6 0.9 49.5L505 606.3c-6.8 7.1-16 10.7-25.2 10.7z" p-id="5690" fill="#134AA2"></path></svg>