<?xml version="1.0" standalone="no"?><!DOCTYPE svg PUBLIC "-//W3C//DTD SVG 1.1//EN" "http://www.w3.org/Graphics/SVG/1.1/DTD/svg11.dtd"><svg t="1750259506659" class="icon" viewBox="0 0 1024 1024" version="1.1" xmlns="http://www.w3.org/2000/svg" p-id="29575" xmlns:xlink="http://www.w3.org/1999/xlink" width="200" height="200"><path d="M490.666667 170.666667a149.333333 149.333333 0 1 0 0 298.666666 149.333333 149.333333 0 0 0 0-298.666666zM256 320a234.666667 234.666667 0 1 1 469.333333 0 234.666667 234.666667 0 0 1-469.333333 0z m448 341.333333v155.050667a42.666667 42.666667 0 0 0 19.328 35.712L810.666667 909.141333l87.338666-57.045333a42.666667 42.666667 0 0 0 19.328-35.712V661.333333h-213.333333z m-85.333333-85.333333h384v240.384a128 128 0 0 1-58.026667 107.136L810.666667 1011.072l-133.973334-87.552a128 128 0 0 1-58.026666-107.136V576zM341.333333 682.666667a170.666667 170.666667 0 0 0-170.666666 170.666666h364.8v85.333334H85.333333v-85.333334a256 256 0 0 1 256-256h192v85.333334H341.333333z" fill="#E8442E" p-id="29576"></path></svg>