<?xml version="1.0" standalone="no"?><!DOCTYPE svg PUBLIC "-//W3C//DTD SVG 1.1//EN" "http://www.w3.org/Graphics/SVG/1.1/DTD/svg11.dtd"><svg t="1749569335473" class="icon" viewBox="0 0 1024 1024" version="1.1" xmlns="http://www.w3.org/2000/svg" p-id="6766" xmlns:xlink="http://www.w3.org/1999/xlink" width="200" height="200"><path d="M613.922 0c-146.238 0-265.21 118.972-265.21 265.21S467.686 530.42 613.922 530.42c146.238 0 265.21-118.972 265.21-265.21S760.16 0 613.922 0z m0 469.59c-112.696 0-204.38-91.684-204.38-204.38s91.686-204.38 204.38-204.38c112.696 0 204.38 91.684 204.38 204.38-0.002 112.698-91.684 204.38-204.38 204.38z" p-id="6767" fill="#ffffff"></path><path d="M644.338 237.346V176.37c3.946 1.302 7.376 2.894 10.182 4.764 5.08 3.388 10.27 8.696 10.27 22.38h60.832c0-47.908-30.434-80.514-81.282-89.56V89.548h-60.832v24.406c-50.848 9.048-81.282 41.654-81.282 89.56s30.434 80.514 81.282 89.56v60.976c-3.948-1.3-7.378-2.892-10.182-4.76-5.08-3.388-10.27-8.696-10.27-22.382h-60.832c0 47.908 30.434 80.514 81.282 89.56v24.406h60.832v-24.406c50.848-9.048 81.282-41.654 81.282-89.56 0.002-47.908-30.432-80.516-81.282-89.562z m-60.83-6.688c-3.948-1.304-7.378-2.894-10.182-4.766-5.08-3.388-10.27-8.696-10.27-22.38s5.192-18.992 10.27-22.38c2.804-1.87 6.234-3.462 10.182-4.764v54.29z m71.01 118.632c-2.804 1.87-6.234 3.462-10.182 4.764v-54.288c3.946 1.302 7.376 2.892 10.182 4.764 5.08 3.386 10.27 8.696 10.27 22.38s-5.192 18.99-10.27 22.38zM989.586 665.3l-242.284 58.756V636.84l-280.048-70.126-287.836 44.648H0.56V1024h210.842v-85.212l147.858-16.584 286.488 80.424L1023.44 794.458l-33.854-129.158zM150.57 945.608v17.56H61.392V672.194h89.178v273.414z m487.632-8.284l-273.928-76.898-152.874 17.148V667.962l253.016-39.25 222.054 55.604V724l-170.356-41.548-14.414 59.1 215.164 52.476 229.016-55.538 6.7 25.564-314.378 173.27z" p-id="6768" fill="#ffffff"></path></svg>