<?xml version="1.0" standalone="no"?><!DOCTYPE svg PUBLIC "-//W3C//DTD SVG 1.1//EN" "http://www.w3.org/Graphics/SVG/1.1/DTD/svg11.dtd"><svg t="1750259072049" class="icon" viewBox="0 0 1024 1024" version="1.1" xmlns="http://www.w3.org/2000/svg" p-id="25031" xmlns:xlink="http://www.w3.org/1999/xlink" width="200" height="200"><path d="M797.257143 643.657143c-7.314286-7.314286-14.628571-10.971429-21.942857-10.971429C914.285714 380.342857 735.085714 73.142857 449.828571 73.142857 241.371429 73.142857 73.142857 241.371429 73.142857 449.828571 73.142857 658.285714 241.371429 822.857143 449.828571 822.857143c62.171429 0 124.342857-14.628571 182.857143-47.542857l10.971429 21.942857 120.685714 120.685714c43.885714 43.885714 113.371429 43.885714 153.6 0 43.885714-43.885714 43.885714-113.371429 0-153.6l-120.685714-120.685714z m-219.428572-234.057143l-131.657142 131.657143c-14.628571 14.628571-36.571429 14.628571-51.2 0l-73.142858-73.142857c-14.628571-14.628571-14.628571-36.571429 0-51.2s36.571429-14.628571 51.2 0l47.542858 47.542857 106.057142-106.057143c14.628571-14.628571 36.571429-14.628571 51.2 0s10.971429 36.571429 0 51.2z" p-id="25032" fill="#E8442E"></path></svg>