<?xml version="1.0" standalone="no"?><!DOCTYPE svg PUBLIC "-//W3C//DTD SVG 1.1//EN" "http://www.w3.org/Graphics/SVG/1.1/DTD/svg11.dtd"><svg t="1741202730322" class="icon" viewBox="0 0 1024 1024" version="1.1" xmlns="http://www.w3.org/2000/svg" p-id="11652" xmlns:xlink="http://www.w3.org/1999/xlink" width="64" height="64"><path d="M216.021333 205.44C299.434667 174.762667 418.730667 138.666667 512 138.666667c93.226667 0 212.522667 36.096 295.936 66.773333a95.402667 95.402667 0 0 1 62.506667 86.613333c2.346667 59.093333 2.432 132.352-5.930667 191.104-14.933333 105.386667-44.586667 177.28-86.016 233.6-41.856 56.917333-98.474667 101.632-174.08 148.778667a179.712 179.712 0 0 1-187.093333 2.218667c-78.634667-47.36-134.4-91.946667-174.677334-148.608-40.106667-56.277333-67.925333-128.64-83.2-235.989334-8.362667-58.752-8.234667-132.010667-5.888-191.146666a95.402667 95.402667 0 0 1 62.464-86.570667zM512 32c-113.621333 0-248.277333 42.24-332.8 73.344a202.069333 202.069333 0 0 0-132.266667 182.442667c-2.389333 60.8-2.816 141.866667 6.912 210.389333 16.896 118.869333 49.194667 208.853333 101.888 282.88 52.48 73.642667 122.24 127.317333 206.592 178.090667 92.074667 55.424 207.914667 53.418667 298.538667-3.114667 80.213333-50.048 150.016-103.253333 203.562667-176.085333 54.016-73.386667 88.789333-162.944 105.685333-281.770667 9.770667-68.522667 9.344-149.589333 6.912-210.346667a202.026667 202.026667 0 0 0-132.266667-182.485333C760.234667 74.24 625.621333 32 511.957333 32zM501.333333 213.333333c-29.44 0-53.333333 23.893333-53.333333 53.333334v192c0 3.669333 0.384 7.253333 1.066667 10.709333a160.042667 160.042667 0 1 0 105.472-7.125333L554.666667 458.666667V405.333333h74.666666a53.333333 53.333333 0 1 0 0-106.666666H554.666667v-32C554.666667 237.226667 530.773333 213.333333 501.333333 213.333333z m-42.666666 403.2a53.333333 53.333333 0 1 1 106.666666 0 53.333333 53.333333 0 0 1-106.666666 0z" fill="#0AD2E9" p-id="11653"></path></svg>