<?xml version="1.0" standalone="no"?><!DOCTYPE svg PUBLIC "-//W3C//DTD SVG 1.1//EN" "http://www.w3.org/Graphics/SVG/1.1/DTD/svg11.dtd"><svg t="1750259119468" class="icon" viewBox="0 0 1024 1024" version="1.1" xmlns="http://www.w3.org/2000/svg" p-id="26146" xmlns:xlink="http://www.w3.org/1999/xlink" width="200" height="200"><path d="M530.846476 99.986286l316.952381 84.528762A73.142857 73.142857 0 0 1 902.095238 255.195429v400.847238a73.142857 73.142857 0 0 1-29.891048 59.001904l-316.95238 232.423619a73.142857 73.142857 0 0 1-86.50362 0l-316.95238-232.448A73.142857 73.142857 0 0 1 121.904762 656.042667V255.195429a73.142857 73.142857 0 0 1 54.296381-70.680381l316.952381-84.528762a73.142857 73.142857 0 0 1 37.692952 0z m126.098286 212.796952l-210.16381 208.042667-79.603809-79.579429-51.687619 51.736381 131.072 130.998857 261.851428-259.218285-51.46819-51.980191z" p-id="26147" fill="#E8442E"></path></svg>