<?xml version="1.0" standalone="no"?><!DOCTYPE svg PUBLIC "-//W3C//DTD SVG 1.1//EN" "http://www.w3.org/Graphics/SVG/1.1/DTD/svg11.dtd"><svg t="1705307021386" class="icon" viewBox="0 0 1024 1024" version="1.1" xmlns="http://www.w3.org/2000/svg" p-id="10658" xmlns:xlink="http://www.w3.org/1999/xlink" width="64" height="64"><path d="M734.73 286.795A136 160 44.999 1 0 961 60.517a136 160 44.999 1 0-226.27 226.278z" fill="#F6C456" p-id="10659"></path><path d="M824 342.4c-38.4 0-76-13.6-103.2-40.8C660 240.8 667.2 134.4 737.6 64s176.8-77.6 237.6-16.8c60.8 60.8 53.6 167.2-16.8 237.6-38.4 37.6-88 57.6-134.4 57.6z m48-296.8c-36 0-75.2 16-106.4 46.4-54.4 54.4-62.4 136-16.8 180.8 45.6 45.6 126.4 37.6 180.8-16.8C984 201.6 992 120 946.4 75.2c-19.2-20-46.4-29.6-74.4-29.6z" p-id="10660"></path><path d="M783.2 148c37.6-37.6 88-48 112.8-22.4 24.8 24.8 15.2 76-22.4 112.8" fill="#F4AC9C" p-id="10661"></path><path d="M876 241.6l-5.6-5.6c36-36 46.4-84 22.4-107.2-23.2-23.2-72-13.6-107.2 22.4l-5.6-5.6c39.2-39.2 92-48.8 118.4-22.4 27.2 26.4 16.8 79.2-22.4 118.4z" fill="#040000" p-id="10662"></path><path d="M79.705 269.822a160 136 44.999 1 0 192.33-192.336 160 136 44.999 1 0-192.33 192.336z" fill="#F6C456" p-id="10663"></path><path d="M200 342.4c-46.4 0-96-20-134.4-58.4C-4.8 213.6-12 107.2 48.8 46.4 109.6-14.4 216-6.4 286.4 63.2c70.4 70.4 77.6 176.8 16.8 237.6-27.2 28-64.8 41.6-103.2 41.6zM152 45.6c-28.8 0-55.2 9.6-75.2 29.6C32 120 39.2 201.6 93.6 256c54.4 54.4 136 62.4 180.8 16.8C320 227.2 312 146.4 257.6 92 227.2 60.8 188 45.6 152 45.6z" p-id="10664"></path><path d="M240.8 148c-37.6-37.6-88-48-112.8-22.4s-15.2 76 22.4 112.8" fill="#F4AC9C" p-id="10665"></path><path d="M148 241.6c-39.2-39.2-48.8-92-22.4-118.4 26.4-26.4 80-16 118.4 22.4l-5.6 5.6c-36-36-84-46.4-107.2-22.4-11.2 11.2-15.2 28-11.2 48 4 20.8 16 41.6 33.6 59.2l-5.6 5.6z" fill="#040000" p-id="10666"></path><path d="M32.8 515.2a480 480 0 1 0 960 0 480 480 0 1 0-960 0z" fill="#F6C456" p-id="10667"></path><path d="M512.8 1015.2c-276 0-500-224-500-500s224-500 500-500 500 224 500 500-224 500-500 500z m0-960c-253.6 0-460 206.4-460 460s206.4 460 460 460 460-206.4 460-460-206.4-460-460-460z" p-id="10668"></path><path d="M935.2 743.2c-95.2-65.6-245.6-108-414.4-108-176 0-332 46.4-426.4 116.8 82.4 145.6 238.4 244 418.4 244 182.4-0.8 341.6-102.4 422.4-252.8z" fill="#F9D791" p-id="10669"></path><path d="M512.8 1015.2c-180 0-346.4-97.6-435.2-254.4l-8.8-15.2 14.4-10.4C184 660 347.2 614.4 520.8 614.4c168 0 323.2 40.8 426.4 112l14.4 10.4-8.8 16c-87.2 161.6-256 262.4-440 262.4zM121.6 756.8c83.2 135.2 232 218.4 391.2 218.4 163.2 0 313.6-86.4 396-225.6-95.2-59.2-238.4-94.4-388-94.4-156.8-0.8-304 37.6-399.2 101.6z" p-id="10670"></path><path d="M632.8 114.4h-224c-6.4 0-12-5.6-12-12s5.6-12 12-12h224c6.4 0 12 5.6 12 12s-5.6 12-12 12z m0 56h-224c-6.4 0-12-5.6-12-12s5.6-12 12-12h224c6.4 0 12 5.6 12 12s-5.6 12-12 12z m0 56h-224c-6.4 0-12-5.6-12-12s5.6-12 12-12h224c6.4 0 12 5.6 12 12s-5.6 12-12 12z" fill="#9B7125" p-id="10671"></path><path d="M520.8 226.4c-6.4 0-12-5.6-12-12v-112c0-6.4 5.6-12 12-12s12 5.6 12 12v112c0 6.4-5.6 12-12 12z" fill="#9B7125" p-id="10672"></path><path d="M232.8 331.2c-2.4 0-5.6-0.8-8-2.4-4.8-4-5.6-12-1.6-16.8 24.8-29.6 57.6-46.4 92-46.4 32 0 62.4 14.4 86.4 40.8 4.8 4.8 4 12.8-0.8 16.8-4.8 4.8-12.8 4-16.8-0.8-19.2-20.8-44-32.8-68.8-32.8-27.2 0-52.8 13.6-73.6 37.6-2.4 2.4-5.6 4-8.8 4z m400 0c-2.4 0-5.6-0.8-8-2.4-4.8-4-5.6-12-1.6-16.8 24.8-29.6 57.6-46.4 92-46.4 32 0 62.4 14.4 86.4 40.8 4.8 4.8 4 12.8-0.8 16.8-4.8 4.8-12.8 4-16.8-0.8-19.2-20.8-44-32.8-68.8-32.8-27.2 0-52.8 13.6-73.6 37.6-2.4 2.4-5.6 4-8.8 4z" p-id="10673"></path><path d="M237.6 430.4a99.2 77.6 90 1 0 155.2 0 99.2 77.6 90 1 0-155.2 0z" fill="#FFFFFF" p-id="10674"></path><path d="M315.2 542.4c-49.6 0-89.6-50.4-89.6-111.2s40-111.2 89.6-111.2 89.6 50.4 89.6 111.2-40 111.2-89.6 111.2z m0-199.2c-36 0-65.6 39.2-65.6 87.2s29.6 87.2 65.6 87.2 65.6-39.2 65.6-87.2-29.6-87.2-65.6-87.2z" p-id="10675"></path><path d="M241.6 440a40 40 0 1 0 80 0 40 40 0 1 0-80 0z" p-id="10676"></path><path d="M637.6 430.4a99.2 77.6 90 1 0 155.2 0 99.2 77.6 90 1 0-155.2 0z" fill="#FFFFFF" p-id="10677"></path><path d="M715.2 542.4c-49.6 0-89.6-50.4-89.6-111.2s40-111.2 89.6-111.2 89.6 50.4 89.6 111.2-40 111.2-89.6 111.2z m0-199.2c-36 0-65.6 39.2-65.6 87.2s29.6 87.2 65.6 87.2 65.6-39.2 65.6-87.2-29.6-87.2-65.6-87.2z" p-id="10678"></path><path d="M641.6 440a40 40 0 1 0 80 0 40 40 0 1 0-80 0zM445.6 624.8a64 64 0 1 0 128 0 64 64 0 1 0-128 0z" p-id="10679"></path><path d="M497.192 769.536l3.368-147.96 24 0.552-3.376 147.952z" p-id="10680"></path><path d="M509.6 785.6c-84.8 0-147.2-72.8-149.6-76-4-4.8-3.2-12.8 1.6-16.8 4.8-4 12.8-3.2 16.8 1.6 0.8 0.8 57.6 68 131.2 68s138.4-67.2 138.4-68c4.8-4.8 12-4.8 16.8-0.8s4.8 12 0.8 16.8c-2.4 2.4-71.2 75.2-156 75.2z" p-id="10681"></path><path d="M895.2 476c-18.4 0-32-1.6-33.6-1.6-6.4-0.8-11.2-7.2-10.4-13.6 0.8-6.4 6.4-11.2 13.6-10.4 0.8 0 82.4 9.6 120.8-20 5.6-4 12.8-3.2 16.8 2.4s3.2 12.8-2.4 16.8c-28.8 21.6-73.6 26.4-104.8 26.4z m0 80c-18.4 0-32-1.6-33.6-1.6-6.4-0.8-11.2-6.4-10.4-13.6 0.8-6.4 6.4-11.2 13.6-10.4 0.8 0 82.4 9.6 120.8-20 5.6-4 12.8-3.2 16.8 2.4s3.2 12.8-2.4 16.8c-28.8 21.6-73.6 26.4-104.8 26.4z m-758.4-80c-31.2 0-76-4-104.8-27.2-5.6-4-6.4-12-2.4-16.8 4-5.6 12-6.4 16.8-2.4 38.4 29.6 120 20 120.8 20 6.4-0.8 12.8 4 13.6 10.4 0.8 6.4-4 12.8-10.4 13.6-1.6 0.8-15.2 2.4-33.6 2.4z m0 80c-31.2 0-76-4-104.8-27.2-5.6-4-6.4-12-2.4-16.8 4-5.6 12-6.4 16.8-2.4 38.4 29.6 120 20 120.8 20 6.4-0.8 12.8 4 13.6 10.4s-4 12.8-10.4 13.6c-1.6 0.8-15.2 2.4-33.6 2.4z" fill="#9B7125" p-id="10682"></path><path d="M512.8 1015.2c-276 0-500-224-500-500s224-500 500-500 500 224 500 500-224 500-500 500z m0-960c-253.6 0-460 206.4-460 460s206.4 460 460 460 460-206.4 460-460-206.4-460-460-460z" p-id="10683"></path></svg>