<?xml version="1.0" standalone="no"?><!DOCTYPE svg PUBLIC "-//W3C//DTD SVG 1.1//EN" "http://www.w3.org/Graphics/SVG/1.1/DTD/svg11.dtd"><svg t="1742807693273" class="icon" viewBox="0 0 1024 1024" version="1.1" xmlns="http://www.w3.org/2000/svg" p-id="16628" xmlns:xlink="http://www.w3.org/1999/xlink" width="64" height="64"><path d="M313.825882 649.848471V480.075294c0-17.618824-18.672941-32.015059-41.652706-32.015059V191.909647L288.828235 128 272.173176 0H188.837647l-16.685176 128 16.685176 64v256c-22.889412 0-41.743059 14.426353-41.743059 32.015059v169.863529C122.699294 661.082353 105.411765 680.658824 105.411765 704v256C105.381647 995.147294 142.908235 1024 188.777412 1024h83.395764c45.839059 0 83.425882-28.792471 83.425883-64v-256c0-23.341176-17.257412-42.917647-41.743059-54.151529zM918.588235 192.060235C918.588235 128.692706 888.079059 40.658824 840.764235 0c0 0-29.424941 1.295059-29.424941 25.6v134.415059c0 17.558588-16.052706 31.984941-35.749647 31.984941h-214.528c-19.666824 0-35.719529-14.426353-35.719529-32.015059V25.6c0-25.6-29.424941-25.6-29.424942-25.6-47.254588 40.688941-77.763765 128.722824-77.763764 192 0 89.268706 58.669176 132.577882 142.96847 150.016v592.384c0 49.242353 45.025882 89.6 100.141177 89.6h14.215529c55.085176 0 100.141176-40.327529 100.141177-89.6V342.016C859.858824 324.547765 918.588235 281.268706 918.588235 192.030118z" fill="#20BBFF" p-id="16629"></path></svg>