<?xml version="1.0" standalone="no"?><!DOCTYPE svg PUBLIC "-//W3C//DTD SVG 1.1//EN" "http://www.w3.org/Graphics/SVG/1.1/DTD/svg11.dtd"><svg t="1705305910360" class="icon" viewBox="0 0 1024 1024" version="1.1" xmlns="http://www.w3.org/2000/svg" p-id="4442" xmlns:xlink="http://www.w3.org/1999/xlink" width="64" height="64"><path d="M656 448h224v224H656z" fill="#3397E8" p-id="4443"></path><path d="M768 672h224v224H768z" fill="#FFB632" p-id="4444"></path><path d="M768 560m-48 0a48 48 0 1 0 96 0 48 48 0 1 0-96 0Z" fill="#E9EEF2" p-id="4445"></path><path d="M544 672h224v224H544z" fill="#35A872" p-id="4446"></path><path d="M608 736h96v96h-96z" fill="#E9EEF2" p-id="4447"></path><path d="M880 448H656l112-160z" fill="#EB423F" p-id="4448"></path><path d="M928 832h-96l48-96z" fill="#E9EEF2" p-id="4449"></path><path d="M112 768a80.01 80.01 0 0 1-79.82-74.66q0.36-11.25 1.54-21.96C50.4 517.48 186.52 448 352 448s301.6 69.48 318.28 223.38q1.17 10.71 1.54 21.96A80.01 80.01 0 0 1 592 768z" fill="#95573A" p-id="4450"></path><path d="M192 720a224 160 90 1 0 320 0 224 160 90 1 0-320 0Z" fill="#A36F58" p-id="4451"></path><path d="M544 144m-96 0a96 96 0 1 0 192 0 96 96 0 1 0-192 0Z" fill="#95573A" p-id="4452"></path><path d="M160 144m-96 0a96 96 0 1 0 192 0 96 96 0 1 0-192 0Z" fill="#95573A" p-id="4453"></path><path d="M112 320a240 224 0 1 0 480 0 240 224 0 1 0-480 0Z" fill="#AD6643" p-id="4454"></path><path d="M80 848a128 112 90 1 0 224 0 128 112 90 1 0-224 0Z" fill="#7A4830" p-id="4455"></path><path d="M400 848a128 112 90 1 0 224 0 128 112 90 1 0-224 0Z" fill="#7A4830" p-id="4456"></path><path d="M351.82 480c70.58 0 128-46.654 128-104a16 16 0 0 0-32 0c0 35.612-34.658 65.25-80 70.98V396.2a36.158 36.158 0 0 0 4.856-2.918l27.154-19.378a38.746 38.746 0 0 0 15.988-31.588c0-21.124-16.528-38.31-36.844-38.31h-54.31c-20.316 0-36.844 17.186-36.844 38.31a38.746 38.746 0 0 0 15.988 31.588l27.154 19.378a35.972 35.972 0 0 0 4.858 2.918v50.78c-45.342-5.73-80-35.368-80-70.98a16 16 0 0 0-32 0c0 57.346 57.42 104 128 104z m-29.42-132.148a6.814 6.814 0 0 1-2.576-5.542c0-3.42 2.22-6.31 4.844-6.31h54.312c2.626 0 4.844 2.89 4.844 6.31a6.816 6.816 0 0 1-2.578 5.542l-27.154 19.376a3.718 3.718 0 0 1-4.538 0z" p-id="4457"></path><path d="M447.82 288m-16 0a16 16 0 1 0 32 0 16 16 0 1 0-32 0Z" p-id="4458"></path><path d="M255.82 288m-16 0a16 16 0 1 0 32 0 16 16 0 1 0-32 0Z" p-id="4459"></path><path d="M768 624a64 64 0 1 0-64-64 64.072 64.072 0 0 0 64 64z m0-96a32 32 0 1 1-32 32 32.038 32.038 0 0 1 32-32z" p-id="4460"></path><path d="M992 656h-96V448a15.914 15.914 0 0 0-2.9-9.17l-112-160a16 16 0 0 0-26.216 0l-112 160A15.914 15.914 0 0 0 640 448v100.126c-21.91-29.456-51.142-53.896-87.236-72.748C588.4 433.49 607.82 379.062 607.82 320a252.762 252.762 0 0 0-11.734-76.936 112 112 0 1 0-152.24-149.57A304.56 304.56 0 0 0 351.82 80a304.484 304.484 0 0 0-92.02 13.496 112 112 0 1 0-152.242 149.568A252.762 252.762 0 0 0 95.82 320c0 59.062 19.428 113.492 55.058 155.378-77.896 40.684-123.824 107.41-133.246 194.278-0.02 0.2-0.04 0.4-0.054 0.6L16.04 692.22a15.38 15.38 0 0 0 0 2.168 96.2 96.2 0 0 0 63.892 84.136A157.314 157.314 0 0 0 64 848c0 79.4 57.42 144 128 144 38 0 72.166-18.744 95.63-48.424a134.354 134.354 0 0 0 128.74 0C439.834 973.256 474 992 512 992c50.152 0 93.634-32.632 114.618-80H992a16 16 0 0 0 16-16V672a16 16 0 0 0-16-16zM768 315.9L849.27 432h-162.54zM672 464h192v192h-179.834A260.462 260.462 0 0 0 672 608z m-17.84 208.8l1.44 20.506A64.128 64.128 0 0 1 606 750.4c-20.058-24.43-47.52-41.024-78.338-45.276-2.914-65.078-24.85-125.126-60.69-167.166a233.892 233.892 0 0 0 62.094-38.648c73.29 35.108 116.474 94.874 125.094 173.49zM543.82 64a80 80 0 0 1 40.36 149.088 223.34 223.34 0 0 0-44.8-62.888 231.426 231.426 0 0 0-65.474-45.092A80.178 80.178 0 0 1 543.82 64z m-464 80a80 80 0 0 1 149.922-38.892A231.364 231.364 0 0 0 164.268 150.2a223.284 223.284 0 0 0-44.8 62.886A80.18 80.18 0 0 1 79.82 144z m48 176c0-57.444 20.912-109.642 58.886-146.984C227.298 133.1 284.4 112 351.82 112s124.522 21.1 165.116 61.018c37.972 37.34 58.884 89.538 58.884 146.982s-20.912 109.642-58.884 146.982C476.342 506.9 419.246 528 351.82 528s-124.522-21.1-165.114-61.016C148.732 429.642 127.82 377.444 127.82 320zM48.042 693.314l1.436-20.508c8.622-78.624 51.8-138.39 125.094-173.502a233.936 233.936 0 0 0 62.39 38.772c-35.734 42.052-57.694 102.276-60.624 167.04C145.492 709.372 118 726 97.942 750.46a64.126 64.126 0 0 1-49.9-57.146zM192 960c-52.936 0-96-50.242-96-112s43.064-112 96-112 96 50.242 96 112-43.064 112-96 112z m160-32a103.4 103.4 0 0 1-47.36-11.66A157.472 157.472 0 0 0 320 848c0-73.156-48.754-133.702-111.624-142.78 3.076-62.4 25.494-119.44 61.492-155.752A309.836 309.836 0 0 0 351.82 560a309.724 309.724 0 0 0 82.222-10.6c36.112 36.302 58.53 93.116 61.588 155.824C432.758 714.294 384 774.84 384 848a157.472 157.472 0 0 0 15.36 68.34A103.4 103.4 0 0 1 352 928z m160 32c-52.936 0-96-50.242-96-112s43.064-112 96-112 96 50.242 96 112-43.064 112-96 112z m112.014-181.588A96.6 96.6 0 0 0 663.282 752H688v64h-51.226a154.338 154.338 0 0 0-12.76-37.588zM752 880h-115.226A160.928 160.928 0 0 0 640 848h64a16 16 0 0 0 16-16v-96a16 16 0 0 0-16-16h-21.686a95.23 95.23 0 0 0 5.292-25.612 16 16 0 0 0 0-2.168l-0.296-4.22H752z m224 0h-192v-192h192z" p-id="4461"></path><path d="M832 848h96a16 16 0 0 0 14.31-23.156l-48-96a16 16 0 0 0-28.62 0l-48 96A16 16 0 0 0 832 848z m48-76.222L902.112 816h-44.224z" p-id="4462"></path></svg>