<?xml version="1.0" standalone="no"?><!DOCTYPE svg PUBLIC "-//W3C//DTD SVG 1.1//EN" "http://www.w3.org/Graphics/SVG/1.1/DTD/svg11.dtd"><svg t="1750249987573" class="icon" viewBox="0 0 1024 1024" version="1.1" xmlns="http://www.w3.org/2000/svg" p-id="9563" xmlns:xlink="http://www.w3.org/1999/xlink" width="200" height="200"><path d="M683.9000143644444 625.5641747911111l0-1.6637781333333332 20.52885048888889 0L704.4288648533334 222.0788895288889c0-1.044373048888889 0.3877102933333333-2.0002588444444442 0.6065982577777778-3.0038812444444445l0-62.07904768c0-11.694178986666666-9.478526293333331-21.164555377777777-21.135447608888892-21.164555377777777L21.994783857777804 135.83140408888886c-11.659250346666667 0-21.095862044444445 9.47037639111111-21.095862044444445 21.154076444444446l0 466.916080071111 21.095862044444445 0 0 1.6637781333333332L683.9000143644444 625.5653398755554zM940.5979659377779 734.8670304711111c-12.04696064-31.392887466666668-37.83842474666667-56.06429923555555-70.02769066666666-66.33221802666667-10.626521315555554-3.3857695288888885-21.92018318222222-5.256791608888888-33.665591751111116-5.256791608888888-11.700000995555554 0-22.993662862222223 1.8721860266666663-33.64346993777777 5.256791608888888-32.189264782222224 10.269082737777778-57.98305792 34.93933056-70.02536163555556 66.33221802666667L733.2335240533333 734.8670304711111c-2.5893922133333334 6.784347022222223-4.533764551111111 13.862097351111112-5.75161799111111 21.185513244444447-1.0280721066666667 6.045020159999999-1.6765849599999998 12.236740835555556-1.6765849599999998 18.548384426666665 0 0.8836994844444443 0.11992291555555554 1.740621368888889 0.11992291555555554 2.5870631822222223 1.4204404622222222 60.19987569777778 50.56882688 108.78241564444444 110.97944063999999 108.78241564444444 60.41061262222222 0 109.57995690666667-48.582539946666664 110.97944063999999-108.78241564444444 0.018628835555555553-0.8464429511111111 0.1222508088888889-1.7033636977777777 0.1222508088888889-2.5870631822222223 0-6.319793493333333-0.6461838222222221-12.503364266666667-1.6579561244444443-18.548384426666665C945.1096098133333 748.7291266844445 943.1850302577777 741.6513774933334 940.5979659377779 734.8670304711111zM883.1854125511111 777.1879913244445c-1.3773607822222222 24.513068373333336-21.501037226666668 44.04644636444444-46.27607096888889 44.04644636444444-24.78201969777778 0-44.88706730666666-19.53337799111111-46.28072789333333-44.04644636444444-0.04307854222222222-0.8545928533333332-0.2456667022222222-1.6824058311111112-0.2398446933333333-2.5870631822222223 0-6.57593799111111 1.418111431111111-12.81888824888889 3.910867626666666-18.548384426666665 3.863131022222222-8.850971306666668 10.420440177777778-16.14527943111111 18.583313066666665-21.185513244444447 7.04282055111111-4.261320248888889 15.224322275555554-6.899613013333333 24.026393031111112-6.899613013333333 8.821863537777778 0 17.00452920888889 2.638292764444444 24.026393031111112 6.899613013333333 8.198965475555555 5.04139776 14.776068551111111 12.335705884444446 18.62289976888889 21.185513244444447 2.491591111111111 5.7294961777777775 3.9085385955555556 11.972446435555556 3.9085385955555556 18.548384426666665C883.4683369244445 775.50674944 883.2657487644444 776.3345624177778 883.1854125511111 777.1879913244445zM1014.8567039999999 633.3533092977777L1014.8567039999999 475.2595057777778c0-122.28940231111112-80.49353841777777-185.5106241422222-83.94101646222222-188.1302869333333-3.69547264-2.8432088177777777-8.19197952-4.370763093333333-12.827038151111111-4.370763093333333L748.2599162311111 282.75845461333336c-6.258086115555555 0-11.803622968888888 2.776843377777778-15.670246968888888 7.128978773333333l0 348.1300423111111c0 3.6128073955555555-1.4763258311111112 6.872833137777778-3.705951573333333 9.342303573333334l-1.7382923377777777 0c0 0.48318236444444446 0.11992291555555554 0.9267791644444444 0.1420435911111111 1.418111431111111-2.411254897777778 1.9886159644444446-5.409315271111111 3.3298841599999998-8.768306062222223 3.3298841599999998L315.0862711466666 652.1077737244445c8.463261013333332 4.664166399999999 16.358345386666667 10.196896426666665 23.625874773333333 16.428202666666667 20.200519680000003 17.27697464888889 35.44579868444444 40.214751004444445 43.18603264 66.33221802666667 2.047995448888889 6.861190257777778 3.46610688 13.950583466666666 4.434799502222222 21.185513244444447 0.8359640177777777 6.092755626666667 1.4018116266666667 12.257698702222221 1.4018116266666667 18.548384426666665 0 0.8836994844444443-0.10711495111111112 1.740621368888889-0.14437262222222222 2.5870631822222223L697.7574536533333 777.1891552711112c-0.018628835555555553-0.8464429511111111-0.11759388444444444-1.7033636977777777-0.11759388444444444-2.5870631822222223 0-6.290685724444444 0.5635185777777778-12.463778702222221 1.395989617777778-18.548384426666665 0.9500649244444445-7.236093724444444 2.3891330844444445-14.324321848888887 4.434799502222222-21.185513244444447 7.775162595555555-26.125616924444444 22.99948487111111-49.05524337777778 43.200003413333334-66.34036792888888l1.5834407822222223 0c-0.46688256 0-0.9349290666666666-0.11992291555555554-1.4390681600000002-0.15717944888888888 9.980337493333334-8.477231786666668 21.135447608888892-15.57361095111111 33.21966592-21.017853724444443 9.051229297777777-4.055239111111111 18.548384426666665-7.257051591111111 28.48797127111111-9.33415367111111 9.150194346666668-1.9490303999999998 18.66597831111111-2.9526528000000005 28.382020266666665-2.9526528000000005 9.7404928 0 19.239975822222224 1.0036224 28.384349297777778 2.9526528000000005 9.961708657777775 2.07710208 19.477491484444442 5.278913422222222 28.48564224 9.33415367111111 12.166883555555556 5.473350542222222 23.383702186666664 12.629108053333335 33.3791744 21.17503431111111 20.20634055111111 17.28512455111111 35.43299185777778 40.214751004444445 43.20233244444444 66.34036792888888 2.021216711111111 6.861190257777778 3.462613902222222 13.950583466666666 4.416170666666666 21.185513244444447 0.8522638222222221 6.092755626666667 1.3936617244444445 12.24721976888889 1.3936617244444445 18.548384426666665 0 0.8836994844444443-0.10129408 1.7324714666666667-0.13622272000000002 2.5870631822222223l23.119406648888884 0c11.656922453333333 0 21.11099790222222-9.449418524444445 21.11099790222222-21.135447608888892l0-108.70207943111112C1020.2613623466666 641.9737497599999 1018.1365236622222 637.0930244266667 1014.8567039999999 633.3533092977777zM769.3732431644444 448.90452195555554L769.3732431644444 325.08057941333334l140.89600113777777 0c14.054205439999999 12.91668935111111 52.534157084444445 54.363264568888894 60.71449372444444 123.82394368L769.3732431644444 448.90452195555554zM352.15858915555555 734.8670304711111c-12.044632746666665-31.392887466666668-37.83609685333333-56.06429923555555-70.02536163555556-66.33221802666667-10.628849208888887-3.3857695288888885-21.90737521777778-5.256791608888888-33.646962915555555-5.256791608888888-11.74191559111111 0-23.036741404444445 1.8721860266666663-33.644633884444445 5.256791608888888-32.19159381333333 10.269082737777778-57.988879928888885 34.93933056-70.02769066666666 66.33221802666667-2.5742563555555553 6.784347022222223-4.515135715555556 13.862097351111112-5.739975111111111 21.185513244444447-1.03855104 6.045020159999999-1.684734862222222 12.236740835555556-1.684734862222222 18.548384426666665 0 0.8836994844444443 0.09896504888888889 1.740621368888889 0.11992291555555554 2.5870631822222223 1.418111431111111 60.19987569777778 50.56882688 108.78241564444444 110.98176853333332 108.78241564444444 60.407119644444435 0 109.57995690666667-48.582539946666664 110.97711160888889-108.78241564444444 0.018628835555555553-0.8464429511111111 0.11992291555555554-1.7033636977777777 0.11992291555555554-2.5870631822222223 0-6.319793493333333-0.6275549866666666-12.503364266666667-1.678913991111111-18.548384426666665C356.6923548444445 748.7291266844445 354.74914645333337 741.6513774933334 352.15858915555555 734.8670304711111zM294.7681575822222 777.1879913244445c-1.3773607822222222 24.513068373333336-21.498708195555555 44.04644636444444-46.28072789333333 44.04644636444444-24.763392000000003 0-44.903367111111116-19.53337799111111-46.28072789333333-44.04644636444444l-0.0023290311111111113 0c-0.037257671111111106-0.8545928533333332-0.26429553777777776-1.6824058311111112-0.2538166044444444-2.5870631822222223 0-6.57593799111111 1.4146184533333332-12.81888824888889 3.9085385955555556-18.548384426666665 3.839845262222222-8.850971306666668 10.423933155555554-16.14527943111111 18.620570737777776-21.185513244444447 7.04864256-4.261320248888889 15.183571626666668-6.899613013333333 24.00776419555556-6.899613013333333 8.826520462222222 0 16.98357248 2.638292764444444 24.029886008888887 6.899613013333333 8.18033664 5.04139776 14.737646933333334 12.335705884444446 18.604270933333336 21.185513244444447 2.4729622755555556 5.7294961777777775 3.8875807288888886 11.972446435555556 3.8875807288888886 18.548384426666665C295.00800227555555 775.50674944 294.8077442844444 776.3345624177778 294.7681575822222 777.1879913244445zM158.2778481777778 668.5348124444445c7.261708515555556-6.231307377777777 15.138164053333334-11.764037404444446 23.604918044444446-16.428202666666667 3.152910791111111-1.7545921422222222 6.435058346666667-3.2495479466666666 9.716041955555557-4.7549815466666665 0.48551139555555556-0.17930126222222223 0.9104782222222222-0.43544689777777773 1.375032888888889-0.6298840177777778l-0.0023290311111111113 0L43.79737315555559 646.7217453511112c0 0.20608-0.061707377777777773 0.4331178666666667-0.061707377777777773 0.6298840177777778l0 108.70207943111112c0 11.686029084444446 9.430789688888888 21.135447608888892 21.092369066666667 21.135447608888892l44.53777863111111 0c0-0.8464429511111111-0.1420435911111111-1.7033636977777777-0.1420435911111111-2.5870631822222223 0-6.301164657777778 0.5844764444444445-12.463778702222221 1.395989617777778-18.548384426666665 0.96869376-7.236093724444444 2.392626062222222-14.324321848888887 4.453428337777778-21.185513244444447C122.82855765333335 708.7414135466665 138.0528799288889 685.8117870933334 158.2778481777778 668.5348124444445z" p-id="9564" fill="#E8442E"></path></svg>