<?xml version="1.0" standalone="no"?><!DOCTYPE svg PUBLIC "-//W3C//DTD SVG 1.1//EN" "http://www.w3.org/Graphics/SVG/1.1/DTD/svg11.dtd"><svg t="1749803185407" class="icon" viewBox="0 0 1024 1024" version="1.1" xmlns="http://www.w3.org/2000/svg" p-id="11041" xmlns:xlink="http://www.w3.org/1999/xlink" width="200" height="200"><path d="M512 829.44c-20.48 0-40.96-6.826667-61.44-20.48-13.653333-6.826667-119.466667-81.92-204.8-153.6-13.653333-10.24-34.133333-30.72-51.2-51.2l-34.133333-34.133333c-6.826667-6.826667-6.826667-17.066667-3.413334-23.893334 6.826667-6.826667 17.066667-6.826667 23.893334-3.413333L218.453333 580.266667l47.786667 47.786666c85.333333 71.68 191.146667 143.36 204.8 153.6 13.653333 10.24 27.306667 13.653333 40.96 13.653334 10.24 0 34.133333 0 34.133333-6.826667 3.413333-6.826667 6.826667-10.24 13.653334-10.24s10.24 0 17.066666 3.413333c3.413333 3.413333 10.24 10.24 23.893334 3.413334 17.066667-6.826667 30.72-27.306667 34.133333-44.373334 0-6.826667 3.413333-13.653333 10.24-13.653333 6.826667-3.413333 13.653333 0 17.066667 3.413333 6.826667 6.826667 20.48 3.413333 34.133333 0 13.653333-6.826667 27.306667-20.48 23.893333-34.133333 0-6.826667 3.413333-13.653333 6.826667-17.066667 6.826667-3.413333 13.653333-3.413333 17.066667 0 10.24 6.826667 30.72 6.826667 40.96-3.413333 6.826667-6.826667 10.24-13.653333 3.413333-27.306667-17.066667-34.133333-102.4-105.813333-167.253333-163.84-34.133333-30.72-68.266667-58.026667-92.16-81.92-10.24 3.413333-17.066667 10.24-20.48 13.653334-10.24 6.826667-17.066667 13.653333-34.133334 17.066666-30.72 40.96-68.266667 51.2-116.053333 34.133334-23.893333-6.826667-30.72-23.893333-34.133333-34.133334-10.24-40.96 30.72-98.986667 61.44-129.706666 71.68-71.68 122.88-98.986667 225.28-54.613334 85.333333 37.546667 153.6 68.266667 153.6 68.266667 10.24 3.413333 13.653333 13.653333 10.24 23.893333-3.413333 10.24-13.653333 13.653333-23.893334 10.24 0 0-68.266667-30.72-153.6-68.266666-75.093333-34.133333-112.64-23.893333-184.32 47.786666-27.306667 27.306667-58.026667 75.093333-51.2 98.986667 0 3.413333 3.413333 6.826667 10.24 10.24 47.786667 13.653333 68.266667-3.413333 81.92-27.306667 3.413333-3.413333 6.826667-6.826667 13.653334-6.826666 10.24 0 13.653333-3.413333 23.893333-10.24 10.24-6.826667 20.48-13.653333 40.96-23.893334 6.826667-3.413333 13.653333 0 17.066667 3.413334 23.893333 23.893333 61.44 54.613333 98.986666 85.333333 78.506667 64.853333 157.013333 133.12 177.493334 174.08 13.653333 23.893333 6.826667 51.2-10.24 68.266667-17.066667 13.653333-37.546667 17.066667-58.026667 13.653333-6.826667 17.066667-20.48 34.133333-40.96 44.373333-17.066667 6.826667-34.133333 10.24-47.786667 6.826667-10.24 20.48-27.306667 40.96-47.786666 51.2-13.653333 6.826667-30.72 6.826667-44.373334 0-23.893333 6.826667-47.786667 10.24-64.853333 10.24z" fill="#0AD2E9" p-id="11042"></path><path d="M426.666667 300.373333h-204.8c-10.24 0-17.066667-10.24-17.066667-17.066666s6.826667-17.066667 17.066667-17.066667h204.8c10.24 0 17.066667 6.826667 17.066666 17.066667s-6.826667 17.066667-17.066666 17.066666zM802.133333 658.773333c-6.826667 0-10.24-3.413333-13.653333-6.826666-6.826667-6.826667-3.413333-17.066667 3.413333-23.893334l51.2-34.133333c6.826667-6.826667 17.066667-3.413333 23.893334 3.413333 6.826667 6.826667 3.413333 17.066667-3.413334 23.893334l-51.2 34.133333c-3.413333 0-6.826667 3.413333-10.24 3.413333zM733.866667 709.973333c-3.413333 0-6.826667 0-10.24-3.413333-23.893333-17.066667-126.293333-126.293333-139.946667-136.533333-6.826667-6.826667-6.826667-17.066667 0-23.893334 6.826667-6.826667 17.066667-6.826667 23.893333 0 30.72 34.133333 116.053333 122.88 133.12 136.533334 6.826667 6.826667 10.24 17.066667 3.413334 23.893333 0 0-6.826667 3.413333-10.24 3.413333zM648.533333 761.173333c-3.413333 0-6.826667 0-10.24-3.413333-30.72-23.893333-109.226667-109.226667-122.88-122.88-6.826667-6.826667-6.826667-17.066667 0-23.893333 6.826667-6.826667 17.066667-6.826667 23.893334 0 13.653333 17.066667 92.16 95.573333 116.053333 116.053333 6.826667 6.826667 10.24 17.066667 3.413333 23.893333 0 6.826667-6.826667 10.24-10.24 10.24zM563.2 812.373333c-3.413333 0-6.826667 0-10.24-3.413333-27.306667-23.893333-78.506667-75.093333-102.4-102.4-6.826667-6.826667-6.826667-17.066667 0-23.893333 6.826667-6.826667 17.066667-6.826667 23.893333 0 27.306667 27.306667 75.093333 78.506667 102.4 102.4 6.826667 6.826667 6.826667 17.066667 3.413334 23.893333-6.826667 0-13.653333 3.413333-17.066667 3.413333z" fill="#0AD2E9" p-id="11043"></path><path d="M17.066667 607.573333c-10.24 0-17.066667-6.826667-17.066667-17.066666v-375.466667c0-10.24 6.826667-17.066667 17.066667-17.066667 30.72 0 180.906667 3.413333 218.453333 37.546667 3.413333 3.413333 3.413333 6.826667 3.413333 13.653333-10.24 109.226667-64.853333 334.506667-68.266666 344.746667-3.413333 6.826667-10.24 13.653333-17.066667 13.653333h-136.533333z m17.066666-375.466666v341.333333h105.813334c10.24-47.786667 54.613333-221.866667 64.853333-317.44-27.306667-17.066667-109.226667-23.893333-170.666667-23.893333zM1006.933333 641.706667h-136.533333c-6.826667 0-13.653333-6.826667-17.066667-13.653334-17.066667-58.026667-105.813333-293.546667-133.12-337.92-3.413333-3.413333-3.413333-10.24-3.413333-13.653333s6.826667-10.24 10.24-10.24c3.413333 0 112.64-34.133333 279.893333-34.133333 10.24 0 17.066667 6.826667 17.066667 17.066666v375.466667c0 6.826667-6.826667 17.066667-17.066667 17.066667z m-122.88-34.133334H989.866667v-341.333333c-112.64 0-194.56 17.066667-232.106667 27.306667 37.546667 68.266667 105.813333 249.173333 126.293333 314.026666z" fill="#0AD2E9" p-id="11044"></path></svg>