<?xml version="1.0" standalone="no"?><!DOCTYPE svg PUBLIC "-//W3C//DTD SVG 1.1//EN" "http://www.w3.org/Graphics/SVG/1.1/DTD/svg11.dtd"><svg t="1750422434671" class="icon" viewBox="0 0 1024 1024" version="1.1" xmlns="http://www.w3.org/2000/svg" p-id="6717" xmlns:xlink="http://www.w3.org/1999/xlink" width="200" height="200"><path d="M1024 512C1024 794.77 794.77 1024 512 1024s-512-229.23-512-512 229.23-512 512-512S1024 229.23 1024 512zM96 512c0 229.75 186.25 416 416 416S928 741.75 928 512s-186.25-416-416-416S96 282.25 96 512zM557.254 210.744l256 256.002c24.994 24.992 24.994 65.514 0 90.508-24.994 24.994-65.516 24.994-90.51 0L576 410.51 576 768c0 35.346-28.654 64-64 64-35.346 0-64-28.654-64-64l0-357.49-146.744 146.746c-24.994 24.994-65.518 24.994-90.512 0C198.248 544.758 192 528.378 192 512s6.248-32.758 18.744-45.254l256-256.002C491.738 185.752 532.262 185.752 557.254 210.744z" fill="#E8442E" p-id="6718"></path></svg>