<?xml version="1.0" standalone="no"?><!DOCTYPE svg PUBLIC "-//W3C//DTD SVG 1.1//EN" "http://www.w3.org/Graphics/SVG/1.1/DTD/svg11.dtd"><svg t="1749569078882" class="icon" viewBox="0 0 1024 1024" version="1.1" xmlns="http://www.w3.org/2000/svg" p-id="4366" xmlns:xlink="http://www.w3.org/1999/xlink" width="200" height="200"><path d="M513.07 960.22c-131.54 0-238.3-106.76-238.3-238.3 0-83.88 43.85-160.14 114.38-203.98v-329.8c0-68.63 55.29-123.91 123.92-123.91s123.92 55.28 123.92 123.91v329.81c70.54 42.89 114.39 119.15 114.39 203.98-0.01 131.53-106.77 238.29-238.31 238.29z m0-838.81c-37.17 0-66.72 29.55-66.72 66.72v364.12l-15.26 7.63c-61 31.46-99.13 93.41-99.13 162.04 0 100.08 81.02 181.11 181.11 181.11 100.09 0 181.11-81.02 181.11-181.11 0-68.63-38.13-130.59-99.13-161.09l-15.25-8.58V188.14c-0.01-37.18-29.56-66.73-66.73-66.73z m0 0" fill="#ffffff" p-id="4367"></path><path d="M412.44 721.93c0 55.57 45.05 100.63 100.63 100.63S613.7 777.51 613.7 721.93c0-55.57-45.05-100.63-100.63-100.63s-100.63 45.05-100.63 100.63z m0 0" fill="#ffffff" p-id="4368"></path><path d="M513.06 335.88c16.21 0 28.6 12.39 28.6 28.6v295.49c0 16.2-12.39 28.59-28.6 28.59-16.2 0-28.59-12.39-28.59-28.59V364.48c0-16.21 12.39-28.6 28.59-28.6z m0 0" fill="#ffffff" p-id="4369"></path></svg>