<?xml version="1.0" standalone="no"?><!DOCTYPE svg PUBLIC "-//W3C//DTD SVG 1.1//EN" "http://www.w3.org/Graphics/SVG/1.1/DTD/svg11.dtd"><svg t="1742891841460" class="icon" viewBox="0 0 1024 1024" version="1.1" xmlns="http://www.w3.org/2000/svg" p-id="3781" xmlns:xlink="http://www.w3.org/1999/xlink" width="64" height="64"><path d="M512.068267 68.334933c-12.526933 0-25.019733 6.075733-32.324267 18.261334l-14.267733 23.790933c-6.144 10.24-16.315733 17.134933-27.818667 20.2752l-0.341333 0.136533a45.6704 45.6704 0 0 1-34.5088-3.584l-24.2688-13.482666a37.717333 37.717333 0 0 0-55.978667 32.324266l-0.546133 28.091734a45.636267 45.636267 0 0 1-14.1312 31.573333c-8.3968 8.430933-19.456 13.653333-31.3344 13.892267l-28.16 0.443733A37.751467 37.751467 0 0 0 216.064 276.138667l13.550933 24.337066c5.802667 10.478933 6.7584 22.7328 3.584 34.269867l-0.2048 0.580267a45.738667 45.738667 0 0 1-20.138666 27.613866l-23.8592 14.336a37.717333 37.717333 0 0 0 0 64.648534l23.893333 14.336c10.1376 6.144 16.9984 16.1792 20.138667 27.613866l0.1024 0.682667c3.1744 11.502933 2.286933 23.790933-3.515734 34.235733l-13.550933 24.337067a37.717333 37.717333 0 0 0 32.324267 55.978667l28.091733 0.477866c11.912533 0.2048 22.9376 5.563733 31.3344 13.960534l0.238933 0.238933c8.430933 8.3968 13.755733 19.456 13.960534 31.3344l0.443733 28.091733a37.717333 37.717333 0 0 0 55.978667 32.324267l24.3712-13.550933c10.478933-5.802667 22.7328-6.690133 34.269866-3.515734l0.682667 0.136534c11.400533 3.072 21.469867 9.966933 27.579733 20.138666l14.336 23.8592a37.717333 37.717333 0 0 0 64.648534 0l14.336-23.893333c6.144-10.1376 16.1792-16.9984 27.613866-20.138667l0.580267-0.1024a45.431467 45.431467 0 0 1 34.269867 3.515734l24.337066 13.550933a37.751467 37.751467 0 0 0 56.081067-32.324267l0.443733-28.091733c0.2048-11.912533 5.461333-22.9376 13.892267-31.3344l0.238933-0.238933c8.3968-8.430933 19.456-13.755733 31.3344-13.960534l28.16-0.443733a37.717333 37.717333 0 0 0 32.324267-55.978667l-13.550933-24.3712a45.4656 45.4656 0 0 1-3.584-34.269866l0.2048-0.682667c3.072-11.400533 9.966933-21.469867 20.138666-27.579733l23.8592-14.336c24.4736-14.677333 24.4736-50.005333 0.068267-64.648534l-23.893333-14.336a45.636267 45.636267 0 0 1-20.138667-27.613866l-0.170667-0.580267a45.4656 45.4656 0 0 1 3.584-34.269867l13.550934-24.337066a37.751467 37.751467 0 0 0-32.324267-56.081067l-28.16-0.443733a45.568 45.568 0 0 1-31.3344-13.892267l-0.238933-0.238933c-8.430933-8.3968-13.653333-19.456-13.892267-31.3344l-0.443733-28.16a37.751467 37.751467 0 0 0-56.081067-32.324267l-24.337067 13.550933c-10.478933 5.802667-22.7328 6.7584-34.269866 3.584l-0.580267-0.2048a45.636267 45.636267 0 0 1-27.613867-20.138666l-14.336-23.8592a37.341867 37.341867 0 0 0-32.324266-18.261334zM264.465067 717.346133l-75.332267 180.462934 132.334933-11.605334L409.6 989.866667l73.045333-175.0016a104.789333 104.789333 0 0 1-61.508266-47.104l-3.549867-5.905067-5.905067 3.345067c-15.7696 8.738133-33.518933 13.312-51.4048 13.312a106.427733 106.427733 0 0 1-95.812266-61.166934z m495.069866 0c-17.032533 36.010667-53.691733 61.269333-95.812266 61.269334a106.018133 106.018133 0 0 1-51.4048-13.4144l-5.905067-3.345067-3.549867 5.870933a104.994133 104.994133 0 0 1-61.610666 47.138134L614.4 989.866667l88.132267-103.594667 132.334933 11.537067-75.332267-180.462934z" p-id="3782" fill="#20BBFF"></path></svg>