<?xml version="1.0" standalone="no"?><!DOCTYPE svg PUBLIC "-//W3C//DTD SVG 1.1//EN" "http://www.w3.org/Graphics/SVG/1.1/DTD/svg11.dtd"><svg t="1741248594002" class="icon" viewBox="0 0 1248 1024" version="1.1" xmlns="http://www.w3.org/2000/svg" p-id="15329" xmlns:xlink="http://www.w3.org/1999/xlink" width="78" height="64"><path d="M1030.528 151.68c-3.968-0.096-103.456-2.752-206.048-44.736-97.536-39.488-162.336-84.16-174.72-93.024L630.816 0l-17.28 14.08c-13.792 9.76-78.272 53.728-174.56 92.896-59.68 24.224-131.648 40-202.72 44.48l-33.472 1.536v432.224c0 96.544 57.952 207.552 159.04 304.64 68.48 65.312 140.704 111.68 205.76 131.328l0.864-0.256c1.088 0.224 2.016 0.832 3.168 0.928a29.12 29.12 0 0 0 31.488-26.528 28.8 28.8 0 0 0-21.888-30.144l-0.448-0.48c-54.08-18.496-121.024-61.344-178.976-116.64-89.728-86.208-141.184-182.016-141.184-262.912V207.488c70.336-6.432 140.672-22.912 200.16-47.04a1015.552 1015.552 0 0 0 170.912-88.896c29.44 19.52 89.088 55.712 171.008 88.864 81.728 33.44 160.288 44.096 200.256 47.456v377.28c0 81.504-51.424 177.312-141.12 262.816-60.896 58.08-131.488 102.144-186.88 119.008l-0.384 0.576a28.992 28.992 0 0 0 7.232 56.32 28 28 0 0 0 14.272-2.88c64.032-20.544 138.88-67.488 205.664-131.168 101.056-96.352 159.008-207.424 159.008-304.672V151.648h-30.24z m-232.416 202.208l-215.648 215.68-102.848-102.816-40.864 40.864 143.712 143.744 256.512-256.608z" fill="#0AD2E9" p-id="15330"></path></svg>