<?xml version="1.0" standalone="no"?><!DOCTYPE svg PUBLIC "-//W3C//DTD SVG 1.1//EN" "http://www.w3.org/Graphics/SVG/1.1/DTD/svg11.dtd"><svg t="1742807945783" class="icon" viewBox="0 0 1024 1024" version="1.1" xmlns="http://www.w3.org/2000/svg" p-id="17830" xmlns:xlink="http://www.w3.org/1999/xlink" width="64" height="64"><path d="M182.87 146.29h585.14v292.57h73.14V73.14H109.72v877.72h402.29v-73.15H182.87z" fill="#20BBFF" p-id="17831"></path><path d="M713.14 481.52L512 582.1v88.24c0 110.29 62.31 211.11 160.95 260.43l40.19 20.09 40.19-20.09c98.64-49.32 160.95-150.14 160.95-260.43V582.1L713.14 481.52z m128 188.81c0 83.12-46.18 157.84-120.52 195.01l-7.48 3.74-7.48-3.74c-74.34-37.17-120.52-111.9-120.52-195.01V627.3l128-64 128 64v43.03z" fill="#20BBFF" p-id="17832"></path><path d="M657.87 683.21l-36.33 41.11 93.25 82.43 113.93-131.09-41.39-36L709.69 729zM256 256h438.86v73.14H256zM256 438.86h292.57V512H256zM256 621.71h146.29v73.14H256z" fill="#20BBFF" p-id="17833"></path></svg>