<?xml version="1.0" standalone="no"?><!DOCTYPE svg PUBLIC "-//W3C//DTD SVG 1.1//EN" "http://www.w3.org/Graphics/SVG/1.1/DTD/svg11.dtd"><svg t="1740770458197" class="icon" viewBox="0 0 1024 1024" version="1.1" xmlns="http://www.w3.org/2000/svg" p-id="5890" xmlns:xlink="http://www.w3.org/1999/xlink" width="64" height="64"><path d="M512 716.8c-109.226667 0-208.213333-85.333333-245.76-208.213333-34.133333 0-61.44-44.373333-61.44-102.4 0-17.066667 3.413333-34.133333 6.826667-47.786667-3.413333-20.48-6.826667-47.786667-6.826667-68.266667C204.8 122.88 344.746667 0 529.066667 0 692.906667 0 819.2 126.293333 819.2 290.133333v20.48c0 13.653333 3.413333 27.306667 0 47.786667 3.413333 10.24 0 17.066667 0 23.893333v13.653334c0 58.026667-27.306667 102.4-61.44 102.4-37.546667 126.293333-139.946667 218.453333-245.76 218.453333z m-235.52-245.76h6.826667c3.413333 3.413333 10.24 6.826667 10.24 10.24 27.306667 116.053333 119.466667 201.386667 218.453333 201.386667 95.573333 0 187.733333-88.746667 218.453333-208.213334 0-6.826667 3.413333-10.24 10.24-10.24 3.413333-3.413333 10.24 0 17.066667 0h3.413333c10.24 0 27.306667-27.306667 27.306667-68.266666v-17.066667-13.653333-10.24c3.413333-17.066667 3.413333-27.306667 0-40.96v-23.893334C785.066667 146.773333 672.426667 34.133333 529.066667 34.133333 365.226667 34.133333 238.933333 143.36 238.933333 290.133333c0 20.48 3.413333 47.786667 6.826667 64.853334v10.24c-3.413333 10.24-6.826667 23.893333-6.826667 40.96 0 40.96 17.066667 68.266667 27.306667 68.266666h3.413333c0-3.413333 3.413333-3.413333 6.826667-3.413333z" fill="#ffffff" p-id="5891"></path><path d="M221.866667 375.466667c-6.826667 0-13.653333-3.413333-17.066667-10.24-3.413333-10.24 0-17.066667 10.24-20.48 0 0 160.426667-58.026667 160.426667-187.733334 0-13.653333 6.826667-20.48 17.066666-20.48s17.066667 6.826667 17.066667 17.066667c6.826667 34.133333 201.386667 187.733333 375.466667 187.733333 10.24 0 17.066667 6.826667 17.066666 17.066667s-6.826667 17.066667-17.066666 17.066667c-150.186667 0-317.44-102.4-382.293334-174.08-30.72 119.466667-170.666667 170.666667-177.493333 174.08h-3.413333zM426.666667 409.6h-34.133334c-10.24 0-17.066667-6.826667-17.066666-17.066667s6.826667-17.066667 17.066666-17.066666h34.133334c10.24 0 17.066667 6.826667 17.066666 17.066666s-6.826667 17.066667-17.066666 17.066667zM631.466667 409.6h-34.133334c-10.24 0-17.066667-6.826667-17.066666-17.066667s6.826667-17.066667 17.066666-17.066666h34.133334c10.24 0 17.066667 6.826667 17.066666 17.066666s-6.826667 17.066667-17.066666 17.066667z" fill="#ffffff" p-id="5892"></path><path d="M358.4 648.533333s-3.413333 0 0 0c-20.48-3.413333-170.666667-27.306667-218.453333-71.68-6.826667-6.826667-6.826667-17.066667 0-23.893333C184.32 508.586667 204.8 358.4 204.8 290.133333c0-10.24 6.826667-17.066667 17.066667-17.066666s17.066667 6.826667 17.066666 17.066666c0 51.2-13.653333 204.8-61.44 269.653334 44.373333 27.306667 143.36 47.786667 184.32 54.613333 10.24 0 17.066667 10.24 13.653334 20.48 0 6.826667-10.24 13.653333-17.066667 13.653333zM665.6 648.533333c-6.826667 0-17.066667-6.826667-17.066667-13.653333 0-10.24 3.413333-17.066667 13.653334-20.48 37.546667-6.826667 139.946667-27.306667 184.32-54.613333-47.786667-68.266667-61.44-218.453333-61.44-269.653334 0-10.24 6.826667-17.066667 17.066666-17.066666s17.066667 6.826667 17.066667 17.066666c0 68.266667 20.48 218.453333 64.853333 259.413334 6.826667 6.826667 6.826667 17.066667 0 23.893333-47.786667 47.786667-197.973333 71.68-218.453333 75.093333 3.413333 0 0 0 0 0z" fill="#ffffff" p-id="5893"></path><path d="M512 1024H17.066667c-6.826667 0-10.24-3.413333-13.653334-6.826667s-3.413333-10.24-3.413333-13.653333l34.133333-139.946667c6.826667-30.72 27.306667-54.613333 54.613334-68.266666l211.626666-109.226667c6.826667-6.826667 13.653333-3.413333 20.48 3.413333 6.826667 6.826667 6.826667 13.653333 3.413334 20.48l-75.093334 119.466667 81.92 23.893333s3.413333 0 3.413334 3.413334l187.733333 136.533333c6.826667 3.413333 6.826667 13.653333 6.826667 20.48-3.413333 6.826667-10.24 10.24-17.066667 10.24zM37.546667 989.866667h419.84l-143.36-105.813334-98.986667-34.133333c-3.413333 0-10.24-6.826667-10.24-10.24-3.413333-3.413333 0-10.24 0-13.653333l51.2-81.92L102.4 826.026667c-17.066667 10.24-30.72 23.893333-37.546667 44.373333L37.546667 989.866667z" fill="#ffffff" p-id="5894"></path><path d="M1006.933333 1024H512c-6.826667 0-13.653333-3.413333-17.066667-10.24s0-13.653333 6.826667-20.48l187.733333-136.533333s3.413333 0 3.413334-3.413334l64.853333-27.306666-75.093333-119.466667c-3.413333-6.826667-3.413333-13.653333 3.413333-20.48 6.826667-6.826667 13.653333-6.826667 20.48-3.413333l228.693333 119.466666c27.306667 13.653333 44.373333 37.546667 54.613334 68.266667l34.133333 133.12c0 3.413333 0 10.24-3.413333 13.653333-3.413333 3.413333-6.826667 6.826667-13.653334 6.826667z m-443.733333-34.133333h419.84l-27.306667-112.64c-3.413333-20.48-17.066667-34.133333-34.133333-44.373334l-174.08-92.16 51.2 81.92c3.413333 3.413333 3.413333 10.24 3.413333 13.653334s-6.826667 10.24-10.24 10.24l-81.92 34.133333-146.773333 109.226667z" fill="#ffffff" p-id="5895"></path><path d="M512 1024c-6.826667 0-10.24-3.413333-13.653333-6.826667l-204.8-307.2c-6.826667-6.826667-3.413333-17.066667 3.413333-23.893333 10.24-6.826667 20.48-3.413333 23.893333 3.413333l191.146667 283.306667 174.08-283.306667c3.413333-6.826667 17.066667-10.24 23.893333-6.826666 6.826667 3.413333 10.24 17.066667 6.826667 23.893333l-187.733333 307.2c-6.826667 6.826667-10.24 10.24-17.066667 10.24z" fill="#ffffff" p-id="5896"></path></svg>