<?xml version="1.0" standalone="no"?><!DOCTYPE svg PUBLIC "-//W3C//DTD SVG 1.1//EN" "http://www.w3.org/Graphics/SVG/1.1/DTD/svg11.dtd"><svg t="1742807102136" class="icon" viewBox="0 0 1024 1024" version="1.1" xmlns="http://www.w3.org/2000/svg" p-id="14356" xmlns:xlink="http://www.w3.org/1999/xlink" width="64" height="64"><path d="M951.779197 215.525074v359.113678a288.143944 288.143944 0 0 1-287.347809 287.347809c-158.032765 0-287.290942-129.315044-287.290943-287.347809v-125.675571a52.8861 52.8861 0 0 0-53.909701-53.909702 52.8861 52.8861 0 0 0-53.852835 53.909702v359.170545c19.732771 0 35.882934 16.150164 35.882934 35.882934a35.996668 35.996668 0 0 1-35.882934 35.939801v107.70567a35.996668 35.996668 0 0 1-35.939802 35.939802c-3.582607 0-5.345477 0-8.98495-1.819737-3.582607 0-5.345477 1.819737-8.98495 1.819737H107.762537a72.050203 72.050203 0 0 1-71.822736-71.822736v-71.822736A35.996668 35.996668 0 0 1 0 844.01666c0-19.732771 16.150164-35.939801 35.939801-35.939801V448.963181a288.143944 288.143944 0 0 1 287.290943-287.347809c158.089632 0 287.347809 129.315044 287.347809 287.347809v125.675571c0 30.537458 23.315377 53.909702 53.852835 53.909701a52.8861 52.8861 0 0 0 53.909702-53.909701V215.525074A35.996668 35.996668 0 0 1 682.401288 179.585272c0-19.732771 16.150164-35.939801 35.939802-35.939801V35.939801c0-19.789637 16.150164-35.939801 35.882934-35.939801h125.675571c39.522408 0 71.879602 32.300328 71.879602 71.822736v71.822735c19.732771 0 35.882934 16.207031 35.882934 35.939801a35.996668 35.996668 0 0 1-35.882934 35.882935zM107.762537 933.75243c0 10.804687 7.165214 17.969901 17.9699 17.9699h71.822736v-71.822735h-89.849503v53.852835z m556.725718-233.438108c-62.894652 0-125.732437-46.687621-125.732438-107.762537V448.963181a216.093741 216.093741 0 0 0-215.525073-215.525074 216.093741 216.093741 0 0 0-215.525074 215.525074v359.170545h89.849503V448.906314c0-70.059866 55.672572-125.675571 125.675571-125.67557 62.837785 0 125.675571 50.213361 125.67557 107.70567v143.645471a216.093741 216.093741 0 0 0 215.525074 215.525073 216.093741 216.093741 0 0 0 215.525073-215.525073V215.525074h-89.849503v359.170544c0 70.059866-55.615705 125.675571-125.67557 125.675571z m215.468206-610.578553c0-10.804687-7.22208-17.969901-17.9699-17.9699h-71.822736v71.822735h89.792636V89.849503z" p-id="14357" fill="#20BBFF"></path></svg>