<?xml version="1.0" standalone="no"?><!DOCTYPE svg PUBLIC "-//W3C//DTD SVG 1.1//EN" "http://www.w3.org/Graphics/SVG/1.1/DTD/svg11.dtd"><svg t="1750334309527" class="icon" viewBox="0 0 1024 1024" version="1.1" xmlns="http://www.w3.org/2000/svg" p-id="9139" xmlns:xlink="http://www.w3.org/1999/xlink" width="200" height="200"><path d="M296.163723 701.702114m4-6.928203l160.24-277.543822q4-6.928203 10.928203-2.928203l41.56922 24q6.928203 4 2.928203 10.928203l-160.24 277.543822q-4 6.928203-10.928203 2.928203l-41.56922-24q-6.928203-4-2.928203-10.928203Z" p-id="9140" fill="#ffffff"></path><path d="M512 920H181.29a16 16 0 0 1-11.4-4.78L116.59 861a16 16 0 0 1-4.59-11.2V732.88a16 16 0 0 1 2.45-8.5l235.1-374.58a16 16 0 0 0 2.45-8.5V135.45h64v228.87L176 746.7v83.46L201.41 856H512z" p-id="9141" fill="#ffffff"></path><path d="M842.71 920H504v-64h318.59L848 830.16V746.7L608 364.32V135.45h64V341.3a16 16 0 0 0 2.45 8.5l235.1 374.58a16 16 0 0 1 2.45 8.5V849.8a16 16 0 0 1-4.59 11.2l-53.3 54.2a16 16 0 0 1-11.4 4.8z" p-id="9142" fill="#ffffff"></path><path d="M304 96m16 0l376 0q16 0 16 16l0 32q0 16-16 16l-376 0q-16 0-16-16l0-32q0-16 16-16Z" p-id="9143" fill="#ffffff"></path></svg>