<?xml version="1.0" standalone="no"?><!DOCTYPE svg PUBLIC "-//W3C//DTD SVG 1.1//EN" "http://www.w3.org/Graphics/SVG/1.1/DTD/svg11.dtd"><svg t="1750338319827" class="icon" viewBox="0 0 1024 1024" version="1.1" xmlns="http://www.w3.org/2000/svg" p-id="12740" xmlns:xlink="http://www.w3.org/1999/xlink" width="200" height="200"><path d="M664.132267 0H110.933333v1024h802.133334V248.9344L664.132267 0z m10.001066 58.2656L854.801067 238.933333H674.133333V58.2656zM145.066667 989.866667V34.133333h494.933333v238.933334h238.933333v716.8h-733.866666z" fill="#ffffff" p-id="12741"></path><path d="M281.6 290.133333h153.6a17.066667 17.066667 0 1 0 0-34.133333h-153.6a17.066667 17.066667 0 1 0 0 34.133333zM281.6 426.666667h85.333333a17.066667 17.066667 0 1 0 0-34.133334h-85.333333a17.066667 17.066667 0 1 0 0 34.133334zM537.6 426.666667h119.466667a17.066667 17.066667 0 1 0 0-34.133334h-119.466667a17.066667 17.066667 0 1 0 0 34.133334zM440.149333 397.653333a16.469333 16.469333 0 0 0-4.949333 11.946667c0 4.437333 1.706667 8.874667 4.949333 12.117333 3.2256 3.072 7.68 4.949333 12.117334 4.949334s8.874667-1.723733 12.117333-5.12c3.072-3.089067 4.949333-7.509333 4.949333-11.946667 0-4.4544-1.877333-8.891733-4.949333-12.117333-6.485333-6.314667-17.92-6.314667-24.234667 0.170666zM742.4 426.666667c4.437333 0 8.874667-1.877333 12.117333-4.949334 3.072-3.242667 4.949333-7.68 4.949334-12.117333 0-4.4544-1.877333-8.891733-4.949334-12.117333-6.485333-6.314667-17.749333-6.314667-24.234666 0-3.089067 3.2256-4.949333 7.662933-4.949334 12.117333 0 4.437333 1.860267 8.874667 4.949334 12.117333 3.2256 3.072 7.68 4.949333 12.117333 4.949334zM486.4 529.066667h-119.466667a17.066667 17.066667 0 1 0 0 34.133333h119.466667a17.066667 17.066667 0 1 0 0-34.133333zM281.6 563.2c4.437333 0 8.874667-1.877333 12.117333-4.949333a17.2544 17.2544 0 0 0 0-24.234667c-6.485333-6.314667-17.749333-6.314667-24.234666 0a16.827733 16.827733 0 0 0-4.949334 12.117333c0 4.437333 1.860267 8.874667 4.949334 12.117334 3.2256 3.072 7.68 4.949333 12.117333 4.949333zM335.274667 685.499733c-37.376 19.456-49.954133 56.6784-54.545067 95.266134l-21.1968-17.749334c-16.725333-14.011733-40.994133 10.001067-24.132267 24.149334l47.889067 40.123733c11.229867 9.403733 28.6208 3.464533 29.1328-12.066133 1.245867-36.9664 2.986667-80.930133 40.072533-100.232534 19.490133-10.154667 2.2528-39.6288-17.220266-29.4912zM448.768 753.578667c-23.637333 5.4784-50.5344 35.549867-67.1744 1.809066-9.710933-19.694933-39.168-2.423467-29.474133 17.220267 8.823467 17.902933 25.6 30.446933 45.550933 32.9728 10.1376 1.28 19.3024-0.1536 28.808533-3.857067 6.980267-2.7136 33.058133-22.3232 38.690134-12.2368 10.717867 19.182933 40.209067 1.979733 29.474133-17.220266-9.1648-16.418133-27.716267-22.903467-45.8752-18.688zM797.781333 589.021867a10.8544 10.8544 0 0 1-6.1952-14.967467 44.612267 44.612267 0 0 0-8.840533-51.2 44.629333 44.629333 0 0 0-51.182933-8.840533 10.871467 10.871467 0 0 1-14.984534-6.1952C710.109867 489.608533 693.4528 477.866667 674.133333 477.866667s-35.976533 11.741867-42.4448 29.952a10.8544 10.8544 0 0 1-14.967466 6.1952 44.680533 44.680533 0 0 0-51.2 8.840533 44.5952 44.5952 0 0 0-8.840534 51.182933 10.939733 10.939733 0 0 1-6.1952 14.984534C532.2752 595.490133 520.533333 612.1472 520.533333 631.466667s11.741867 35.976533 29.952 42.4448a10.8544 10.8544 0 0 1 6.1952 14.967466 44.612267 44.612267 0 0 0 8.840534 51.2c6.6048 6.587733 14.711467 10.752 23.278933 12.424534v210.295466l85.333333-85.333333 85.333334 85.333333V752.4864c8.567467-1.655467 16.6912-5.802667 23.278933-12.407467a44.5952 44.5952 0 0 0 8.840533-51.182933 10.939733 10.939733 0 0 1 6.1952-14.984533C815.991467 667.4432 827.733333 650.786133 827.733333 631.466667s-11.741867-35.976533-29.952-42.4448zM674.133333 829.201067l-51.2 51.2v-132.4032a11.8784 11.8784 0 0 1 2.6624 0.682666 10.5984 10.5984 0 0 1 6.0928 6.434134C638.1568 773.3248 654.813867 785.066667 674.133333 785.066667s35.976533-11.741867 42.4448-29.952a10.5984 10.5984 0 0 1 8.2944-7.048534l0.443734-0.068266v132.386133L674.133333 829.201067z m112.213334-187.4432a45.056 45.056 0 0 0-25.6 61.815466 10.427733 10.427733 0 0 1-2.1504 12.3904 10.666667 10.666667 0 0 1-9.5744 2.901334l-3.754667-1.1776c-1.553067-0.699733-3.191467-1.0752-4.795733-1.570134-1.194667-0.375467-2.3552-0.887467-3.566934-1.1776-1.672533-0.375467-3.396267-0.477867-5.102933-0.6656-1.3824-0.1536-2.730667-0.443733-4.113067-0.477866-1.655467-0.034133-3.293867 0.238933-4.932266 0.375466-1.416533 0.136533-2.850133 0.1024-4.266667 0.375467a44.4416 44.4416 0 0 0-8.874667 2.628267l-0.034133 0.017066c-0.750933 0.3072-1.3824 0.802133-2.116267 1.143467-2.116267 1.024-4.2496 2.030933-6.178133 3.362133a45.056 45.056 0 0 0-6.365867 5.444267c-0.221867 0.221867-0.512 0.392533-0.733866 0.631467a45.1072 45.1072 0 0 0-9.796267 15.940266c-2.286933 6.519467-7.936 7.2192-10.257067 7.2192s-7.970133-0.699733-10.2912-7.253333a44.9536 44.9536 0 0 0-9.796266-15.940267c-0.170667-0.187733-0.392533-0.3072-0.580267-0.494933a45.346133 45.346133 0 0 0-6.536533-5.5808c-1.8432-1.28-3.908267-2.235733-5.9392-3.2256-0.802133-0.392533-1.518933-0.938667-2.3552-1.28l-0.017067-0.017067c-0.3584-0.1536-0.733867-0.187733-1.092267-0.324266a44.970667 44.970667 0 0 0-7.594666-2.2528c-2.082133-0.4096-4.1472-0.494933-6.229334-0.6144-0.768-0.034133-1.536-0.221867-2.304-0.221867l-0.136533 0.017067a40.738133 40.738133 0 0 0-17.8688 3.805866l-3.874133 1.211734a10.632533 10.632533 0 0 1-9.864534-2.833067 10.4448 10.4448 0 0 1-2.1504-12.407467 45.090133 45.090133 0 0 0-25.6-61.7984A10.410667 10.410667 0 0 1 554.666667 631.466667c0-2.321067 0.699733-7.970133 7.253333-10.2912a45.056 45.056 0 0 0 25.6-61.815467 10.427733 10.427733 0 0 1 2.1504-12.3904 10.478933 10.478933 0 0 1 12.407467-2.1504 45.0048 45.0048 0 0 0 61.7984-25.6c2.286933-6.519467 7.936-7.2192 10.257066-7.2192s7.970133 0.699733 10.2912 7.253333a45.090133 45.090133 0 0 0 61.815467 25.6 10.376533 10.376533 0 0 1 12.3904 2.1504 10.4448 10.4448 0 0 1 2.1504 12.407467 45.090133 45.090133 0 0 0 25.6 61.7984c6.519467 2.286933 7.2192 7.936 7.2192 10.257067s-0.699733 7.970133-7.253333 10.2912z" fill="#ffffff" p-id="12742"></path></svg>