<?xml version="1.0" standalone="no"?><!DOCTYPE svg PUBLIC "-//W3C//DTD SVG 1.1//EN" "http://www.w3.org/Graphics/SVG/1.1/DTD/svg11.dtd"><svg t="1750333502184" class="icon" viewBox="0 0 1024 1024" version="1.1" xmlns="http://www.w3.org/2000/svg" p-id="2153" xmlns:xlink="http://www.w3.org/1999/xlink" width="200" height="200"><path d="M268.792986 152.758356c-3.829479-3.843507-17.912986-8.556712-39.669479-8.556712-21.770521 0-35.84 5.989699-39.697534 8.556712 3.857534 3.829479 17.927014 8.528658 39.697534 8.528658 21.742466 0 35.84-4.699178 39.669479-8.542685zM417.707836 58.031342c0-8.542685-7.672986-14.504329-15.36-14.504328H151.467836c-8.963507 0-15.36 7.252164-15.36 14.504328v25.6H418.577534V58.031342h-1.276493 0.420822zM188.584329 179.2v19.638356c2.567014 3.829479 16.650521 9.805151 40.539178 9.805151s38.392986-5.975671 40.539178-9.819178v-19.624329c-11.530521 4.699178-26.890521 5.975671-40.539178 5.975671-13.648658 0-29.443507-1.276493-40.539178-5.975671z" p-id="2154" fill="#ffffff"></path><path d="M130.132164 107.52l-80.208657 136.107836H328.942466l80.208657-136.107836H130.132164z m165.551343 92.16c0 23.047014-34.563507 32.852164-66.139178 32.852164-31.561644 0-66.139178-11.081644-66.139178-32.852164v-47.356493c0-23.047014 34.563507-32.852164 66.139178-32.852165 31.561644 0 66.139178 11.081644 66.139178 32.852165v47.356493zM430.500822 121.168658l-81.499178 138.674849v466.340822H512V259.408658l-81.499178-138.660822v0.420822zM125.012164 448.848658l8.963507-2.552987v-2.567013l-11.53052 2.567013 2.567013 2.552987zM159.140822 475.739178c7.672986 9.819178 11.516493 27.732164 12.792986 40.104329h19.217534c1.262466-11.951342 5.105973-29.022685 12.792987-38.827836v-49.923507h-45.659178v48.647014h1.276493-0.420822z" p-id="2155" fill="#ffffff"></path><path d="M40.96 269.227836V727.04h282.455671V269.227836H40.96z m238.072986 179.620822l-29.429479 21.77052c-2.567014 1.262466-5.12 2.552986-7.687014 2.552986h-3.843507l-7.672986-2.552986v13.227836s0 1.262466-1.276493 2.552986c0 1.276493-1.290521 1.276493-1.290521 2.567014 0 1.262466-1.262466 1.262466-1.262465 2.552986l-1.290521 1.276493c-3.843507 3.843507-8.963507 25.6-8.963507 37.551343 0 7.252164-5.12 11.951342-12.792986 11.951342h-41.815671c-7.687014 0-12.807014-4.699178-12.807014-11.951342 0-11.081644-5.12-34.128658-8.94948-37.551343-3.843507-3.408658-1.290521-1.262466-1.29052-1.262466-2.552986-2.567014-3.829479-5.989699-2.552986-9.819178v-7.266191l-7.687014 2.567013h-3.82948c-2.567014 0-5.12-1.276493-7.687013-2.567013l-31.996493-25.6c-3.843507-2.552986-5.12-7.252164-3.843507-11.937316 1.276493-4.699178 5.12-8.542685 10.24-9.819178l43.092164-9.819178v-4.68515c-11.516493-11.951342-19.203507-27.732164-19.203507-44.803507 0-7.252164 5.12-11.937315 12.807014-11.937315 7.672986 0 12.792986 4.685151 12.792986 11.937315 0 13.227836 6.410521 24.323507 17.927014 31.575671h48.212164c11.516493-7.252164 17.912986-19.638356 17.912987-31.561644 0-7.266192 5.134027-11.951342 12.807013-11.951342s12.807014 4.685151 12.807014 11.937315c0 17.071342-6.410521 32.852164-19.217534 44.803507v4.699178l43.106192 9.819178c5.12 1.262466 8.963507 4.685151 10.24 9.80515-1.276493 4.685151-2.567014 9.819178-6.396494 11.937316h0.841644z" p-id="2156" fill="#ffffff"></path><path d="M230.4 446.716493l7.672986 2.567014 3.843507-2.567014-11.516493-2.552986v2.552986zM656.650521 555.947836c0.841644-12.807014 19.203507-14.083507 21.756493-1.276494 24.744329 126.288658-34.563507 249.589479-145.492165 322.125151a58.42411 58.42411 0 0 0-26.455671 49.067836c0 5.975671-5.12 10.660822-11.081644 10.660822-23.902685 0-47.791342-2.552986-71.68-7.238137-16.229699-3.422685-28.167014-17.071342-29.036712-33.287014l-0.841644-13.227836a35.573479 35.573479 0 0 1 24.744329-36.695671c132.699178-43.947836 227.412164-154.020822 238.087014-290.128657z m57.596493-37.972165c-7.252164-10.24-23.032986-2.567014-19.638356 9.384329 38.841863 142.939178-24.730301 286.72-149.742466 368.219178a35.489315 35.489315 0 0 0-14.518356 41.801644l4.278356 12.807014c5.12 15.36 20.48 25.6 36.681644 24.744328a364.880658 364.880658 0 0 0 102.820822-21.321643c16.650521-5.989699-5.105973-27.311342 19.217534-57.189699 87.881644-109.217315 104.532164-258.973808 20.900822-378.024329v-0.420822zM706.139178 358.4c-19.203507-4.699178-12.792986-19.638356-47.356493-57.596493-21.756493-23.902685-60.598356-17.927014-74.247014 11.516493l-7.252164 14.939178a45.785425 45.785425 0 0 0 19.638356 59.728658c211.617315 113.060822 250.865973 351.147836 113.481644 522.660822-10.24 12.807014-10.660822 31.140822-0.841644 44.382684l8.093808 10.660822c9.819178 13.227836 27.311342 17.927014 42.671343 11.951343 121.168658-47.791342 203.088658-154.455671 213.328657-270.939178 13.662685-154.020822-98.556493-306.779178-267.502466-347.304329z" p-id="2157" fill="#ffffff"></path></svg>