<?xml version="1.0" standalone="no"?><!DOCTYPE svg PUBLIC "-//W3C//DTD SVG 1.1//EN" "http://www.w3.org/Graphics/SVG/1.1/DTD/svg11.dtd"><svg t="1750338433996" class="icon" viewBox="0 0 1024 1024" version="1.1" xmlns="http://www.w3.org/2000/svg" p-id="15494" xmlns:xlink="http://www.w3.org/1999/xlink" width="200" height="200"><path d="M672.41142857 498.42285714l3.01714286-6.53714285c4.52571429-9.55428571 20.61714286-12.06857143 28.66285714-15.58857143 6.53714286-3.52 15.58857143-7.04 21.12-16.59428572 20.61714286-34.19428571 30.17142857-96.54857143 20.11428572-116.16-3.01714286-5.53142857-5.53142857-7.54285714-15.58857143-15.08571428-3.52-2.01142857-6.03428571-4.02285714-8.54857143-6.03428572-0.50285714-5.02857143 6.53714286-17.09714286 10.05714286-48.77714285v-4.02285715c1.00571429-38.72-3.52-85.48571429-26.14857143-114.65142857-29.16571429-35.70285714-66.37714286-40.22857143-93.02857143-35.2-25.14285714-27.15428571-46.76571429-40.73142857-63.86285714-40.73142857-4.02285714 0-9.05142857-0.50285714-14.08-0.50285714-32.18285714-1.00571429-53.30285714-1.50857143-66.88 10.05714285-4.02285714 0.50285714-13.57714286 1.50857143-19.61142858 1.00571429-9.55428571-0.50285714-80.96 6.03428571-110.62857142 50.28571429-45.25714286 66.88-42.24 116.16-34.19428572 152.36571428l0.50285714 3.52c1.50857143 7.04 3.01714286 13.57714286 4.02285715 19.10857143 9.55428571-0.50285714 23.63428571 2.01142857 28.16-2.51428571 43.24571429-42.74285714 105.09714286-41.73714286 165.44-39.22285715 46.26285714 2.01142857 94.53714286-2.51428571 124.20571428-20.11428571 11.06285714-6.53714286 23.13142857-17.6 29.66857143-6.03428572 6.53714286 11.06285714 1.00571429 20.11428571-10.56 26.65142858-41.73714286 25.14285714-95.04 28.16-148.34285714 25.64571428-52.8-2.01142857-103.08571429-4.52571429-130.24 19.61142857-3.52 3.52-13.07428571 10.56-24.13714286 12.57142857-7.54285714 1.00571429-21.62285714 3.52-31.17714286 3.01714286-9.05142857 0.50285714-13.57714286 2.01142857-20.11428571 8.54857143-5.02857143 4.52571429-7.54285714 10.56-7.54285714 17.09714286 0 49.78285714 4.52571429 100.06857143 25.14285714 110.12571428 3.01714286 1.00571429 5.53142857 3.01714286 8.54857143 4.02285715 13.57714286 6.03428571 32.68571429 10.05714286 36.20571428 18.60571428 28.66285714 72.91428571 80.45714286 148.34285714 161.41714286 148.34285714 82.97142857-1.00571429 128.22857143-63.36 158.4-142.81142857zM406.90285714 648.77714286s-33.18857143 22.12571429-34.19428571 22.12571428c-1.00571429 0-2.01142857 0-2.51428572 0.50285715-20.61714286 7.04-39.72571429 11.06285714-55.81714285 14.58285714h-1.00571429c-38.72 8.04571429-71.90857143 15.08571429-99.56571428 45.76-41.73714286 46.76571429-63.36 74.42285714-65.37142858 184.54857143 0 4.02285714 1.00571429 7.54285714 3.52 10.05714285 2.01142857 2.51428571 5.02857143 4.02285714 7.54285715 4.02285715h225.28c12.06857143 0 21.12-10.56 20.11428571-22.12571429-4.52571429-43.24571429-8.04571429-130.24-1.50857143-180.02285714 3.52-27.15428571 6.53714286-46.26285714 13.07428572-58.33142857 4.02285714-9.05142857-9.55428571-21.12-9.55428572-21.12zM529.09714286 768.96l37.21142857-57.82857143c2.01142857-3.52 3.01714286-7.04 1.50857143-11.06285714-1.00571429-3.52-3.01714286-5.02857143-4.02285715-5.53142857-0.50285714 0-1.50857143-0.50285714-3.01714285-0.50285715-7.54285714-1.00571429-28.16-11.06285714-48.27428572-11.06285714s-41.73714286 9.55428571-50.28571428 11.06285714c-1.50857143 0-3.01714286 0.50285714-3.52 0.50285715-1.00571429 0-3.01714286 2.01142857-4.02285715 5.02857143-1.00571429 4.02285714-0.50285714 8.54857143 1.00571429 11.06285714l37.71428571 57.82857143-62.35428571 131.74857143c-2.01142857 5.02857143-1.00571429 11.06285714 1.50857143 14.08l74.92571428 68.89142857c1.00571429 1.00571429 1.50857143 1.00571429 2.01142858 1.00571428 0.50285714 0 1.00571429-0.50285714 1.00571428 0.50285715l76.43428572-69.89714286c3.52-3.52 4.52571429-10.05714286 2.01142857-14.58285714l-59.84-131.24571429zM780.02285714 711.13142857c-49.78285714-16.59428571-77.94285714-23.13142857-97.05142857-26.65142857l-2.01142857-0.50285714c-21.12-4.02285714-26.14857143-5.53142857-37.71428571-16.09142857-1.50857143-1.50857143-5.53142857-8.54857143-9.05142858-14.08-14.58285714-8.54857143-32.18285714 11.56571429-28.66285714 20.11428571 3.52 10.05714286 7.54285714 22.62857143 10.05714286 38.72 11.06285714 64.36571429 9.05142857 151.36 6.53714286 194.60571429-0.50285714 11.56571429 8.54857143 21.12 20.11428571 21.12h234.33142857c6.03428571 0 11.06285714-5.02857143 11.56571429-11.56571429 5.53142857-56.82285714-16.09142857-173.98857143-108.11428572-205.66857143z" fill="#ffffff" p-id="15495"></path></svg>