<?xml version="1.0" standalone="no"?><!DOCTYPE svg PUBLIC "-//W3C//DTD SVG 1.1//EN" "http://www.w3.org/Graphics/SVG/1.1/DTD/svg11.dtd"><svg t="1750333608001" class="icon" viewBox="0 0 1024 1024" version="1.1" xmlns="http://www.w3.org/2000/svg" p-id="3357" xmlns:xlink="http://www.w3.org/1999/xlink" width="200" height="200"><path d="M352 566.4c118.4 0 217.6-96 217.6-214.4s-96-217.6-217.6-217.6c-118.4 0-217.6 96-217.6 217.6 3.2 118.4 99.2 214.4 217.6 214.4z m0-384c83.2 0 153.6 64 166.4 144H185.6c12.8-80 83.2-144 166.4-144z m-166.4 192h332.8c-12.8 80-83.2 144-166.4 144s-153.6-60.8-166.4-144zM880 576c0-44.8-16-83.2-48-112-32-32-70.4-48-112-48s-83.2 16-112 48l-160 160c-32 32-48 70.4-48 112 0 44.8 16 83.2 48 112 32 32 70.4 48 112 48 44.8 0 83.2-16 112-48l160-160c32-28.8 48-67.2 48-112z m-160-112c32 0 57.6 9.6 80 32s32 48 32 80-9.6 57.6-32 80l-54.4 54.4-156.8-156.8 54.4-54.4c19.2-25.6 44.8-35.2 76.8-35.2z m-9.6 278.4L640 816c-22.4 22.4-48 32-80 32s-57.6-9.6-80-32-32-48-32-80 9.6-57.6 32-80l70.4-70.4 160 156.8z" p-id="3358" fill="#ffffff"></path></svg>