<?xml version="1.0" standalone="no"?><!DOCTYPE svg PUBLIC "-//W3C//DTD SVG 1.1//EN" "http://www.w3.org/Graphics/SVG/1.1/DTD/svg11.dtd"><svg t="1750337829410" class="icon" viewBox="0 0 1024 1024" version="1.1" xmlns="http://www.w3.org/2000/svg" p-id="4600" xmlns:xlink="http://www.w3.org/1999/xlink" width="200" height="200"><path d="M499.164345 802.46611c-10.458682 0-19.966574-3.803157-27.572887-11.409471-10.458682-9.507892-15.212628-24.72052-11.409471-38.982359l36.129991-152.126276c1.901578-6.655525 4.753946-12.36026 9.507892-18.064996l259.56546-286.187558c7.606314-7.606314 17.114206-12.36026 28.523676-13.311049 10.458682 0 20.917363 3.803157 29.474467 10.458682l115.045496 107.439183c16.163417 15.212628 17.114206 39.933148 2.852368 57.047353L680.765088 744.467967c-4.753946 5.704735-11.409471 9.507892-18.064995 11.40947l-151.175488 44.687094c-4.753946 0.950789-8.557103 1.901578-12.36026 1.901579z m152.126277-85.571031z m-78.915506-87.472609L554.310121 703.58403l74.16156-21.868153 225.337047-248.155988-56.096565-52.293408-225.337047 248.155989z" fill="#ffffff" p-id="4601"></path><path d="M913.708449 467.788301c-9.507892 0-19.966574-3.803157-27.572887-10.458682l-114.094708-107.439183c-15.212628-14.261838-17.114206-38.031569-3.803157-55.145775 27.572888-34.228412 67.506035-76.063138 101.734448-80.817084 38.982358-5.704735 66.555246 11.409471 72.259981 14.261838 1.901578 0.950789 3.803157 2.852368 5.704736 4.753946l44.687093 42.785516c16.163417 14.261838 38.982358 45.637883 27.572888 86.521819-9.507892 36.129991-59.899721 78.915506-79.866295 96.980502-8.557103 4.753946-17.114206 8.557103-26.622099 8.557103zM855.710306 317.563603l58.948933 55.145775c14.261838-14.261838 25.671309-26.622098 27.572887-33.277623 0 0.950789-1.901578-0.950789-1.901578-0.950789-0.950789-0.950789-1.901578-1.901578-3.803157-2.852368L895.643454 294.744661c-1.901578-0.950789-6.655525-1.901578-12.36026-1.901578-5.704735 3.803157-16.163417 13.311049-27.572888 24.72052zM501.065924 313.760446H232.943361c-21.868152 0-39.933148-18.064995-39.933147-39.933148s18.064995-39.933148 39.933147-39.933148h268.122563c21.868152 0 39.933148 18.064995 39.933147 39.933148S523.884865 313.760446 501.065924 313.760446zM385.069638 560.014856H231.041783c-21.868152 0-39.933148-18.064995-39.933148-39.933148 0-21.868152 18.064995-39.933148 39.933148-39.933147h154.027855c21.868152 0 39.933148 18.064995 39.933148 39.933147 0 21.868152-18.064995 39.933148-39.933148 39.933148zM322.317549 813.87558h-91.275766c-21.868152 0-39.933148-18.064995-39.933148-39.933147s18.064995-39.933148 39.933148-39.933148h91.275766c21.868152 0 39.933148 18.064995 39.933147 39.933148s-18.064995 39.933148-39.933147 39.933147z" fill="#ffffff" p-id="4602"></path><path d="M895.643454 1021.147632H97.931291C44.687094 1021.147632 1.901578 978.362117 1.901578 925.11792V98.88208C1.901578 45.637883 44.687094 2.852368 97.931291 2.852368h797.712163c53.244197 0 96.029712 42.785515 96.029712 96.029712v30.425255c0 21.868152-18.064995 39.933148-39.933147 39.933148s-39.933148-18.064995-39.933148-39.933148v-30.425255c0-8.557103-6.655525-15.212628-15.212628-15.212628h-798.662952c-8.557103 0-15.212628 6.655525-15.212628 15.212628v825.285051c0 8.557103 6.655525 15.212628 15.212628 15.212628h797.712163c8.557103 0 15.212628-6.655525 15.212628-15.212628v-332.77623c0-21.868152 18.064995-39.933148 39.933147-39.933148s39.933148 18.064995 39.933148 39.933148v332.77623c0.950789 54.194986-41.834726 96.980501-95.078923 96.980501z" fill="#ffffff" p-id="4603"></path></svg>