<?xml version="1.0" standalone="no"?><!DOCTYPE svg PUBLIC "-//W3C//DTD SVG 1.1//EN" "http://www.w3.org/Graphics/SVG/1.1/DTD/svg11.dtd"><svg t="1750334234201" class="icon" viewBox="0 0 1024 1024" version="1.1" xmlns="http://www.w3.org/2000/svg" p-id="8032" xmlns:xlink="http://www.w3.org/1999/xlink" width="200" height="200"><path d="M601.173333 311.04a42.666667 42.666667 0 0 1-2.986666 21.333333 728.746667 728.746667 0 0 0-31.146667 98.133334c-4.693333-14.506667-9.813333-28.586667-15.36-42.666667l-22.186667-54.613333a42.666667 42.666667 0 0 1-2.986666-22.613334A597.333333 597.333333 0 0 1 564.053333 170.666667a580.266667 580.266667 0 0 1 37.12 140.373333zM698.026667 386.56a159.573333 159.573333 0 0 0-26.026667 73.813333L666.026667 554.666667a11.093333 11.093333 0 0 1-8.106667 9.813333 459.946667 459.946667 0 0 1-67.413333 13.226667 666.88 666.88 0 0 1 111.786666-351.573334l12.8 50.773334a142.08 142.08 0 0 1-17.066666 109.653333zM478.293333 352.853333v24.32l-4.266666 10.666667a554.666667 554.666667 0 0 0-25.173334 78.08 405.333333 405.333333 0 0 0-55.466666-158.72v-39.68-17.066667a626.773333 626.773333 0 0 1 24.746666-111.36A532.906667 532.906667 0 0 1 436.48 85.333333a603.306667 603.306667 0 0 1 41.813333 267.52zM410.88 574.293333a594.773333 594.773333 0 0 1-59.733333-13.653333 11.093333 11.093333 0 0 1-9.813334-8.106667l-16.213333-75.946666a371.626667 371.626667 0 0 1 0-149.76l6.826667-34.56a366.506667 366.506667 0 0 1 69.12 162.133333zM554.666667 581.546667h-85.333334a554.666667 554.666667 0 0 1 20.48-117.76q8.96-30.72 20.48-60.16c0 3.84 2.986667 8.106667 4.693334 11.946666a583.68 583.68 0 0 1 39.68 165.973334z" fill="#ffffff" p-id="8033"></path><path d="M717.226667 623.36l-38.4 267.946667a42.666667 42.666667 0 0 1-34.986667 36.266666 856.32 856.32 0 0 1-264.106667 0 42.666667 42.666667 0 0 1-34.986666-36.266666l-38.4-267.946667a21.333333 21.333333 0 0 1 25.6-23.466667 853.333333 853.333333 0 0 0 180.053333 18.773334 853.333333 853.333333 0 0 0 179.626667-18.773334 21.333333 21.333333 0 0 1 25.6 23.466667z" fill="#ffffff" p-id="8034"></path></svg>