<?xml version="1.0" standalone="no"?><!DOCTYPE svg PUBLIC "-//W3C//DTD SVG 1.1//EN" "http://www.w3.org/Graphics/SVG/1.1/DTD/svg11.dtd"><svg t="1750337888339" class="icon" viewBox="0 0 1024 1024" version="1.1" xmlns="http://www.w3.org/2000/svg" p-id="5664" xmlns:xlink="http://www.w3.org/1999/xlink" width="200" height="200"><path d="M898.628267 395.195733L532.616533 109.397333a33.962667 33.962667 0 0 0-41.233066 0L125.371733 395.195733a33.450667 33.450667 0 0 0-12.629333 26.282667V896.341333c0 13.994667 11.264 25.2928 25.258667 25.2928h76.526933a25.258667 25.258667 0 0 0 25.258667-25.258666v-328.430934c0-18.3296 15.018667-33.28 33.314133-33.28h477.7984c18.295467 0 33.28 14.9504 33.28 33.28v328.3968c0 13.994667 11.298133 25.2928 25.258667 25.2928h76.561066a25.258667 25.258667 0 0 0 25.258667-25.258666V421.444267a33.450667 33.450667 0 0 0-12.629333-26.282667zM512 392.226133a66.730667 66.730667 0 0 1 0-133.4272 66.730667 66.730667 0 0 1 0 133.4272z" p-id="5665" fill="#ffffff"></path><path d="M488.925867 838.7584v49.5616a33.3824 33.3824 0 0 1-33.28 33.28h-103.458134a33.3824 33.3824 0 0 1-33.28-33.28v-49.5616c0-18.295467 14.984533-33.28 33.28-33.28h103.458134c18.3296 0 33.28 14.984533 33.28 33.28zM708.881067 838.7584v49.5616a33.3824 33.3824 0 0 1-33.28 33.28h-103.492267a33.3824 33.3824 0 0 1-33.28-33.28v-49.5616c0-18.295467 15.018667-33.28 33.28-33.28h103.492267c18.295467 0 33.28 14.984533 33.28 33.28z" p-id="5666" fill="#ffffff"></path><path d="M598.903467 672.699733v49.595734a33.3824 33.3824 0 0 1-33.28 33.28H462.165333a33.3824 33.3824 0 0 1-33.28-33.28v-49.595734c0-18.295467 14.9504-33.28 33.28-33.28h103.458134c18.295467 0 33.28 15.018667 33.28 33.28z" p-id="5667" fill="#ffffff"></path></svg>